{"glyphs":{"0":{"ha":835,"x_min":39,"x_max":797,"o":"m 39 397 q 88 607 39 515 q 223 751 138 699 q 418 804 308 804 q 615 752 529 804 q 749 608 700 700 q 797 400 797 517 q 749 185 797 279 q 614 36 700 90 q 418 -18 528 -18 q 222 35 307 -18 q 88 183 136 89 q 39 397 39 276 m 185 401 q 215 253 185 318 q 299 152 246 189 q 419 115 351 115 q 540 151 488 115 q 624 251 593 188 q 654 394 654 314 q 624 538 654 475 q 540 636 593 600 q 418 672 488 672 q 299 636 351 672 q 215 540 246 600 q 185 401 185 481 "},"1":{"ha":481,"x_min":14,"x_max":386,"o":"m 386 0 l 229 0 l 229 613 l 78 543 l 14 661 l 282 786 l 386 786 l 386 0 "},"2":{"ha":672,"x_min":35,"x_max":644,"o":"m 313 804 q 466 776 401 804 q 566 694 531 747 q 601 571 601 642 q 582 463 601 513 q 519 363 563 414 q 401 249 476 313 l 246 119 l 624 119 l 644 0 l 35 0 l 35 104 l 322 353 q 400 427 368 393 q 449 494 432 461 q 465 557 465 526 q 420 648 465 618 q 303 678 375 678 q 215 666 256 678 q 142 638 175 654 q 85 607 110 621 l 53 732 q 156 780 92 756 q 313 804 219 804 "},"3":{"ha":663,"x_min":0,"x_max":617,"o":"m 313 804 q 472 772 408 804 q 568 684 536 739 q 600 567 600 629 q 582 485 600 524 q 536 418 564 446 q 476 378 508 390 q 541 342 508 371 q 595 267 574 313 q 617 163 617 221 q 577 26 617 88 q 465 -70 538 -35 q 293 -106 392 -106 q 138 -80 215 -106 q 0 -22 60 -54 l 79 83 q 182 36 133 51 q 296 21 231 21 q 380 38 340 21 q 445 86 419 54 q 471 161 471 118 q 417 272 471 231 q 246 314 364 314 l 196 314 l 174 435 l 254 435 q 400 470 346 435 q 454 564 454 506 q 437 621 454 594 q 387 663 419 647 q 308 678 354 678 q 188 654 243 678 q 97 606 133 631 l 24 711 q 158 778 88 753 q 313 804 229 804 "},"4":{"ha":761,"x_min":14,"x_max":733,"o":"m 733 215 l 717 88 l 588 88 l 588 -96 l 431 -96 l 431 88 l 35 88 l 14 215 l 472 793 l 588 793 l 588 215 l 733 215 m 431 538 l 182 215 l 431 215 l 431 538 "},"5":{"ha":704,"x_min":39,"x_max":665,"o":"m 236 294 l 94 294 l 118 786 l 614 786 l 597 658 l 253 658 l 243 457 q 299 478 269 471 q 360 486 329 486 q 531 447 464 486 q 631 341 597 407 q 665 197 665 275 q 625 42 665 111 q 509 -66 585 -26 q 328 -106 433 -106 q 226 -94 278 -106 q 126 -62 174 -82 q 39 -22 78 -43 l 115 86 q 218 40 169 56 q 333 25 267 25 q 467 72 414 25 q 519 197 519 118 q 476 317 519 275 q 367 360 433 360 q 282 338 317 360 q 236 294 247 315 "},"6":{"ha":726,"x_min":39,"x_max":688,"o":"m 103 406 q 184 476 143 444 q 274 528 225 508 q 383 547 322 547 q 541 510 472 547 q 649 410 610 474 q 688 267 688 347 q 649 120 688 185 q 542 19 611 56 q 388 -18 474 -18 q 208 24 286 -18 q 84 147 129 65 q 39 350 39 229 q 72 528 39 449 q 160 669 104 607 q 285 775 217 731 q 428 846 354 819 q 569 881 503 872 l 594 754 q 483 722 540 743 q 373 669 426 700 q 278 594 319 638 q 211 493 236 550 q 186 363 186 436 q 213 222 186 278 q 283 138 239 165 q 382 111 326 111 q 466 131 429 111 q 524 185 503 151 q 544 260 544 219 q 524 346 544 308 q 465 403 503 383 q 379 424 428 424 q 289 408 332 424 q 208 366 246 393 q 138 301 169 339 l 103 406 "},"7":{"ha":642,"x_min":14,"x_max":614,"o":"m 331 -96 l 185 -53 l 440 658 l 33 658 l 14 786 l 567 786 l 614 721 l 331 -96 "},"8":{"ha":715,"x_min":39,"x_max":676,"o":"m 358 893 q 510 860 447 893 q 607 774 574 828 q 640 654 640 719 q 624 578 640 614 q 578 515 607 543 q 513 471 549 488 q 592 426 554 460 q 653 347 629 393 q 676 251 676 301 q 639 117 676 178 q 530 19 601 56 q 358 -18 458 -18 q 185 19 257 -18 q 76 117 114 56 q 39 251 39 178 q 63 345 39 300 q 124 425 86 390 q 203 471 161 460 q 112 544 147 496 q 76 654 76 593 q 110 773 76 718 q 206 860 143 828 q 358 893 269 893 m 356 765 q 283 750 315 765 q 234 709 251 735 q 217 654 217 683 q 253 571 217 606 q 358 525 289 536 q 435 551 404 533 q 482 595 467 568 q 497 654 497 622 q 459 732 497 699 q 356 765 421 765 m 358 410 q 225 351 269 397 q 181 249 181 306 q 206 174 181 206 q 271 125 231 142 q 357 108 311 108 q 443 126 403 108 q 508 174 483 143 q 533 249 533 206 q 489 351 533 306 q 358 410 444 397 "},"9":{"ha":726,"x_min":39,"x_max":688,"o":"m 622 379 q 542 309 582 342 q 453 257 501 276 q 342 238 406 238 q 185 274 253 238 q 78 375 117 311 q 39 518 39 439 q 77 667 39 603 q 183 767 115 731 q 338 804 251 804 q 517 763 438 804 q 642 640 597 721 q 688 435 688 558 q 655 259 688 339 q 566 117 622 179 q 440 11 510 56 q 297 -60 371 -33 q 156 -94 222 -86 l 131 32 q 242 66 185 46 q 353 117 300 86 q 448 192 406 149 q 515 293 490 236 q 540 424 540 350 q 514 565 540 510 q 443 648 488 621 q 343 675 399 675 q 258 656 296 675 q 200 602 221 636 q 179 525 179 568 q 201 441 179 478 q 260 383 222 404 q 346 363 297 363 q 436 378 393 363 q 517 420 479 393 q 588 483 556 447 l 622 379 "},"\u0000":{"ha":0,"x_min":0,"x_max":0,"o":""},"\r":{"ha":0,"x_min":0,"x_max":0,"o":""}," ":{"ha":317,"x_min":0,"x_max":0,"o":""}," ":{"ha":317,"x_min":0,"x_max":0,"o":""},"‌":{"ha":0,"x_min":-42,"x_max":42,"o":"m -42 -94 l -42 1528 l 42 1528 l 42 -94 l -42 -94 "},"‍":{"ha":0,"x_min":-157,"x_max":158,"o":"m 0 1425 l 103 1528 l 158 1472 l 56 1369 l 158 1267 l 104 1213 l 42 1274 l 42 -94 l -42 -94 l -42 1272 l -103 1213 l -157 1267 l -54 1369 l -157 1472 l -101 1528 l 0 1425 "},"◌":{"ha":840,"x_min":63,"x_max":778,"o":"m 419 638 q 390 649 401 638 q 379 678 379 660 q 390 708 379 696 q 419 719 401 719 q 449 708 438 719 q 460 678 460 696 q 449 649 460 660 q 419 638 438 638 m 544 617 q 504 657 504 617 q 515 686 504 675 q 544 697 526 697 q 574 686 563 697 q 585 657 585 675 q 574 628 585 639 q 544 617 563 617 m 296 697 q 325 686 314 697 q 336 657 336 675 q 325 628 336 639 q 296 617 314 617 q 267 628 278 617 q 256 657 256 639 q 267 686 256 675 q 296 697 278 697 m 650 546 q 621 557 632 546 q 610 586 610 568 q 621 616 610 604 q 650 628 632 628 q 680 616 668 628 q 692 586 692 604 q 680 557 692 568 q 650 546 668 546 m 190 628 q 219 616 208 628 q 231 586 231 604 q 219 557 231 568 q 190 546 208 546 q 160 557 172 546 q 149 586 149 568 q 160 616 149 604 q 190 628 172 628 m 717 436 q 688 447 699 436 q 676 476 676 458 q 688 506 676 494 q 717 518 699 518 q 746 506 735 518 q 757 476 757 494 q 746 447 757 458 q 717 436 735 436 m 124 518 q 153 506 142 518 q 164 476 164 494 q 153 447 164 458 q 124 436 142 436 q 94 447 106 436 q 82 476 82 458 q 94 506 82 494 q 124 518 106 518 m 736 318 q 707 328 718 318 q 696 357 696 339 q 707 388 696 376 q 736 399 718 399 q 766 388 754 399 q 778 357 778 376 q 766 328 778 339 q 736 318 754 318 m 104 399 q 133 388 122 399 q 144 357 144 376 q 133 328 144 339 q 104 318 122 318 q 74 328 86 318 q 63 357 63 339 q 74 388 63 376 q 104 399 86 399 m 717 201 q 688 213 699 201 q 676 242 676 224 q 688 271 676 260 q 717 282 699 282 q 746 271 735 282 q 757 242 757 260 q 746 213 757 224 q 717 201 735 201 m 124 282 q 153 271 142 282 q 164 242 164 260 q 153 213 164 224 q 124 201 142 201 q 94 213 106 201 q 82 242 82 224 q 94 271 82 260 q 124 282 106 282 m 651 90 q 622 101 633 90 q 611 131 611 113 q 622 160 611 149 q 651 171 633 171 q 681 160 669 171 q 693 131 693 149 q 681 101 693 113 q 651 90 669 90 m 189 171 q 218 160 207 171 q 229 131 229 149 q 218 101 229 113 q 189 90 207 90 q 159 101 171 90 q 147 131 147 113 q 159 160 147 149 q 189 171 171 171 m 296 103 q 325 91 314 103 q 336 61 336 79 q 325 32 336 43 q 296 21 314 21 q 267 32 278 21 q 256 61 256 43 q 267 91 256 79 q 296 103 278 103 m 544 21 q 515 32 526 21 q 504 61 504 43 q 515 91 504 79 q 544 103 526 103 q 574 91 563 103 q 585 61 585 79 q 574 32 585 43 q 544 21 563 21 m 419 0 q 390 11 401 0 q 379 40 379 22 q 390 70 379 58 q 419 82 401 82 q 449 70 438 82 q 460 40 460 58 q 449 11 460 22 q 419 0 438 0 "},"A":{"ha":892,"x_min":14,"x_max":878,"o":"m 582 364 l 440 732 l 303 364 l 582 364 m 375 944 l 511 944 l 878 10 l 722 -12 l 631 238 l 257 238 l 168 0 l 14 0 l 375 944 "},"B":{"ha":854,"x_min":122,"x_max":817,"o":"m 478 0 l 122 0 l 122 944 l 453 944 q 619 919 547 944 q 731 838 690 894 q 771 685 771 781 q 736 584 771 628 q 658 510 701 540 q 773 420 729 478 q 817 274 817 363 q 792 154 817 206 q 723 69 768 103 q 615 17 678 35 q 478 0 553 0 m 433 814 l 278 814 l 278 551 l 408 551 q 510 565 464 551 q 581 607 556 578 q 607 682 607 636 q 586 763 607 735 q 526 803 565 792 q 433 814 488 814 m 482 424 l 278 424 l 278 129 l 468 129 q 565 144 524 129 q 631 192 607 160 q 656 271 656 224 q 608 386 656 349 q 482 424 560 424 "},"C":{"ha":779,"x_min":53,"x_max":756,"o":"m 750 904 l 701 793 q 635 814 665 806 q 575 827 606 822 q 500 832 544 832 q 355 787 419 832 q 253 660 290 742 q 215 468 215 579 q 233 332 215 396 q 287 218 251 268 q 373 140 322 168 q 489 113 424 113 q 605 124 554 113 q 696 154 656 136 l 756 39 q 676 8 722 21 q 583 -12 631 -6 q 497 -19 536 -19 q 304 18 388 -19 q 165 123 221 56 q 81 278 108 190 q 53 467 53 367 q 84 666 53 575 q 174 824 115 757 q 317 927 233 890 q 504 964 400 964 q 575 958 532 964 q 665 940 618 953 q 750 904 711 926 "},"D":{"ha":951,"x_min":122,"x_max":899,"o":"m 468 0 l 122 0 l 122 944 l 471 944 q 712 883 618 944 q 852 717 806 822 q 899 478 899 613 q 849 228 899 336 q 703 61 799 121 q 468 0 607 1 m 476 813 l 276 813 l 276 131 l 465 131 q 609 168 549 131 q 703 282 669 206 q 738 476 738 358 q 710 654 738 579 q 624 771 682 729 q 476 813 567 813 "},"E":{"ha":779,"x_min":122,"x_max":751,"o":"m 751 0 l 122 0 l 122 944 l 668 944 l 692 822 l 276 822 l 276 540 l 592 540 l 615 417 l 276 417 l 276 122 l 728 122 l 751 0 "},"F":{"ha":694,"x_min":122,"x_max":667,"o":"m 578 532 l 600 411 l 276 411 l 276 0 l 122 0 l 122 944 l 643 944 l 667 822 l 276 822 l 276 532 l 578 532 "},"G":{"ha":872,"x_min":53,"x_max":807,"o":"m 464 386 l 476 506 l 807 506 l 807 49 q 728 15 774 31 q 630 -10 682 -1 q 524 -19 578 -19 q 272 45 378 -19 q 109 220 165 110 q 53 467 53 331 q 89 667 53 576 q 192 824 125 757 q 347 928 258 892 q 542 964 436 964 q 615 958 571 964 q 708 940 660 953 q 793 904 756 926 l 744 793 q 678 814 707 806 q 619 827 649 822 q 544 832 589 832 q 419 808 479 832 q 313 740 360 785 q 241 626 267 694 q 215 468 215 558 q 254 280 215 361 q 363 156 293 199 q 519 113 432 113 q 603 118 567 113 q 667 132 639 124 l 667 386 l 464 386 "},"H":{"ha":951,"x_min":122,"x_max":829,"o":"m 829 0 l 674 0 l 674 411 l 276 411 l 276 0 l 122 0 l 122 944 l 276 951 l 276 535 l 674 535 l 674 944 l 829 944 l 829 0 "},"I":{"ha":399,"x_min":122,"x_max":276,"o":"m 276 0 l 122 0 l 122 944 l 276 944 l 276 0 "},"J":{"ha":389,"x_min":14,"x_max":282,"o":"m 125 111 l 125 944 l 282 944 l 282 85 q 263 -18 282 24 q 200 -87 244 -60 q 76 -142 156 -115 l 14 -28 q 86 6 63 -10 q 117 44 110 21 q 125 111 125 68 "},"K":{"ha":890,"x_min":122,"x_max":876,"o":"m 683 0 l 876 0 l 482 526 l 811 875 l 699 965 l 278 528 l 278 944 l 122 944 l 122 0 l 278 0 l 278 313 l 376 414 l 683 0 "},"L":{"ha":735,"x_min":122,"x_max":721,"o":"m 700 122 l 721 0 l 122 0 l 122 944 l 276 944 l 276 122 l 700 122 "},"M":{"ha":1065,"x_min":122,"x_max":944,"o":"m 581 303 l 521 296 l 276 624 l 276 0 l 122 0 l 122 944 l 218 944 l 544 493 l 849 944 l 944 944 l 944 0 l 788 0 l 788 601 l 581 303 "},"N":{"ha":1013,"x_min":122,"x_max":892,"o":"m 276 0 l 122 0 l 122 944 l 269 944 l 671 374 l 733 279 l 733 944 l 892 944 l 892 0 l 742 0 l 322 600 l 276 669 l 276 0 "},"O":{"ha":1018,"x_min":53,"x_max":965,"o":"m 507 -19 q 746 47 643 -17 q 907 223 849 111 q 965 479 965 335 q 909 728 965 618 q 751 902 853 838 q 510 967 649 967 q 272 899 375 964 q 111 723 169 835 q 53 467 53 611 q 108 219 53 329 q 267 44 164 108 q 507 -19 369 -19 m 506 113 q 353 158 419 113 q 251 285 288 204 q 215 469 215 365 q 255 659 215 578 q 362 787 294 740 q 511 833 429 833 q 664 788 599 833 q 765 661 729 742 q 801 478 801 581 q 763 282 801 364 q 657 156 724 200 q 506 113 590 113 "},"P":{"ha":808,"x_min":122,"x_max":769,"o":"m 276 0 l 122 0 l 122 944 l 404 944 q 589 915 506 944 q 721 819 672 885 q 769 646 769 753 q 739 508 769 567 q 655 413 708 450 q 533 357 601 375 q 392 339 465 339 l 276 339 l 276 0 m 400 814 l 276 814 l 276 468 l 399 468 q 504 485 458 468 q 576 541 550 503 q 607 638 603 579 q 581 742 607 704 q 510 797 556 781 q 400 814 465 814 "},"Q":{"ha":1018,"x_min":53,"x_max":965,"o":"m 633 342 l 944 39 l 853 -42 l 528 261 l 633 342 m 510 967 q 751 902 649 967 q 909 727 853 838 q 965 479 965 617 q 907 223 965 335 q 746 47 849 111 q 507 -19 643 -17 q 266 44 368 -19 q 108 219 164 108 q 53 468 53 329 q 111 723 53 611 q 272 899 169 835 q 510 967 375 964 m 215 469 q 252 285 215 367 q 354 158 289 204 q 506 113 419 113 q 657 156 590 113 q 763 282 724 200 q 801 478 801 364 q 765 661 801 581 q 664 788 729 742 q 511 833 599 833 q 362 787 429 833 q 255 659 294 740 q 215 469 215 578 "},"R":{"ha":854,"x_min":122,"x_max":840,"o":"m 400 814 l 276 814 l 276 496 l 399 496 q 503 512 457 496 q 578 561 550 528 q 607 653 607 594 q 581 747 607 713 q 510 798 556 782 q 400 814 464 814 m 122 944 l 404 944 q 589 915 506 944 q 721 822 672 885 q 769 660 769 760 q 724 506 769 568 q 607 413 678 444 l 840 0 l 674 0 l 468 371 q 426 369 451 369 q 381 368 401 368 l 276 368 l 276 0 l 122 0 l 122 944 "},"S":{"ha":725,"x_min":53,"x_max":688,"o":"m 68 57 l 104 182 q 171 155 132 169 q 253 130 210 140 q 339 119 297 119 q 443 133 401 119 q 506 174 485 147 q 528 239 528 201 q 500 308 528 279 q 424 365 472 338 q 315 421 376 392 q 212 480 260 450 q 128 544 164 510 q 73 622 93 579 q 53 718 53 664 q 90 844 53 789 q 199 933 128 900 q 369 967 269 967 q 508 946 440 967 q 626 900 576 925 l 575 775 q 519 801 549 789 q 453 822 489 814 q 375 829 418 829 q 258 802 306 829 q 211 719 211 775 q 237 648 211 678 q 311 592 263 618 q 424 532 360 565 q 526 476 478 504 q 610 414 574 447 q 667 338 646 381 q 688 239 688 296 q 647 107 688 164 q 529 16 606 50 q 340 -18 453 -18 q 272 -11 311 -18 q 194 6 233 -4 q 121 30 154 17 q 68 57 88 43 "},"T":{"ha":807,"x_min":14,"x_max":793,"o":"m 769 944 l 793 821 l 469 821 l 469 0 l 311 0 l 311 821 l 14 821 l 14 944 l 769 944 "},"U":{"ha":971,"x_min":108,"x_max":864,"o":"m 264 944 l 264 353 q 292 221 264 275 q 372 140 321 167 q 486 113 422 113 q 602 140 553 113 q 679 222 651 168 q 707 353 707 276 l 707 944 l 864 944 l 864 340 q 817 159 864 240 q 687 31 771 78 q 486 -15 603 -15 q 285 31 371 -15 q 154 158 200 78 q 108 340 108 239 l 108 944 l 264 944 "},"V":{"ha":892,"x_min":14,"x_max":878,"o":"m 169 957 l 450 213 l 722 944 l 878 944 l 515 0 l 379 0 l 14 935 l 169 957 "},"W":{"ha":1263,"x_min":14,"x_max":1249,"o":"m 1249 944 l 1093 944 l 904 213 l 711 944 l 556 944 l 367 213 l 169 957 l 14 935 l 296 0 l 432 0 l 631 722 l 833 0 l 971 0 l 1249 944 "},"X":{"ha":861,"x_min":14,"x_max":847,"o":"m 175 0 l 14 0 l 347 478 l 43 914 l 174 972 l 444 575 l 683 944 l 847 944 l 522 468 l 829 0 l 664 0 l 428 369 l 175 0 "},"Y":{"ha":825,"x_min":14,"x_max":811,"o":"m 481 0 l 325 0 l 325 371 l 14 917 l 167 967 l 401 528 l 646 944 l 811 944 l 481 369 l 481 0 "},"Z":{"ha":793,"x_min":25,"x_max":765,"o":"m 747 122 l 765 0 l 43 0 l 25 122 l 582 821 l 83 821 l 64 944 l 746 944 l 763 822 l 194 122 l 747 122 "},"a":{"ha":692,"x_min":63,"x_max":618,"o":"m 199 199 q 210 154 199 175 q 244 120 222 133 q 297 107 267 107 q 383 128 342 107 q 461 185 425 149 l 461 306 l 310 306 q 228 272 257 306 q 199 199 199 239 m 142 504 l 100 632 q 171 663 126 650 q 261 684 215 676 q 335 692 307 692 q 478 660 414 692 q 580 574 542 629 q 618 450 618 518 l 618 0 l 513 0 l 489 68 q 403 8 453 33 q 300 -17 353 -17 q 121 43 179 -17 q 63 199 63 103 q 132 354 63 300 q 313 410 201 408 l 460 410 l 460 414 q 431 512 458 474 q 338 550 403 550 q 233 535 285 550 q 142 504 181 521 "},"b":{"ha":757,"x_min":94,"x_max":719,"o":"m 176 0 l 94 0 l 94 965 l 249 981 l 249 101 l 176 0 m 193 463 l 149 569 q 219 637 179 610 q 302 678 260 664 q 382 692 344 692 q 562 648 486 692 q 678 524 638 604 q 719 336 719 444 q 678 151 719 231 q 560 26 636 71 q 378 -18 485 -18 q 299 -3 344 -18 q 213 40 254 13 q 146 106 172 68 l 192 214 q 281 138 238 160 q 378 117 325 117 q 476 145 436 117 q 538 224 517 174 q 558 335 558 274 q 538 451 558 401 q 478 530 518 501 q 379 558 438 558 q 281 535 324 558 q 193 463 239 511 "},"c":{"ha":650,"x_min":39,"x_max":618,"o":"m 569 161 l 615 49 q 542 13 586 28 q 456 -10 497 -3 q 385 -18 414 -18 q 201 26 279 -18 q 81 151 124 71 q 39 336 39 231 q 82 523 39 443 q 203 647 125 603 q 388 692 282 692 q 457 684 415 692 q 542 661 499 676 q 618 624 586 646 l 572 513 q 483 545 526 532 q 388 558 440 558 q 289 529 332 558 q 223 450 246 500 q 199 338 200 400 q 221 224 199 274 q 286 145 243 174 q 386 117 329 117 q 481 128 439 117 q 569 161 524 140 "},"d":{"ha":774,"x_min":39,"x_max":681,"o":"m 524 121 l 524 965 l 681 979 l 681 0 l 596 0 l 524 121 m 563 211 l 610 106 q 539 39 579 67 q 456 -3 499 11 q 375 -18 414 -18 q 195 26 271 -18 q 79 151 119 71 q 39 339 39 231 q 80 524 39 444 q 197 647 121 603 q 378 692 274 692 q 458 677 414 692 q 544 635 503 663 q 611 568 585 607 l 565 461 q 476 536 519 514 q 379 558 432 558 q 281 529 322 558 q 219 451 240 500 q 199 339 199 401 q 219 224 199 274 q 281 145 240 174 q 378 117 322 117 q 474 140 432 117 q 563 211 517 164 "},"e":{"ha":707,"x_min":39,"x_max":669,"o":"m 669 296 l 203 296 q 233 201 210 242 q 301 138 256 161 q 418 115 346 115 q 522 132 476 115 q 617 175 567 149 l 664 61 q 594 22 632 40 q 513 -7 557 3 q 415 -17 468 -17 q 207 27 292 -17 q 81 151 122 71 q 39 336 39 231 q 78 523 39 443 q 192 647 118 603 q 369 692 267 692 q 540 642 474 692 q 638 510 607 592 q 669 329 669 428 l 669 296 m 206 401 l 519 401 q 491 486 511 451 q 440 540 471 521 q 364 558 408 558 q 287 540 321 558 q 233 486 253 521 q 206 401 213 451 "},"f":{"ha":483,"x_min":18,"x_max":483,"o":"m 18 550 l 18 668 l 122 668 l 122 739 q 151 864 122 811 q 232 946 179 917 q 360 975 285 975 q 405 970 382 975 q 449 957 428 965 q 483 939 471 949 l 440 821 q 405 833 424 829 q 371 838 386 838 q 301 805 322 838 q 279 719 279 772 l 279 668 l 404 668 l 454 550 l 279 550 l 279 0 l 122 0 l 122 550 l 18 550 "},"g":{"ha":768,"x_min":39,"x_max":681,"o":"m 681 674 l 681 -46 q 640 -192 681 -131 q 523 -286 599 -253 q 342 -319 447 -319 q 287 -315 321 -319 q 216 -302 253 -311 q 144 -279 179 -293 q 85 -247 110 -265 l 132 -136 q 233 -178 186 -164 q 338 -194 281 -193 q 472 -154 419 -193 q 524 -44 524 -115 l 524 557 l 596 674 l 681 674 m 563 211 l 610 106 q 539 39 579 67 q 456 -3 499 11 q 375 -18 414 -18 q 195 26 271 -18 q 79 151 119 71 q 39 339 39 231 q 80 524 39 444 q 197 647 121 603 q 378 692 274 692 q 458 677 414 692 q 544 635 503 663 q 611 568 585 607 l 565 461 q 476 536 519 514 q 379 558 432 558 q 281 529 322 558 q 219 451 240 500 q 199 339 199 401 q 219 224 199 274 q 281 145 240 174 q 378 117 322 117 q 474 140 432 117 q 563 211 517 164 "},"h":{"ha":782,"x_min":94,"x_max":707,"o":"m 249 471 l 225 593 q 308 648 264 625 q 397 683 351 671 q 485 696 443 696 q 616 661 568 696 q 685 567 664 626 q 707 433 707 508 l 707 0 l 551 0 l 551 424 q 526 528 551 490 q 446 565 501 565 q 377 551 413 565 q 310 515 342 538 q 249 471 278 493 m 249 0 l 94 0 l 94 965 l 249 981 l 249 0 "},"i":{"ha":317,"x_min":67,"x_max":250,"o":"m 238 0 l 81 0 l 81 674 l 238 674 l 238 0 m 157 782 q 92 808 118 782 q 67 875 67 835 q 92 940 67 914 q 157 967 118 967 q 222 940 194 967 q 250 875 250 914 q 223 809 250 836 q 157 782 196 782 "},"j":{"ha":349,"x_min":-3,"x_max":274,"o":"m 179 782 q 246 809 218 782 q 274 875 274 836 q 246 940 274 913 q 179 967 218 967 q 114 940 140 967 q 88 875 88 913 q 100 828 88 849 q 134 794 113 807 q 179 782 156 782 m 258 674 l 101 674 l 101 4 q 96 -70 101 -40 q 68 -122 90 -100 q -3 -161 46 -143 l 57 -278 q 189 -215 146 -250 q 245 -129 232 -179 q 258 -6 258 -79 l 258 674 "},"k":{"ha":697,"x_min":94,"x_max":697,"o":"m 249 0 l 94 0 l 94 965 l 249 981 l 249 414 l 544 692 l 633 585 l 439 406 l 697 0 l 517 0 l 329 304 l 249 231 l 249 0 "},"l":{"ha":343,"x_min":94,"x_max":249,"o":"m 249 0 l 94 0 l 94 965 l 249 981 l 249 0 "},"m":{"ha":1178,"x_min":81,"x_max":1104,"o":"m 236 0 l 81 0 l 81 674 l 185 674 l 213 593 q 294 648 251 625 q 380 683 336 671 q 460 696 424 696 q 583 665 536 696 q 652 578 631 633 q 674 447 674 522 l 674 0 l 517 0 l 517 424 q 508 499 517 468 q 478 548 499 531 q 422 565 458 565 q 358 551 390 565 q 296 515 326 538 q 236 471 265 493 l 236 0 m 667 471 l 643 593 q 724 648 681 625 q 810 683 767 671 q 890 696 853 696 q 1014 665 967 696 q 1083 578 1061 633 q 1104 447 1104 522 l 1104 0 l 947 0 l 947 424 q 938 499 947 468 q 909 548 929 531 q 853 565 889 565 q 790 551 822 565 q 727 515 758 538 q 667 471 696 493 "},"n":{"ha":769,"x_min":81,"x_max":694,"o":"m 236 0 l 81 0 l 81 674 l 185 674 l 213 593 q 295 648 251 625 q 385 683 339 671 q 471 696 431 696 q 603 661 554 696 q 673 567 651 626 q 694 433 694 508 l 694 0 l 538 0 l 538 424 q 513 528 538 490 q 433 565 489 565 q 365 551 400 565 q 297 515 329 538 q 236 471 265 493 l 236 0 "},"o":{"ha":772,"x_min":39,"x_max":735,"o":"m 385 -18 q 569 27 492 -17 q 691 151 647 71 q 735 338 735 232 q 692 524 735 444 q 572 647 649 603 q 388 692 494 692 q 203 647 282 692 q 82 524 125 603 q 39 336 39 444 q 81 151 39 231 q 200 26 122 71 q 385 -18 278 -18 m 386 117 q 286 145 329 117 q 221 224 243 174 q 199 338 199 274 q 223 450 200 400 q 289 529 246 500 q 388 558 332 558 q 488 530 446 558 q 551 451 529 501 q 574 338 574 401 q 551 225 574 275 q 486 146 528 175 q 386 117 444 117 "},"p":{"ha":751,"x_min":89,"x_max":714,"o":"m 243 -289 l 89 -304 l 89 674 l 171 674 l 243 578 l 243 -289 m 188 463 l 143 569 q 214 637 174 610 q 297 678 254 664 q 376 692 339 692 q 556 648 481 692 q 673 524 632 604 q 714 336 714 444 q 672 151 714 231 q 555 26 631 71 q 372 -18 479 -18 q 294 -3 339 -18 q 208 40 249 13 q 140 106 167 68 l 186 214 q 276 138 232 160 q 372 117 319 117 q 471 145 431 117 q 532 224 511 174 q 553 335 553 274 q 533 451 553 401 q 472 530 513 501 q 374 558 432 558 q 276 535 318 558 q 188 463 233 511 "},"q":{"ha":768,"x_min":39,"x_max":681,"o":"m 596 674 l 681 674 l 681 -290 l 524 -304 l 524 564 l 596 674 m 563 211 l 610 106 q 539 39 579 67 q 456 -3 499 11 q 375 -18 414 -18 q 195 26 271 -18 q 79 151 119 71 q 39 339 39 231 q 80 524 39 444 q 197 647 121 603 q 378 692 274 692 q 458 677 414 692 q 544 635 503 663 q 611 568 585 607 l 565 461 q 476 536 519 514 q 379 558 432 558 q 281 529 322 558 q 219 451 240 500 q 199 339 199 401 q 219 224 199 274 q 281 145 240 174 q 378 117 322 117 q 474 140 432 117 q 563 211 517 164 "},"r":{"ha":489,"x_min":81,"x_max":475,"o":"m 236 0 l 81 0 l 81 674 l 164 674 l 215 563 q 282 612 243 586 q 363 656 321 638 q 442 674 406 674 l 475 549 q 399 532 442 549 q 315 489 357 515 q 236 429 272 463 l 236 0 "},"s":{"ha":586,"x_min":40,"x_max":547,"o":"m 43 47 l 90 154 q 151 131 121 142 q 211 115 182 121 q 269 110 240 110 q 332 118 303 110 q 379 143 361 126 q 397 182 397 160 q 381 223 397 204 q 335 258 364 242 q 264 285 306 274 q 160 331 211 304 q 74 397 108 357 q 40 490 40 436 q 110 638 40 585 q 300 692 179 692 q 369 684 329 692 q 451 662 410 676 q 524 625 493 647 l 475 518 q 390 552 432 539 q 297 565 349 565 q 226 544 254 565 q 197 493 197 524 q 234 447 197 467 q 319 411 271 428 q 427 362 375 393 q 513 288 479 331 q 547 188 547 246 q 476 37 547 92 q 271 -18 406 -18 q 200 -11 243 -18 q 115 11 157 -4 q 43 47 74 26 "},"t":{"ha":501,"x_min":17,"x_max":476,"o":"m 389 668 l 436 550 l 267 550 l 267 226 q 290 142 267 175 q 363 110 314 110 q 399 114 381 110 q 433 125 417 118 l 476 10 q 442 -7 464 1 q 397 -21 421 -15 q 351 -26 372 -26 q 224 0 276 -26 q 141 77 171 26 q 111 201 111 128 l 111 550 l 18 550 l 17 668 l 111 668 l 111 833 l 267 864 l 267 668 l 389 668 "},"u":{"ha":769,"x_min":75,"x_max":689,"o":"m 532 674 l 689 674 l 689 0 l 582 0 l 556 81 q 474 27 518 50 q 384 -9 429 4 q 299 -22 339 -22 q 165 12 214 -22 q 96 106 117 46 q 75 240 75 165 l 75 674 l 231 674 l 231 251 q 256 147 231 185 q 335 110 281 110 q 404 124 369 110 q 472 159 439 138 q 532 203 504 181 l 532 674 "},"v":{"ha":676,"x_min":14,"x_max":663,"o":"m 403 0 l 264 0 l 14 649 l 165 699 l 338 225 l 499 674 l 663 674 l 403 0 "},"w":{"ha":985,"x_min":14,"x_max":971,"o":"m 758 0 l 624 0 l 485 446 l 353 0 l 217 0 l 14 647 l 167 699 l 289 239 l 403 674 l 572 674 l 694 239 l 808 674 l 971 674 l 758 0 "},"x":{"ha":681,"x_min":14,"x_max":667,"o":"m 188 0 l 14 0 l 242 343 l 39 647 l 181 696 l 344 440 l 494 674 l 667 674 l 435 319 l 644 0 l 472 0 l 332 222 l 188 0 "},"y":{"ha":678,"x_min":14,"x_max":664,"o":"m 217 -60 l 254 32 l 14 647 l 165 699 l 338 226 l 500 674 l 664 674 l 364 -106 q 305 -197 344 -156 q 214 -267 265 -239 q 107 -308 163 -294 l 53 -182 q 119 -151 85 -168 q 179 -112 153 -135 q 217 -60 206 -90 "},"z":{"ha":608,"x_min":22,"x_max":586,"o":"m 571 674 l 579 586 l 217 125 l 572 125 l 586 0 l 42 0 l 22 82 l 378 546 l 76 546 l 44 674 l 571 674 "},"ﬁ":{"ha":800,"x_min":18,"x_max":733,"o":"m 18 550 l 18 668 l 122 668 l 122 739 q 151 864 122 811 q 232 946 179 917 q 360 975 285 975 q 405 970 382 975 q 449 957 428 965 q 483 939 471 949 l 440 821 q 405 833 424 829 q 371 838 386 838 q 301 805 322 838 q 279 719 279 772 l 279 668 l 404 668 l 454 550 l 279 550 l 279 0 l 122 0 l 122 550 l 18 550 m 721 0 l 564 0 l 564 674 l 721 674 l 721 0 m 640 782 q 576 808 601 782 q 550 875 550 835 q 576 940 550 914 q 640 967 601 967 q 706 940 678 967 q 733 875 733 914 q 706 809 733 836 q 640 782 679 782 "},"ﬂ":{"ha":826,"x_min":18,"x_max":732,"o":"m 18 550 l 18 668 l 122 668 l 122 739 q 151 864 122 811 q 232 946 179 917 q 360 975 285 975 q 405 970 382 975 q 449 957 428 965 q 483 939 471 949 l 440 821 q 405 833 424 829 q 371 838 386 838 q 301 805 322 838 q 279 719 279 772 l 279 668 l 404 668 l 454 550 l 279 550 l 279 0 l 122 0 l 122 550 l 18 550 m 732 0 l 578 0 l 578 965 l 732 981 l 732 0 "},"`":{"ha":264,"x_min":14,"x_max":250,"o":"m 142 818 l 14 1042 l 178 1042 l 250 847 l 142 818 "},"¨":{"ha":446,"x_min":14,"x_max":432,"o":"m 97 843 q 38 867 63 843 q 14 925 14 890 q 38 983 14 958 q 97 1007 63 1007 q 155 983 132 1007 q 178 925 178 958 q 155 867 178 890 q 97 843 132 843 m 349 843 q 292 867 317 843 q 267 925 267 890 q 292 983 267 958 q 349 1007 317 1007 q 408 983 385 1007 q 432 925 432 958 q 408 867 432 890 q 349 843 385 843 "},"¯":{"ha":383,"x_min":14,"x_max":369,"o":"m 14 861 l 14 985 l 357 985 l 369 861 l 14 861 "},"´":{"ha":264,"x_min":14,"x_max":250,"o":"m 121 818 l 14 847 l 86 1042 l 250 1042 l 121 818 "},"ˆ":{"ha":511,"x_min":14,"x_max":497,"o":"m 257 924 l 160 818 l 14 836 l 207 1042 l 303 1042 l 497 836 l 356 818 l 257 924 "},"ˇ":{"ha":511,"x_min":14,"x_max":497,"o":"m 257 936 l 356 1042 l 497 1024 l 304 818 l 208 818 l 14 1024 l 158 1042 l 257 936 "},"˘":{"ha":424,"x_min":14,"x_max":410,"o":"m 304 1038 l 410 1038 q 389 933 410 983 q 324 853 368 883 q 211 822 281 824 q 100 853 144 824 q 35 933 56 883 q 14 1038 14 982 l 121 1038 q 142 969 121 1001 q 211 936 163 936 q 281 969 258 936 q 304 1038 304 1001 "},"˙":{"ha":213,"x_min":14,"x_max":199,"o":"m 108 833 q 42 860 69 833 q 14 925 14 888 q 42 992 14 964 q 108 1019 69 1019 q 173 992 147 1019 q 199 926 199 965 q 173 860 199 888 q 108 833 147 833 "},"˚":{"ha":311,"x_min":14,"x_max":297,"o":"m 156 1089 q 226 1072 194 1089 q 278 1024 258 1054 q 297 954 297 993 q 278 888 297 917 q 226 842 258 858 q 156 825 194 825 q 56 862 99 825 q 14 954 14 899 q 34 1024 14 993 q 86 1072 54 1054 q 156 1089 118 1089 m 157 899 q 196 915 179 899 q 213 954 213 932 q 196 994 213 978 q 157 1011 179 1011 q 117 994 133 1011 q 100 954 100 978 q 117 915 100 932 q 157 899 133 899 "},"˜":{"ha":465,"x_min":14,"x_max":450,"o":"m 351 988 l 450 988 q 431 894 450 929 q 380 845 413 860 q 311 831 347 831 q 265 839 283 831 q 231 860 246 847 q 199 878 215 871 q 161 885 183 885 q 133 870 146 885 q 118 838 119 856 l 14 838 q 33 931 14 897 q 85 979 53 965 q 154 993 118 993 q 201 987 182 993 q 236 967 221 981 q 269 949 251 957 q 310 940 286 940 q 338 954 326 940 q 351 988 350 968 "},"˝":{"ha":518,"x_min":14,"x_max":504,"o":"m 121 818 l 14 847 l 86 1042 l 250 1042 l 121 818 m 376 818 l 267 847 l 340 1042 l 504 1042 l 376 818 "},"˛":{"ha":318,"x_min":14,"x_max":304,"o":"m 72 6 l 218 7 q 185 -30 201 -7 q 158 -78 168 -53 q 147 -124 147 -103 q 160 -160 147 -147 q 197 -172 172 -172 q 226 -165 208 -172 q 258 -147 243 -158 l 304 -243 q 242 -277 275 -267 q 171 -287 210 -287 q 90 -267 125 -287 q 34 -213 54 -247 q 14 -137 14 -179 q 22 -86 14 -112 q 45 -35 31 -60 q 72 6 60 -10 "},"¸":{"ha":322,"x_min":14,"x_max":308,"o":"m 71 -106 l 119 18 l 235 18 l 207 -50 q 259 -77 236 -58 q 295 -120 282 -96 q 308 -169 308 -144 q 284 -247 308 -215 q 221 -292 260 -278 q 138 -307 182 -307 q 74 -297 111 -307 q 14 -271 36 -287 l 50 -179 q 93 -195 67 -186 q 138 -204 119 -204 q 176 -197 157 -204 q 194 -172 194 -189 q 178 -142 194 -154 q 133 -119 161 -129 q 71 -106 104 -110 "},"":{"ha":0,"x_min":17,"x_max":204,"o":"m 111 -31 q 177 -61 150 -31 q 204 -143 204 -92 q 184 -239 204 -193 q 129 -319 164 -285 q 53 -376 94 -354 l 17 -301 q 60 -269 38 -292 q 90 -217 83 -247 q 42 -188 65 -217 q 18 -125 18 -160 q 31 -80 18 -100 q 65 -45 43 -60 q 111 -31 86 -31 "},"Þ":{"ha":818,"x_min":122,"x_max":769,"o":"m 404 833 l 276 833 l 276 944 l 122 944 l 122 0 l 276 0 l 276 228 l 392 228 q 533 246 465 228 q 655 301 601 264 q 739 397 708 339 q 769 535 769 456 q 721 708 769 642 q 589 803 672 774 q 404 833 506 833 m 399 357 l 276 357 l 276 703 l 400 703 q 510 686 465 703 q 581 631 556 669 q 607 526 607 593 q 576 430 603 468 q 504 374 550 392 q 399 357 458 357 "},"Ð":{"ha":951,"x_min":25,"x_max":899,"o":"m 404 411 l 40 411 l 25 532 l 390 532 l 404 411 m 468 0 l 122 0 l 122 944 l 471 944 q 712 883 618 944 q 852 717 806 822 q 899 478 899 613 q 849 228 899 336 q 703 60 799 121 q 468 0 607 0 m 476 813 l 276 813 l 276 131 l 465 131 q 609 168 549 131 q 703 282 669 206 q 738 476 738 358 q 710 654 738 579 q 624 771 682 729 q 476 813 567 813 "},"Æ":{"ha":1297,"x_min":7,"x_max":1269,"o":"m 639 0 l 639 238 l 314 238 l 154 -14 l 7 8 l 622 944 l 1189 944 l 1211 822 l 797 822 l 797 540 l 1113 540 l 1135 417 l 797 417 l 797 122 l 1247 122 l 1269 0 l 639 0 m 639 729 l 397 364 l 639 364 l 639 729 "},"Đ":{"ha":951,"x_min":25,"x_max":899,"o":"m 404 411 l 40 411 l 25 532 l 390 532 l 404 411 m 468 0 l 122 0 l 122 944 l 471 944 q 712 883 618 944 q 852 717 806 822 q 899 478 899 613 q 849 228 899 336 q 703 61 799 121 q 468 0 607 1 m 476 813 l 276 813 l 276 131 l 465 131 q 609 168 549 131 q 703 282 669 206 q 738 476 738 358 q 710 654 738 579 q 624 771 682 729 q 476 813 567 813 "},"Ł":{"ha":743,"x_min":14,"x_max":721,"o":"m 122 0 l 721 0 l 700 122 l 276 122 l 276 425 l 490 592 l 428 699 l 276 581 l 276 944 l 122 944 l 122 460 l 14 375 l 76 268 l 122 303 l 122 0 "},"Œ":{"ha":1344,"x_min":53,"x_max":1317,"o":"m 750 904 l 701 793 q 635 814 665 806 q 575 827 606 822 q 500 832 544 832 q 355 787 419 832 q 253 660 290 742 q 215 468 215 579 q 233 332 215 396 q 287 218 251 268 q 373 140 322 168 q 489 113 424 113 q 605 124 554 113 q 696 154 656 136 l 756 39 q 676 8 722 21 q 583 -12 631 -6 q 497 -19 536 -19 q 304 18 388 -19 q 165 123 221 56 q 81 278 108 190 q 53 467 53 367 q 84 666 53 575 q 174 824 115 757 q 317 927 233 890 q 504 964 400 964 q 575 958 532 964 q 665 940 618 953 q 750 904 711 926 m 1317 0 l 688 0 l 688 944 l 1235 944 l 1257 822 l 843 822 l 843 540 l 1158 540 l 1181 417 l 843 417 l 843 122 l 1293 122 l 1317 0 "},"Ø":{"ha":1018,"x_min":53,"x_max":965,"o":"m 507 -19 q 746 47 643 -17 q 907 223 849 111 q 965 479 965 335 q 909 728 965 618 q 751 902 853 838 q 510 967 649 967 q 272 899 375 964 q 111 723 169 835 q 53 467 53 611 q 108 219 53 329 q 267 44 164 108 q 507 -19 369 -19 m 506 113 q 353 158 419 113 q 251 285 288 204 q 215 469 215 365 q 255 659 215 578 q 362 787 294 740 q 511 833 429 833 q 664 788 599 833 q 765 661 729 742 q 801 478 801 581 q 763 282 801 364 q 657 156 724 200 q 506 113 590 113 m 422 64 l 732 785 l 601 871 l 294 139 l 422 64 "},"ß":{"ha":846,"x_min":94,"x_max":800,"o":"m 94 0 l 94 657 q 133 821 94 751 q 242 928 171 890 q 413 967 314 967 q 577 938 504 967 q 694 850 650 908 q 738 704 738 792 q 722 627 738 665 q 682 558 707 589 q 622 511 657 528 q 708 465 668 499 q 774 380 749 431 q 800 268 800 329 q 756 121 800 181 q 636 31 713 61 q 458 0 560 0 l 338 0 l 338 129 l 450 129 q 544 145 501 129 q 611 193 586 161 q 636 271 636 225 q 586 384 636 343 q 463 425 536 425 l 350 425 l 350 551 l 396 551 q 529 591 483 551 q 575 693 575 631 q 528 797 575 761 q 418 833 482 833 q 330 810 368 833 q 271 749 292 788 q 250 656 250 710 l 250 0 l 94 0 "},"ð":{"ha":772,"x_min":39,"x_max":735,"o":"m 735 361 q 693 163 735 249 q 574 31 651 78 q 385 -18 496 -17 q 200 26 278 -18 q 81 151 122 71 q 39 336 39 231 q 81 524 39 444 q 201 647 124 603 q 381 692 278 692 q 488 672 435 692 q 588 619 542 653 q 663 546 633 586 l 599 465 q 546 513 575 492 q 478 546 517 533 q 388 558 439 558 q 289 529 332 558 q 223 450 246 500 q 199 338 200 400 q 221 224 199 274 q 286 145 243 174 q 386 117 329 117 q 486 146 444 117 q 551 225 528 175 q 574 338 574 275 q 544 519 574 433 q 457 681 515 606 q 311 817 399 756 q 106 928 224 879 l 160 1042 q 388 932 283 1001 q 571 772 493 863 q 692 577 649 682 q 735 361 735 472 m 150 711 l 92 819 l 503 1031 l 561 926 l 150 711 "},"þ":{"ha":751,"x_min":89,"x_max":714,"o":"m 376 692 q 314 682 350 692 q 243 654 278 672 l 243 981 l 89 965 l 89 -304 l 243 -289 l 243 21 q 313 -8 278 1 q 372 -18 349 -18 q 555 26 479 -18 q 672 151 631 71 q 714 336 714 231 q 673 524 714 444 q 556 648 632 604 q 376 692 481 692 m 372 117 q 306 126 338 117 q 243 158 274 136 l 243 514 q 305 547 274 536 q 374 558 336 558 q 472 530 432 558 q 533 451 513 501 q 553 335 553 401 q 532 224 553 274 q 471 145 511 174 q 372 117 431 117 "},"ƒ":{"ha":565,"x_min":0,"x_max":565,"o":"m 101 665 l 206 665 l 206 739 q 233 864 206 811 q 314 946 261 917 q 442 975 367 975 q 487 970 464 975 q 531 957 510 965 q 565 939 553 949 l 522 821 q 487 833 506 829 q 453 838 468 838 q 383 805 404 838 q 361 719 361 772 l 361 665 l 486 665 l 536 546 l 361 546 l 361 85 q 333 -40 361 13 q 252 -122 306 -93 q 125 -150 199 -150 q 80 -145 104 -150 q 35 -132 56 -140 q 0 -114 14 -124 l 43 1 q 78 -10 60 -6 q 113 -15 97 -15 q 184 18 163 -15 q 206 104 206 51 l 206 546 l 103 546 l 101 665 "},"æ":{"ha":1129,"x_min":63,"x_max":1090,"o":"m 1090 294 l 1090 329 q 1060 510 1090 428 q 963 642 1029 592 q 789 692 896 692 q 656 669 715 692 q 557 603 597 646 q 459 668 517 644 q 335 692 401 692 q 261 684 307 692 q 171 663 215 676 q 100 632 126 650 l 142 504 q 233 535 181 521 q 338 550 285 550 q 431 512 403 550 q 460 414 458 474 l 460 410 l 313 410 q 132 354 201 408 q 63 199 63 300 q 121 43 63 103 q 300 -17 179 -17 q 408 0 363 -17 q 487 42 453 17 q 544 92 521 67 q 665 12 590 40 q 838 -17 739 -17 q 933 -7 890 -17 q 1015 22 976 3 q 1085 63 1053 40 l 1039 175 q 943 132 988 149 q 839 115 899 115 q 723 138 768 115 q 654 201 678 161 q 624 294 631 242 l 1090 294 m 626 400 q 654 486 633 451 q 708 540 675 521 q 786 558 742 558 q 861 540 829 558 q 913 486 893 521 q 942 400 933 451 l 626 400 m 461 306 q 469 247 463 275 q 482 194 475 219 q 438 151 463 171 q 381 119 414 131 q 297 107 347 107 q 244 120 267 107 q 210 154 222 133 q 199 199 199 175 q 212 251 199 226 q 250 290 225 275 q 310 306 275 306 l 461 306 "},"đ":{"ha":774,"x_min":39,"x_max":781,"o":"m 563 211 q 474 140 517 164 q 378 117 432 117 q 281 145 322 117 q 219 224 240 174 q 199 339 199 274 q 219 451 199 401 q 281 529 240 500 q 379 558 322 558 q 476 536 432 558 q 565 461 519 514 l 611 568 q 542 635 585 607 q 455 677 500 663 q 378 692 410 692 q 197 647 274 692 q 80 524 121 603 q 39 339 39 444 q 79 151 39 231 q 195 26 119 71 q 375 -18 271 -18 q 453 -3 410 -18 q 538 39 496 11 q 610 106 579 67 l 563 211 m 681 764 l 781 764 l 767 878 l 681 878 l 681 979 l 524 965 l 524 878 l 408 878 l 424 764 l 524 764 l 524 121 l 596 0 l 681 0 l 681 764 "},"œ":{"ha":1147,"x_min":39,"x_max":1110,"o":"m 1110 296 l 1110 329 q 1078 509 1110 426 q 981 642 1047 592 q 808 692 914 692 q 698 676 749 692 q 607 631 647 660 q 533 664 574 650 q 453 685 493 678 q 388 692 414 692 q 203 647 282 692 q 82 523 125 603 q 39 336 39 443 q 81 151 39 231 q 201 26 124 71 q 385 -18 279 -18 q 454 -10 413 -18 q 540 11 496 -3 q 613 47 583 25 q 720 0 660 17 q 856 -17 781 -17 q 952 -7 908 -17 q 1034 22 996 3 q 1104 61 1072 40 l 1057 175 q 963 132 1007 149 q 857 115 918 115 q 742 138 788 115 q 672 201 696 161 q 642 296 649 242 l 1110 296 m 644 401 q 672 486 651 451 q 726 540 693 521 q 804 558 760 558 q 879 540 847 558 q 931 486 911 521 q 958 401 951 451 l 644 401 m 199 338 q 223 450 200 400 q 289 529 246 500 q 388 558 332 558 q 459 551 426 558 q 524 533 492 544 q 490 442 501 492 q 478 336 478 393 q 490 233 478 281 q 526 143 503 185 q 460 123 493 129 q 386 117 426 117 q 286 145 329 117 q 221 224 243 174 q 199 338 199 274 "},"ĺ":{"ha":343,"x_min":94,"x_max":358,"o":"m 249 0 l 94 0 l 94 935 l 249 951 l 249 0 m 229 1026 l 122 1056 l 194 1250 l 358 1250 l 229 1026 "},"ł":{"ha":476,"x_min":0,"x_max":476,"o":"m 414 728 l 476 622 l 317 496 l 317 0 l 161 0 l 161 375 l 63 297 l 0 404 l 161 529 l 161 965 l 317 981 l 317 651 l 414 728 "},"ı":{"ha":317,"x_min":81,"x_max":238,"o":"m 238 0 l 81 0 l 81 674 l 238 674 l 238 0 "},"ø":{"ha":782,"x_min":39,"x_max":735,"o":"m 385 -18 q 569 27 492 -17 q 691 151 647 71 q 735 338 735 232 q 692 524 735 444 q 572 647 649 603 q 388 692 494 692 q 203 647 282 692 q 82 524 125 603 q 39 336 39 444 q 81 151 39 231 q 200 26 122 71 q 385 -18 278 -18 m 386 117 q 286 145 329 117 q 221 224 243 174 q 199 338 199 274 q 223 450 200 400 q 289 529 246 500 q 388 558 332 558 q 488 530 446 558 q 551 451 529 501 q 574 338 574 401 q 551 225 574 275 q 486 146 528 175 q 386 117 444 117 m 324 75 l 569 514 l 457 586 l 207 133 l 324 75 "},"À":{"ha":892,"x_min":14,"x_max":878,"o":"m 582 364 l 440 732 l 303 364 l 582 364 m 375 944 l 511 944 l 878 10 l 722 -12 l 631 238 l 257 238 l 168 0 l 14 0 l 375 944 m 408 1026 l 281 1250 l 444 1250 l 517 1056 l 408 1026 "},"Á":{"ha":892,"x_min":14,"x_max":878,"o":"m 582 364 l 440 732 l 303 364 l 582 364 m 375 944 l 511 944 l 878 10 l 722 -12 l 631 238 l 257 238 l 168 0 l 14 0 l 375 944 m 475 1026 l 368 1056 l 440 1250 l 604 1250 l 475 1026 "},"Â":{"ha":892,"x_min":14,"x_max":878,"o":"m 582 364 l 440 732 l 303 364 l 582 364 m 375 944 l 511 944 l 878 10 l 722 -12 l 631 238 l 257 238 l 168 0 l 14 0 l 375 944 m 438 1132 l 340 1026 l 194 1044 l 388 1250 l 483 1250 l 678 1044 l 536 1026 l 438 1132 "},"Ã":{"ha":892,"x_min":14,"x_max":878,"o":"m 582 364 l 440 732 l 303 364 l 582 364 m 375 944 l 511 944 l 878 10 l 722 -12 l 631 238 l 257 238 l 168 0 l 14 0 l 375 944 m 550 1196 l 649 1196 q 630 1103 649 1138 q 578 1053 611 1068 q 510 1039 546 1039 q 463 1047 482 1039 q 429 1067 444 1056 q 398 1086 414 1079 q 360 1093 382 1093 q 331 1078 344 1093 q 317 1046 318 1064 l 213 1046 q 232 1140 213 1106 q 284 1188 251 1174 q 353 1201 317 1201 q 400 1195 381 1201 q 435 1175 419 1189 q 467 1157 450 1165 q 508 1149 485 1149 q 537 1163 525 1149 q 550 1196 549 1176 "},"Ä":{"ha":892,"x_min":14,"x_max":878,"o":"m 582 364 l 440 732 l 303 364 l 582 364 m 375 944 l 511 944 l 878 10 l 722 -12 l 631 238 l 257 238 l 168 0 l 14 0 l 375 944 m 313 1051 q 253 1075 278 1051 q 229 1133 229 1099 q 253 1191 229 1167 q 313 1215 278 1215 q 370 1191 347 1215 q 393 1133 393 1167 q 370 1075 393 1099 q 313 1051 347 1051 m 564 1051 q 507 1075 532 1051 q 482 1133 482 1099 q 507 1191 482 1167 q 564 1215 532 1215 q 624 1191 600 1215 q 647 1133 647 1167 q 624 1075 647 1099 q 564 1051 600 1051 "},"Å":{"ha":892,"x_min":14,"x_max":878,"o":"m 582 364 l 440 732 l 303 364 l 582 364 m 375 944 l 511 944 l 878 10 l 722 -12 l 631 238 l 257 238 l 168 0 l 14 0 l 375 944 m 438 1297 q 508 1280 476 1297 q 560 1232 540 1263 q 579 1163 579 1201 q 560 1096 579 1125 q 508 1050 540 1067 q 438 1033 476 1033 q 338 1070 381 1033 q 296 1163 296 1107 q 316 1232 296 1201 q 368 1280 336 1263 q 438 1297 400 1297 m 439 1107 q 478 1124 461 1107 q 494 1163 494 1140 q 478 1203 494 1186 q 439 1219 461 1219 q 399 1203 415 1219 q 382 1163 382 1186 q 399 1124 382 1140 q 439 1107 415 1107 "},"Ă":{"ha":892,"x_min":14,"x_max":878,"o":"m 582 364 l 440 732 l 303 364 l 582 364 m 375 944 l 511 944 l 878 10 l 722 -12 l 631 238 l 257 238 l 168 0 l 14 0 l 375 944 m 533 1246 l 639 1246 q 618 1142 639 1192 q 553 1062 597 1092 q 440 1031 510 1032 q 329 1062 374 1032 q 264 1141 285 1092 q 243 1246 243 1190 l 350 1246 q 371 1177 350 1210 q 440 1144 392 1144 q 510 1177 488 1144 q 533 1246 533 1210 "},"Ą":{"ha":892,"x_min":14,"x_max":965,"o":"m 732 11 l 878 10 q 846 -26 863 -3 q 818 -74 829 -49 q 807 -121 807 -99 q 820 -156 807 -143 q 857 -168 833 -168 q 885 -161 868 -168 q 918 -143 903 -154 l 965 -239 q 924 -264 944 -254 q 880 -278 903 -274 q 831 -283 857 -283 q 749 -263 785 -283 q 693 -209 713 -243 q 674 -133 674 -175 q 682 -83 674 -110 q 703 -30 690 -56 q 732 11 717 -4 m 582 364 l 440 732 l 303 364 l 582 364 m 375 944 l 511 944 l 878 10 l 722 -12 l 631 238 l 257 238 l 168 0 l 14 0 l 375 944 "},"Ā":{"ha":892,"x_min":14,"x_max":878,"o":"m 582 364 l 440 732 l 303 364 l 582 364 m 375 944 l 511 944 l 878 10 l 722 -12 l 631 238 l 257 238 l 168 0 l 14 0 l 375 944 m 254 1069 l 254 1193 l 597 1193 l 610 1069 l 254 1069 "},"Ç":{"ha":779,"x_min":53,"x_max":756,"o":"m 750 904 l 701 793 q 635 814 665 806 q 575 827 606 822 q 500 832 544 832 q 355 787 419 832 q 253 660 290 742 q 215 468 215 579 q 233 332 215 396 q 287 218 251 268 q 373 140 322 168 q 489 113 424 113 q 605 124 554 113 q 696 154 656 136 l 756 39 q 676 8 722 21 q 583 -12 631 -6 q 497 -19 536 -19 q 304 18 388 -19 q 165 123 221 56 q 81 278 108 190 q 53 467 53 367 q 84 666 53 575 q 174 824 115 757 q 317 927 233 890 q 504 964 400 964 q 575 958 532 964 q 665 940 618 953 q 750 904 711 926 m 394 -106 l 443 18 l 558 18 l 531 -50 q 583 -77 560 -58 q 619 -120 606 -96 q 632 -169 632 -144 q 608 -247 632 -215 q 544 -292 583 -278 q 461 -307 506 -307 q 397 -297 435 -307 q 338 -271 360 -287 l 374 -179 q 417 -195 390 -186 q 461 -204 443 -204 q 499 -197 481 -204 q 518 -172 518 -189 q 501 -142 518 -154 q 456 -119 485 -129 q 394 -106 428 -110 "},"Ć":{"ha":779,"x_min":53,"x_max":756,"o":"m 750 904 l 701 793 q 635 814 665 806 q 575 827 606 822 q 500 832 544 832 q 355 787 419 832 q 253 660 290 742 q 215 468 215 579 q 233 332 215 396 q 287 218 251 268 q 373 140 322 168 q 489 113 424 113 q 605 124 554 113 q 696 154 656 136 l 756 39 q 676 8 722 21 q 583 -12 631 -6 q 497 -19 536 -19 q 304 18 388 -19 q 165 123 221 56 q 81 278 108 190 q 53 467 53 367 q 84 666 53 575 q 174 824 115 757 q 317 927 233 890 q 504 964 400 964 q 575 958 532 964 q 665 940 618 953 q 750 904 711 926 m 539 1026 l 432 1056 l 504 1250 l 668 1250 l 539 1026 "},"Č":{"ha":779,"x_min":53,"x_max":756,"o":"m 750 904 l 701 793 q 635 814 665 806 q 575 827 606 822 q 500 832 544 832 q 355 787 419 832 q 253 660 290 742 q 215 468 215 579 q 233 332 215 396 q 287 218 251 268 q 373 140 322 168 q 489 113 424 113 q 605 124 554 113 q 696 154 656 136 l 756 39 q 676 8 722 21 q 583 -12 631 -6 q 497 -19 536 -19 q 304 18 388 -19 q 165 123 221 56 q 81 278 108 190 q 53 467 53 367 q 84 666 53 575 q 174 824 115 757 q 317 927 233 890 q 504 964 400 964 q 575 958 532 964 q 665 940 618 953 q 750 904 711 926 m 508 1144 l 607 1250 l 749 1232 l 556 1026 l 460 1026 l 265 1232 l 410 1250 l 508 1144 "},"Ď":{"ha":951,"x_min":122,"x_max":899,"o":"m 468 0 l 122 0 l 122 944 l 471 944 q 712 883 618 944 q 852 717 806 822 q 899 478 899 613 q 849 228 899 336 q 703 61 799 121 q 468 0 607 1 m 476 813 l 276 813 l 276 131 l 465 131 q 609 168 549 131 q 703 282 669 206 q 738 476 738 358 q 710 654 738 579 q 624 771 682 729 q 476 813 567 813 m 456 1144 l 554 1250 l 696 1232 l 503 1026 l 407 1026 l 213 1232 l 357 1250 l 456 1144 "},"È":{"ha":779,"x_min":122,"x_max":751,"o":"m 751 0 l 122 0 l 122 944 l 668 944 l 692 822 l 276 822 l 276 540 l 592 540 l 615 417 l 276 417 l 276 122 l 728 122 l 751 0 m 381 1026 l 253 1250 l 417 1250 l 489 1056 l 381 1026 "},"É":{"ha":779,"x_min":122,"x_max":751,"o":"m 751 0 l 122 0 l 122 944 l 668 944 l 692 822 l 276 822 l 276 540 l 592 540 l 615 417 l 276 417 l 276 122 l 728 122 l 751 0 m 449 1026 l 342 1056 l 414 1250 l 578 1250 l 449 1026 "},"Ê":{"ha":779,"x_min":122,"x_max":751,"o":"m 751 0 l 122 0 l 122 944 l 668 944 l 692 822 l 276 822 l 276 540 l 592 540 l 615 417 l 276 417 l 276 122 l 728 122 l 751 0 m 411 1132 l 314 1026 l 168 1044 l 361 1250 l 457 1250 l 651 1044 l 510 1026 l 411 1132 "},"Ë":{"ha":779,"x_min":122,"x_max":751,"o":"m 751 0 l 122 0 l 122 944 l 668 944 l 692 822 l 276 822 l 276 540 l 592 540 l 615 417 l 276 417 l 276 122 l 728 122 l 751 0 m 286 1051 q 227 1075 251 1051 q 203 1133 203 1099 q 227 1191 203 1167 q 286 1215 251 1215 q 344 1191 321 1215 q 367 1133 367 1167 q 344 1075 367 1099 q 286 1051 321 1051 m 538 1051 q 481 1075 506 1051 q 456 1133 456 1099 q 481 1191 456 1167 q 538 1215 506 1215 q 597 1191 574 1215 q 621 1133 621 1167 q 597 1075 621 1099 q 538 1051 574 1051 "},"Ē":{"ha":779,"x_min":122,"x_max":751,"o":"m 751 0 l 122 0 l 122 944 l 668 944 l 692 822 l 276 822 l 276 540 l 592 540 l 615 417 l 276 417 l 276 122 l 728 122 l 751 0 m 228 1069 l 228 1193 l 571 1193 l 583 1069 l 228 1069 "},"Ė":{"ha":779,"x_min":122,"x_max":751,"o":"m 751 0 l 122 0 l 122 944 l 668 944 l 692 822 l 276 822 l 276 540 l 592 540 l 615 417 l 276 417 l 276 122 l 728 122 l 751 0 m 414 1042 q 347 1069 375 1042 q 319 1133 319 1096 q 347 1200 319 1172 q 414 1228 375 1228 q 478 1201 453 1228 q 504 1135 504 1174 q 478 1069 504 1096 q 414 1042 453 1042 "},"Ę":{"ha":779,"x_min":122,"x_max":758,"o":"m 751 0 l 122 0 l 122 944 l 668 944 l 692 822 l 276 822 l 276 540 l 592 540 l 615 417 l 276 417 l 276 122 l 728 122 l 751 0 m 525 6 l 671 7 q 638 -30 654 -7 q 610 -78 621 -53 q 600 -124 600 -103 q 613 -160 600 -147 q 650 -172 625 -172 q 678 -165 661 -172 q 711 -147 696 -158 l 757 -243 q 695 -277 728 -267 q 624 -287 663 -287 q 542 -267 578 -287 q 487 -213 507 -247 q 467 -137 467 -179 q 475 -86 467 -112 q 498 -35 483 -60 q 525 6 513 -10 "},"Ě":{"ha":779,"x_min":122,"x_max":751,"o":"m 751 0 l 122 0 l 122 944 l 668 944 l 692 822 l 276 822 l 276 540 l 592 540 l 615 417 l 276 417 l 276 122 l 728 122 l 751 0 m 417 1144 l 515 1250 l 657 1232 l 464 1026 l 368 1026 l 174 1232 l 318 1250 l 417 1144 "},"Ğ":{"ha":872,"x_min":53,"x_max":807,"o":"m 464 386 l 476 506 l 807 506 l 807 49 q 728 15 774 31 q 630 -10 682 -1 q 524 -19 578 -19 q 272 45 378 -19 q 109 220 165 110 q 53 467 53 331 q 89 667 53 576 q 192 824 125 757 q 347 928 258 892 q 542 964 436 964 q 615 958 571 964 q 708 940 660 953 q 793 904 756 926 l 744 793 q 678 814 707 806 q 619 827 649 822 q 544 832 589 832 q 419 808 479 832 q 313 740 360 785 q 241 626 267 694 q 215 468 215 558 q 254 280 215 361 q 363 156 293 199 q 519 113 432 113 q 603 118 567 113 q 667 132 639 124 l 667 386 l 464 386 m 615 1246 l 721 1246 q 700 1142 721 1192 q 635 1062 679 1092 q 522 1031 592 1032 q 411 1062 456 1032 q 346 1141 367 1092 q 325 1246 325 1190 l 432 1246 q 453 1177 432 1210 q 522 1144 474 1144 q 592 1177 569 1144 q 615 1246 615 1210 "},"Ì":{"ha":399,"x_min":42,"x_max":278,"o":"m 276 0 l 122 0 l 122 944 l 276 944 l 276 0 m 169 1026 l 42 1250 l 206 1250 l 278 1056 l 169 1026 "},"Í":{"ha":399,"x_min":122,"x_max":365,"o":"m 276 0 l 122 0 l 122 944 l 276 944 l 276 0 m 236 1026 l 129 1056 l 201 1250 l 365 1250 l 236 1026 "},"Î":{"ha":399,"x_min":-43,"x_max":440,"o":"m 276 0 l 122 0 l 122 944 l 276 944 l 276 0 m 200 1132 l 103 1026 l -43 1044 l 150 1250 l 246 1250 l 440 1044 l 299 1026 l 200 1132 "},"Ï":{"ha":399,"x_min":-8,"x_max":410,"o":"m 276 0 l 122 0 l 122 944 l 276 944 l 276 0 m 75 1051 q 16 1075 40 1051 q -8 1133 -8 1099 q 16 1191 -8 1167 q 75 1215 40 1215 q 133 1191 110 1215 q 156 1133 156 1167 q 133 1075 156 1099 q 75 1051 110 1051 m 326 1051 q 269 1075 294 1051 q 244 1133 244 1099 q 269 1191 244 1167 q 326 1215 294 1215 q 386 1191 363 1215 q 410 1133 410 1167 q 386 1075 410 1099 q 326 1051 363 1051 "},"Ī":{"ha":399,"x_min":15,"x_max":372,"o":"m 276 0 l 122 0 l 122 944 l 276 944 l 276 0 m 15 1069 l 15 1193 l 358 1193 l 371 1069 l 15 1069 "},"Į":{"ha":399,"x_min":72,"x_max":364,"o":"m 121 0 l 276 0 q 245 -35 263 -12 q 217 -84 228 -58 q 206 -131 206 -110 q 219 -165 206 -153 q 256 -178 232 -178 q 285 -172 267 -178 q 317 -153 303 -165 l 364 -249 q 301 -283 333 -272 q 231 -294 268 -294 q 148 -274 183 -294 q 92 -219 113 -253 q 72 -143 72 -185 q 86 -67 72 -110 q 121 0 100 -24 m 276 0 l 122 0 l 122 944 l 276 944 l 276 0 "},"İ":{"ha":399,"x_min":108,"x_max":293,"o":"m 276 0 l 122 0 l 122 944 l 276 944 l 276 0 m 203 1042 q 136 1069 164 1042 q 108 1133 108 1096 q 136 1200 108 1172 q 203 1228 164 1228 q 267 1201 242 1228 q 293 1135 293 1174 q 267 1069 293 1096 q 203 1042 242 1042 "},"Ĺ":{"ha":735,"x_min":122,"x_max":721,"o":"m 700 122 l 721 0 l 122 0 l 122 944 l 276 944 l 276 122 l 700 122 m 276 1026 l 169 1056 l 242 1250 l 406 1250 l 276 1026 "},"Ľ":{"ha":735,"x_min":122,"x_max":721,"o":"m 700 122 l 721 0 l 122 0 l 122 944 l 276 944 l 276 122 l 700 122 m 582 1017 q 649 985 621 1017 q 678 906 678 954 q 656 803 678 856 q 596 706 635 750 q 510 635 557 661 l 474 707 q 531 763 507 736 q 563 832 554 790 q 530 845 547 832 q 501 880 513 858 q 490 922 490 901 q 502 967 490 946 q 535 1003 514 989 q 582 1017 557 1017 "},"Ñ":{"ha":1013,"x_min":122,"x_max":892,"o":"m 276 0 l 122 0 l 122 944 l 269 944 l 671 374 l 733 279 l 733 944 l 892 944 l 892 0 l 742 0 l 322 600 l 276 669 l 276 0 m 624 1196 l 722 1196 q 703 1103 722 1138 q 652 1053 685 1068 q 583 1039 619 1039 q 537 1047 556 1039 q 503 1067 518 1056 q 472 1086 488 1079 q 433 1093 456 1093 q 405 1078 418 1093 q 390 1046 392 1064 l 286 1046 q 306 1140 286 1106 q 358 1188 325 1174 q 426 1201 390 1201 q 474 1195 454 1201 q 508 1175 493 1189 q 541 1157 524 1165 q 582 1149 558 1149 q 610 1163 599 1149 q 624 1196 622 1176 "},"Ń":{"ha":1013,"x_min":122,"x_max":892,"o":"m 276 0 l 122 0 l 122 944 l 269 944 l 671 374 l 733 279 l 733 944 l 892 944 l 892 0 l 742 0 l 322 600 l 276 669 l 276 0 m 547 1026 l 440 1056 l 513 1250 l 676 1250 l 547 1026 "},"Ň":{"ha":1013,"x_min":122,"x_max":892,"o":"m 276 0 l 122 0 l 122 944 l 269 944 l 671 374 l 733 279 l 733 944 l 892 944 l 892 0 l 742 0 l 322 600 l 276 669 l 276 0 m 517 1144 l 615 1250 l 757 1232 l 564 1026 l 468 1026 l 274 1232 l 418 1250 l 517 1144 "},"Ò":{"ha":1018,"x_min":53,"x_max":965,"o":"m 507 -19 q 746 47 643 -17 q 907 223 849 111 q 965 479 965 335 q 909 728 965 618 q 751 902 853 838 q 510 967 649 967 q 272 899 375 964 q 111 723 169 835 q 53 467 53 611 q 108 219 53 329 q 267 44 164 108 q 507 -19 369 -19 m 506 113 q 353 158 419 113 q 251 285 288 204 q 215 469 215 365 q 255 659 215 578 q 362 787 294 740 q 511 833 429 833 q 664 788 599 833 q 765 661 729 742 q 801 478 801 581 q 763 282 801 364 q 657 156 724 200 q 506 113 590 113 m 475 1026 l 347 1250 l 511 1250 l 583 1056 l 475 1026 "},"Ó":{"ha":1018,"x_min":53,"x_max":965,"o":"m 507 -19 q 746 47 643 -17 q 907 223 849 111 q 965 479 965 335 q 909 728 965 618 q 751 902 853 838 q 510 967 649 967 q 272 899 375 964 q 111 723 169 835 q 53 467 53 611 q 108 219 53 329 q 267 44 164 108 q 507 -19 369 -19 m 506 113 q 353 158 419 113 q 251 285 288 204 q 215 469 215 365 q 255 659 215 578 q 362 787 294 740 q 511 833 429 833 q 664 788 599 833 q 765 661 729 742 q 801 478 801 581 q 763 282 801 364 q 657 156 724 200 q 506 113 590 113 m 543 1026 l 436 1056 l 508 1250 l 672 1250 l 543 1026 "},"Ô":{"ha":1018,"x_min":53,"x_max":965,"o":"m 507 -19 q 746 47 643 -17 q 907 223 849 111 q 965 479 965 335 q 909 728 965 618 q 751 902 853 838 q 510 967 649 967 q 272 899 375 964 q 111 723 169 835 q 53 467 53 611 q 108 219 53 329 q 267 44 164 108 q 507 -19 369 -19 m 506 113 q 353 158 419 113 q 251 285 288 204 q 215 469 215 365 q 255 659 215 578 q 362 787 294 740 q 511 833 429 833 q 664 788 599 833 q 765 661 729 742 q 801 478 801 581 q 763 282 801 364 q 657 156 724 200 q 506 113 590 113 m 506 1132 l 408 1026 l 263 1044 l 456 1250 l 551 1250 l 746 1044 l 604 1026 l 506 1132 "},"Õ":{"ha":1018,"x_min":53,"x_max":965,"o":"m 507 -19 q 746 47 643 -17 q 907 223 849 111 q 965 479 965 335 q 909 728 965 618 q 751 902 853 838 q 510 967 649 967 q 272 899 375 964 q 111 723 169 835 q 53 467 53 611 q 108 219 53 329 q 267 44 164 108 q 507 -19 369 -19 m 506 113 q 353 158 419 113 q 251 285 288 204 q 215 469 215 365 q 255 659 215 578 q 362 787 294 740 q 511 833 429 833 q 664 788 599 833 q 765 661 729 742 q 801 478 801 581 q 763 282 801 364 q 657 156 724 200 q 506 113 590 113 m 618 1196 l 717 1196 q 698 1103 717 1138 q 647 1053 679 1068 q 578 1039 614 1039 q 531 1047 550 1039 q 497 1067 513 1056 q 466 1086 482 1079 q 428 1093 450 1093 q 399 1078 413 1093 q 385 1046 386 1064 l 281 1046 q 300 1140 281 1106 q 352 1188 319 1174 q 421 1201 385 1201 q 468 1195 449 1201 q 503 1175 488 1189 q 535 1157 518 1165 q 576 1149 553 1149 q 605 1163 593 1149 q 618 1196 617 1176 "},"Ö":{"ha":1018,"x_min":53,"x_max":965,"o":"m 507 -19 q 746 47 643 -17 q 907 223 849 111 q 965 479 965 335 q 909 728 965 618 q 751 902 853 838 q 510 967 649 967 q 272 899 375 964 q 111 723 169 835 q 53 467 53 611 q 108 219 53 329 q 267 44 164 108 q 507 -19 369 -19 m 506 113 q 353 158 419 113 q 251 285 288 204 q 215 469 215 365 q 255 659 215 578 q 362 787 294 740 q 511 833 429 833 q 664 788 599 833 q 765 661 729 742 q 801 478 801 581 q 763 282 801 364 q 657 156 724 200 q 506 113 590 113 m 381 1051 q 322 1075 346 1051 q 297 1133 297 1099 q 322 1191 297 1167 q 381 1215 346 1215 q 438 1191 415 1215 q 461 1133 461 1167 q 438 1075 461 1099 q 381 1051 415 1051 m 632 1051 q 575 1075 600 1051 q 550 1133 550 1099 q 575 1191 550 1167 q 632 1215 600 1215 q 692 1191 668 1215 q 715 1133 715 1167 q 692 1075 715 1099 q 632 1051 668 1051 "},"Ō":{"ha":1018,"x_min":53,"x_max":965,"o":"m 507 -19 q 746 47 643 -17 q 907 223 849 111 q 965 479 965 335 q 909 728 965 618 q 751 902 853 838 q 510 967 649 967 q 272 899 375 964 q 111 723 169 835 q 53 467 53 611 q 108 219 53 329 q 267 44 164 108 q 507 -19 369 -19 m 506 113 q 353 158 419 113 q 251 285 288 204 q 215 469 215 365 q 255 659 215 578 q 362 787 294 740 q 511 833 429 833 q 664 788 599 833 q 765 661 729 742 q 801 478 801 581 q 763 282 801 364 q 657 156 724 200 q 506 113 590 113 m 321 1069 l 321 1193 l 664 1193 l 676 1069 l 321 1069 "},"Ő":{"ha":1018,"x_min":53,"x_max":965,"o":"m 507 -19 q 746 47 643 -17 q 907 223 849 111 q 965 479 965 335 q 909 728 965 618 q 751 902 853 838 q 510 967 649 967 q 272 899 375 964 q 111 723 169 835 q 53 467 53 611 q 108 219 53 329 q 267 44 164 108 q 507 -19 369 -19 m 506 113 q 353 158 419 113 q 251 285 288 204 q 215 469 215 365 q 255 659 215 578 q 362 787 294 740 q 511 833 429 833 q 664 788 599 833 q 765 661 729 742 q 801 478 801 581 q 763 282 801 364 q 657 156 724 200 q 506 113 590 113 m 418 1026 l 311 1056 l 383 1250 l 547 1250 l 418 1026 m 674 1026 l 564 1056 l 638 1250 l 801 1250 l 674 1026 "},"Ŕ":{"ha":854,"x_min":122,"x_max":840,"o":"m 400 814 l 276 814 l 276 496 l 399 496 q 503 512 457 496 q 578 561 550 528 q 607 653 607 594 q 581 747 607 713 q 510 798 556 782 q 400 814 464 814 m 122 944 l 404 944 q 589 915 506 944 q 721 822 672 885 q 769 660 769 760 q 724 506 769 568 q 607 413 678 444 l 840 0 l 674 0 l 468 371 q 426 369 451 369 q 381 368 401 368 l 276 368 l 276 0 l 122 0 l 122 944 m 440 1026 l 333 1056 l 406 1250 l 569 1250 l 440 1026 "},"Ř":{"ha":854,"x_min":122,"x_max":840,"o":"m 400 814 l 276 814 l 276 496 l 399 496 q 503 512 457 496 q 578 561 550 528 q 607 653 607 594 q 581 747 607 713 q 510 798 556 782 q 400 814 464 814 m 122 944 l 404 944 q 589 915 506 944 q 721 822 672 885 q 769 660 769 760 q 724 506 769 568 q 607 413 678 444 l 840 0 l 674 0 l 468 371 q 426 369 451 369 q 381 368 401 368 l 276 368 l 276 0 l 122 0 l 122 944 m 410 1144 l 508 1250 l 650 1232 l 457 1026 l 361 1026 l 167 1232 l 311 1250 l 410 1144 "},"Ś":{"ha":725,"x_min":53,"x_max":688,"o":"m 68 57 l 104 182 q 171 155 132 169 q 253 130 210 140 q 339 119 297 119 q 443 133 401 119 q 506 174 485 147 q 528 239 528 201 q 500 308 528 279 q 424 365 472 338 q 315 421 376 392 q 212 480 260 450 q 128 544 164 510 q 73 622 93 579 q 53 718 53 664 q 90 844 53 789 q 199 933 128 900 q 369 967 269 967 q 508 946 440 967 q 626 900 576 925 l 575 775 q 519 801 549 789 q 453 822 489 814 q 375 829 418 829 q 258 802 306 829 q 211 719 211 775 q 237 648 211 678 q 311 592 263 618 q 424 532 360 565 q 526 476 478 504 q 610 414 574 447 q 667 338 646 381 q 688 239 688 296 q 647 107 688 164 q 529 16 606 50 q 340 -18 453 -18 q 272 -11 311 -18 q 194 6 233 -4 q 121 30 154 17 q 68 57 88 43 m 403 1026 l 296 1056 l 368 1250 l 532 1250 l 403 1026 "},"Š":{"ha":725,"x_min":53,"x_max":688,"o":"m 68 57 l 104 182 q 171 155 132 169 q 253 130 210 140 q 339 119 297 119 q 443 133 401 119 q 506 174 485 147 q 528 239 528 201 q 500 308 528 279 q 424 365 472 338 q 315 421 376 392 q 212 480 260 450 q 128 544 164 510 q 73 622 93 579 q 53 718 53 664 q 90 844 53 789 q 199 933 128 900 q 369 967 269 967 q 508 946 440 967 q 626 900 576 925 l 575 775 q 519 801 549 789 q 453 822 489 814 q 375 829 418 829 q 258 802 306 829 q 211 719 211 775 q 237 648 211 678 q 311 592 263 618 q 424 532 360 565 q 526 476 478 504 q 610 414 574 447 q 667 338 646 381 q 688 239 688 296 q 647 107 688 164 q 529 16 606 50 q 340 -18 453 -18 q 272 -11 311 -18 q 194 6 233 -4 q 121 30 154 17 q 68 57 88 43 m 372 1144 l 471 1250 l 613 1232 l 419 1026 l 324 1026 l 129 1232 l 274 1250 l 372 1144 "},"Ť":{"ha":807,"x_min":14,"x_max":793,"o":"m 769 944 l 793 821 l 469 821 l 469 0 l 311 0 l 311 821 l 14 821 l 14 944 l 769 944 m 394 1144 l 493 1250 l 635 1232 l 442 1026 l 346 1026 l 151 1232 l 296 1250 l 394 1144 "},"Ù":{"ha":971,"x_min":108,"x_max":864,"o":"m 264 944 l 264 353 q 292 221 264 275 q 372 140 321 167 q 486 113 422 113 q 602 140 553 113 q 679 222 651 168 q 707 353 707 276 l 707 944 l 864 944 l 864 340 q 817 159 864 240 q 687 31 771 78 q 486 -15 603 -15 q 285 31 371 -15 q 154 158 200 78 q 108 340 108 239 l 108 944 l 264 944 m 453 1026 l 325 1250 l 489 1250 l 561 1056 l 453 1026 "},"Ú":{"ha":971,"x_min":108,"x_max":864,"o":"m 264 944 l 264 353 q 292 221 264 275 q 372 140 321 167 q 486 113 422 113 q 602 140 553 113 q 679 222 651 168 q 707 353 707 276 l 707 944 l 864 944 l 864 340 q 817 159 864 240 q 687 31 771 78 q 486 -15 603 -15 q 285 31 371 -15 q 154 158 200 78 q 108 340 108 239 l 108 944 l 264 944 m 519 1026 l 413 1056 l 485 1250 l 649 1250 l 519 1026 "},"Û":{"ha":971,"x_min":108,"x_max":864,"o":"m 264 944 l 264 353 q 292 221 264 275 q 372 140 321 167 q 486 113 422 113 q 602 140 553 113 q 679 222 651 168 q 707 353 707 276 l 707 944 l 864 944 l 864 340 q 817 159 864 240 q 687 31 771 78 q 486 -15 603 -15 q 285 31 371 -15 q 154 158 200 78 q 108 340 108 239 l 108 944 l 264 944 m 482 1132 l 385 1026 l 239 1044 l 432 1250 l 528 1250 l 722 1044 l 581 1026 l 482 1132 "},"Ü":{"ha":971,"x_min":108,"x_max":864,"o":"m 264 944 l 264 353 q 292 221 264 275 q 372 140 321 167 q 486 113 422 113 q 602 140 553 113 q 679 222 651 168 q 707 353 707 276 l 707 944 l 864 944 l 864 340 q 817 159 864 240 q 687 31 771 78 q 486 -15 603 -15 q 285 31 371 -15 q 154 158 200 78 q 108 340 108 239 l 108 944 l 264 944 m 357 1051 q 298 1075 322 1051 q 274 1133 274 1099 q 298 1191 274 1167 q 357 1215 322 1215 q 415 1191 392 1215 q 438 1133 438 1167 q 415 1075 438 1099 q 357 1051 392 1051 m 608 1051 q 551 1075 576 1051 q 526 1133 526 1099 q 551 1191 526 1167 q 608 1215 576 1215 q 668 1191 644 1215 q 692 1133 692 1167 q 668 1075 692 1099 q 608 1051 644 1051 "},"Ū":{"ha":971,"x_min":108,"x_max":864,"o":"m 264 944 l 264 353 q 292 221 264 275 q 372 140 321 167 q 486 113 422 113 q 602 140 553 113 q 679 222 651 168 q 707 353 707 276 l 707 944 l 864 944 l 864 340 q 817 159 864 240 q 687 31 771 78 q 486 -15 603 -15 q 285 31 371 -15 q 154 158 200 78 q 108 340 108 239 l 108 944 l 264 944 m 300 1069 l 300 1193 l 643 1193 l 656 1069 l 300 1069 "},"Ů":{"ha":971,"x_min":108,"x_max":864,"o":"m 264 944 l 264 353 q 292 221 264 275 q 372 140 321 167 q 486 113 422 113 q 602 140 553 113 q 679 222 651 168 q 707 353 707 276 l 707 944 l 864 944 l 864 340 q 817 159 864 240 q 687 31 771 78 q 486 -15 603 -15 q 285 31 371 -15 q 154 158 200 78 q 108 340 108 239 l 108 944 l 264 944 m 483 1297 q 554 1280 522 1297 q 606 1232 586 1263 q 625 1163 625 1201 q 606 1096 625 1125 q 554 1050 586 1067 q 483 1033 522 1033 q 384 1070 426 1033 q 342 1163 342 1107 q 362 1232 342 1201 q 414 1280 382 1263 q 483 1297 446 1297 m 485 1107 q 524 1124 507 1107 q 540 1163 540 1140 q 524 1203 540 1186 q 485 1219 507 1219 q 444 1203 461 1219 q 428 1163 428 1186 q 444 1124 428 1140 q 485 1107 461 1107 "},"Ű":{"ha":971,"x_min":108,"x_max":864,"o":"m 264 944 l 264 353 q 292 221 264 275 q 372 140 321 167 q 486 113 422 113 q 602 140 553 113 q 679 222 651 168 q 707 353 707 276 l 707 944 l 864 944 l 864 340 q 817 159 864 240 q 687 31 771 78 q 486 -15 603 -15 q 285 31 371 -15 q 154 158 200 78 q 108 340 108 239 l 108 944 l 264 944 m 394 1026 l 288 1056 l 360 1250 l 524 1250 l 394 1026 m 650 1026 l 540 1056 l 614 1250 l 778 1250 l 650 1026 "},"Ų":{"ha":971,"x_min":108,"x_max":864,"o":"m 264 944 l 264 353 q 292 221 264 275 q 372 140 321 167 q 486 113 422 113 q 602 140 553 113 q 679 222 651 168 q 707 353 707 276 l 707 944 l 864 944 l 864 340 q 817 159 864 240 q 687 31 771 78 q 486 -15 603 -15 q 285 31 371 -15 q 154 158 200 78 q 108 340 108 239 l 108 944 l 264 944 m 421 6 l 567 7 q 533 -30 550 -7 q 506 -78 517 -53 q 496 -124 496 -103 q 508 -160 496 -147 q 546 -172 521 -172 q 574 -165 557 -172 q 607 -147 592 -158 l 653 -243 q 591 -277 624 -267 q 519 -287 558 -287 q 438 -267 474 -287 q 383 -213 403 -247 q 363 -137 363 -179 q 371 -86 363 -112 q 394 -35 379 -60 q 421 6 408 -10 "},"Ý":{"ha":825,"x_min":14,"x_max":811,"o":"m 481 0 l 325 0 l 325 371 l 14 917 l 167 967 l 401 528 l 646 944 l 811 944 l 481 369 l 481 0 m 436 1026 l 329 1056 l 401 1250 l 565 1250 l 436 1026 "},"Ÿ":{"ha":825,"x_min":14,"x_max":811,"o":"m 481 0 l 325 0 l 325 371 l 14 917 l 167 967 l 401 528 l 646 944 l 811 944 l 481 369 l 481 0 m 272 1051 q 213 1075 238 1051 q 189 1133 189 1099 q 213 1191 189 1167 q 272 1215 238 1215 q 330 1191 307 1215 q 353 1133 353 1167 q 330 1075 353 1099 q 272 1051 307 1051 m 524 1051 q 467 1075 492 1051 q 442 1133 442 1099 q 467 1191 442 1167 q 524 1215 492 1215 q 583 1191 560 1215 q 607 1133 607 1167 q 583 1075 607 1099 q 524 1051 560 1051 "},"Ź":{"ha":793,"x_min":25,"x_max":765,"o":"m 747 122 l 765 0 l 43 0 l 25 122 l 582 821 l 83 821 l 64 944 l 746 944 l 763 822 l 194 122 l 747 122 m 443 1026 l 336 1056 l 408 1250 l 572 1250 l 443 1026 "},"Ż":{"ha":793,"x_min":25,"x_max":765,"o":"m 747 122 l 765 0 l 43 0 l 25 122 l 582 821 l 83 821 l 64 944 l 746 944 l 763 822 l 194 122 l 747 122 m 410 1042 q 343 1069 371 1042 q 315 1133 315 1096 q 343 1200 315 1172 q 410 1228 371 1228 q 474 1201 449 1228 q 500 1135 500 1174 q 474 1069 500 1096 q 410 1042 449 1042 "},"Ž":{"ha":793,"x_min":25,"x_max":765,"o":"m 747 122 l 765 0 l 43 0 l 25 122 l 582 821 l 83 821 l 64 944 l 746 944 l 763 822 l 194 122 l 747 122 m 413 1144 l 511 1250 l 653 1232 l 460 1026 l 364 1026 l 169 1232 l 314 1250 l 413 1144 "},"Ş":{"ha":725,"x_min":53,"x_max":688,"o":"m 68 57 l 104 182 q 171 155 132 169 q 253 130 210 140 q 339 119 297 119 q 443 133 401 119 q 506 174 485 147 q 528 239 528 201 q 500 308 528 279 q 424 365 472 338 q 315 421 376 392 q 212 480 260 450 q 128 544 164 510 q 73 622 93 579 q 53 718 53 664 q 90 844 53 789 q 199 933 128 900 q 369 967 269 967 q 508 946 440 967 q 626 900 576 925 l 575 775 q 519 801 549 789 q 453 822 489 814 q 375 829 418 829 q 258 802 306 829 q 211 719 211 775 q 237 648 211 678 q 311 592 263 618 q 424 532 360 565 q 526 476 478 504 q 610 414 574 447 q 667 338 646 381 q 688 239 688 296 q 647 107 688 164 q 529 16 606 50 q 340 -18 453 -18 q 272 -11 311 -18 q 194 6 233 -4 q 121 30 154 17 q 68 57 88 43 m 242 -106 l 290 18 l 406 18 l 378 -50 q 430 -77 407 -58 q 466 -120 453 -96 q 479 -169 479 -144 q 455 -247 479 -215 q 392 -292 431 -278 q 308 -307 353 -307 q 244 -297 282 -307 q 185 -271 207 -287 l 221 -179 q 264 -195 238 -186 q 308 -204 290 -204 q 347 -197 328 -204 q 365 -172 365 -189 q 349 -142 365 -154 q 303 -119 332 -129 q 242 -106 275 -110 "},"Ţ":{"ha":807,"x_min":14,"x_max":793,"o":"m 769 944 l 793 821 l 469 821 l 469 0 l 311 0 l 311 821 l 14 821 l 14 944 l 769 944 m 293 -106 l 342 18 l 457 18 l 429 -50 q 481 -77 458 -58 q 517 -120 504 -96 q 531 -169 531 -144 q 506 -247 531 -215 q 443 -292 482 -278 q 360 -307 404 -307 q 296 -297 333 -307 q 236 -271 258 -287 l 272 -179 q 315 -195 289 -186 q 360 -204 342 -204 q 398 -197 379 -204 q 417 -172 417 -189 q 400 -142 417 -154 q 355 -119 383 -129 q 293 -106 326 -110 "},"Ș":{"ha":725,"x_min":53,"x_max":688,"o":"m 68 57 l 104 182 q 171 155 132 169 q 253 130 210 140 q 339 119 297 119 q 443 133 401 119 q 506 174 485 147 q 528 239 528 201 q 500 308 528 279 q 424 365 472 338 q 315 421 376 392 q 212 480 260 450 q 128 544 164 510 q 73 622 93 579 q 53 718 53 664 q 90 844 53 789 q 199 933 128 900 q 369 967 269 967 q 508 946 440 967 q 626 900 576 925 l 575 775 q 519 801 549 789 q 453 822 489 814 q 375 829 418 829 q 258 802 306 829 q 211 719 211 775 q 237 648 211 678 q 311 592 263 618 q 424 532 360 565 q 526 476 478 504 q 610 414 574 447 q 667 338 646 381 q 688 239 688 296 q 647 107 688 164 q 529 16 606 50 q 340 -18 453 -18 q 272 -11 311 -18 q 194 6 233 -4 q 121 30 154 17 q 68 57 88 43 m 344 -36 q 410 -67 383 -36 q 438 -149 438 -97 q 417 -244 438 -199 q 363 -325 397 -290 q 286 -382 328 -360 l 250 -307 q 294 -275 271 -297 q 324 -222 317 -253 q 275 -194 299 -222 q 251 -131 251 -165 q 264 -85 251 -106 q 298 -51 276 -65 q 344 -36 319 -36 "},"à":{"ha":692,"x_min":63,"x_max":618,"o":"m 199 199 q 210 154 199 175 q 244 120 222 133 q 297 107 267 107 q 383 128 342 107 q 461 185 425 149 l 461 306 l 310 306 q 228 272 257 306 q 199 199 199 239 m 142 504 l 100 632 q 171 663 126 650 q 261 684 215 676 q 335 692 307 692 q 478 660 414 692 q 580 574 542 629 q 618 450 618 518 l 618 0 l 513 0 l 489 68 q 403 8 453 33 q 300 -17 353 -17 q 121 43 179 -17 q 63 199 63 103 q 132 354 63 300 q 313 410 201 408 l 460 410 l 460 414 q 431 512 458 474 q 338 550 403 550 q 233 535 285 550 q 142 504 181 521 m 322 818 l 194 1042 l 358 1042 l 431 847 l 322 818 "},"á":{"ha":692,"x_min":63,"x_max":618,"o":"m 199 199 q 210 154 199 175 q 244 120 222 133 q 297 107 267 107 q 383 128 342 107 q 461 185 425 149 l 461 306 l 310 306 q 228 272 257 306 q 199 199 199 239 m 142 504 l 100 632 q 171 663 126 650 q 261 684 215 676 q 335 692 307 692 q 478 660 414 692 q 580 574 542 629 q 618 450 618 518 l 618 0 l 513 0 l 489 68 q 403 8 453 33 q 300 -17 353 -17 q 121 43 179 -17 q 63 199 63 103 q 132 354 63 300 q 313 410 201 408 l 460 410 l 460 414 q 431 512 458 474 q 338 550 403 550 q 233 535 285 550 q 142 504 181 521 m 349 818 l 242 847 l 314 1042 l 478 1042 l 349 818 "},"â":{"ha":692,"x_min":63,"x_max":618,"o":"m 199 199 q 210 154 199 175 q 244 120 222 133 q 297 107 267 107 q 383 128 342 107 q 461 185 425 149 l 461 306 l 310 306 q 228 272 257 306 q 199 199 199 239 m 142 504 l 100 632 q 171 663 126 650 q 261 684 215 676 q 335 692 307 692 q 478 660 414 692 q 580 574 542 629 q 618 450 618 518 l 618 0 l 513 0 l 489 68 q 403 8 453 33 q 300 -17 353 -17 q 121 43 179 -17 q 63 199 63 103 q 132 354 63 300 q 313 410 201 408 l 460 410 l 460 414 q 431 512 458 474 q 338 550 403 550 q 233 535 285 550 q 142 504 181 521 m 338 924 l 240 818 l 94 836 l 288 1042 l 383 1042 l 578 836 l 436 818 l 338 924 "},"ã":{"ha":692,"x_min":63,"x_max":618,"o":"m 199 199 q 210 154 199 175 q 244 120 222 133 q 297 107 267 107 q 383 128 342 107 q 461 185 425 149 l 461 306 l 310 306 q 228 272 257 306 q 199 199 199 239 m 142 504 l 100 632 q 171 663 126 650 q 261 684 215 676 q 335 692 307 692 q 478 660 414 692 q 580 574 542 629 q 618 450 618 518 l 618 0 l 513 0 l 489 68 q 403 8 453 33 q 300 -17 353 -17 q 121 43 179 -17 q 63 199 63 103 q 132 354 63 300 q 313 410 201 408 l 460 410 l 460 414 q 431 512 458 474 q 338 550 403 550 q 233 535 285 550 q 142 504 181 521 m 458 988 l 557 988 q 538 894 557 929 q 487 845 519 860 q 418 831 454 831 q 372 839 390 831 q 338 860 353 847 q 306 878 322 871 q 268 885 290 885 q 240 870 253 885 q 225 838 226 856 l 121 838 q 140 931 121 897 q 192 979 160 965 q 261 993 225 993 q 308 987 289 993 q 343 967 328 981 q 376 949 358 957 q 417 940 393 940 q 445 954 433 940 q 458 988 457 968 "},"ä":{"ha":692,"x_min":63,"x_max":618,"o":"m 199 199 q 210 154 199 175 q 244 120 222 133 q 297 107 267 107 q 383 128 342 107 q 461 185 425 149 l 461 306 l 310 306 q 228 272 257 306 q 199 199 199 239 m 142 504 l 100 632 q 171 663 126 650 q 261 684 215 676 q 335 692 307 692 q 478 660 414 692 q 580 574 542 629 q 618 450 618 518 l 618 0 l 513 0 l 489 68 q 403 8 453 33 q 300 -17 353 -17 q 121 43 179 -17 q 63 199 63 103 q 132 354 63 300 q 313 410 201 408 l 460 410 l 460 414 q 431 512 458 474 q 338 550 403 550 q 233 535 285 550 q 142 504 181 521 m 200 843 q 141 867 165 843 q 117 925 117 890 q 141 983 117 958 q 200 1007 165 1007 q 258 983 235 1007 q 281 925 281 958 q 258 867 281 890 q 200 843 235 843 m 451 843 q 394 867 419 843 q 369 925 369 890 q 394 983 369 958 q 451 1007 419 1007 q 511 983 488 1007 q 535 925 535 958 q 511 867 535 890 q 451 843 488 843 "},"å":{"ha":692,"x_min":63,"x_max":618,"o":"m 199 199 q 210 154 199 175 q 244 120 222 133 q 297 107 267 107 q 383 128 342 107 q 461 185 425 149 l 461 306 l 310 306 q 228 272 257 306 q 199 199 199 239 m 142 504 l 100 632 q 171 663 126 650 q 261 684 215 676 q 335 692 307 692 q 478 660 414 692 q 580 574 542 629 q 618 450 618 518 l 618 0 l 513 0 l 489 68 q 403 8 453 33 q 300 -17 353 -17 q 121 43 179 -17 q 63 199 63 103 q 132 354 63 300 q 313 410 201 408 l 460 410 l 460 414 q 431 512 458 474 q 338 550 403 550 q 233 535 285 550 q 142 504 181 521 m 335 1089 q 406 1072 374 1089 q 457 1024 438 1054 q 476 954 476 993 q 457 888 476 917 q 406 842 438 858 q 335 825 374 825 q 235 862 278 825 q 193 954 193 899 q 213 1024 193 993 q 265 1072 233 1054 q 335 1089 297 1089 m 336 899 q 375 915 358 899 q 392 954 392 932 q 375 994 392 978 q 336 1011 358 1011 q 296 994 313 1011 q 279 954 279 978 q 296 915 279 932 q 336 899 313 899 "},"ā":{"ha":692,"x_min":63,"x_max":618,"o":"m 199 199 q 210 154 199 175 q 244 120 222 133 q 297 107 267 107 q 383 128 342 107 q 461 185 425 149 l 461 306 l 310 306 q 228 272 257 306 q 199 199 199 239 m 142 504 l 100 632 q 171 663 126 650 q 261 684 215 676 q 335 692 307 692 q 478 660 414 692 q 580 574 542 629 q 618 450 618 518 l 618 0 l 513 0 l 489 68 q 403 8 453 33 q 300 -17 353 -17 q 121 43 179 -17 q 63 199 63 103 q 132 354 63 300 q 313 410 201 408 l 460 410 l 460 414 q 431 512 458 474 q 338 550 403 550 q 233 535 285 550 q 142 504 181 521 m 157 861 l 157 985 l 500 985 l 513 861 l 157 861 "},"ă":{"ha":692,"x_min":63,"x_max":618,"o":"m 199 199 q 210 154 199 175 q 244 120 222 133 q 297 107 267 107 q 383 128 342 107 q 461 185 425 149 l 461 306 l 310 306 q 228 272 257 306 q 199 199 199 239 m 142 504 l 100 632 q 171 663 126 650 q 261 684 215 676 q 335 692 307 692 q 478 660 414 692 q 580 574 542 629 q 618 450 618 518 l 618 0 l 513 0 l 489 68 q 403 8 453 33 q 300 -17 353 -17 q 121 43 179 -17 q 63 199 63 103 q 132 354 63 300 q 313 410 201 408 l 460 410 l 460 414 q 431 512 458 474 q 338 550 403 550 q 233 535 285 550 q 142 504 181 521 m 433 1038 l 539 1038 q 518 933 539 983 q 453 853 497 883 q 340 822 410 824 q 229 853 274 824 q 164 933 185 883 q 143 1038 143 982 l 250 1038 q 271 969 250 1001 q 340 936 292 936 q 410 969 388 936 q 433 1038 433 1001 "},"ą":{"ha":692,"x_min":63,"x_max":704,"o":"m 507 43 l 618 0 q 585 -35 601 -12 q 557 -84 568 -58 q 546 -131 546 -110 q 559 -165 546 -153 q 597 -178 572 -178 q 626 -172 608 -178 q 658 -153 643 -165 l 704 -249 q 642 -283 675 -272 q 571 -294 610 -294 q 490 -274 525 -294 q 434 -219 454 -253 q 414 -143 414 -185 q 428 -67 414 -101 q 463 -6 442 -33 q 507 43 485 21 m 199 199 q 210 154 199 175 q 244 120 222 133 q 297 107 267 107 q 383 128 342 107 q 461 185 425 149 l 461 306 l 310 306 q 228 272 257 306 q 199 199 199 239 m 142 504 l 100 632 q 171 663 126 650 q 261 684 215 676 q 335 692 307 692 q 478 660 414 692 q 580 574 542 629 q 618 450 618 518 l 618 0 l 513 0 l 489 68 q 403 8 453 33 q 300 -17 353 -17 q 121 43 179 -17 q 63 199 63 103 q 132 354 63 300 q 313 410 201 408 l 460 410 l 460 414 q 431 512 458 474 q 338 550 403 550 q 233 535 285 550 q 142 504 181 521 "},"ç":{"ha":650,"x_min":39,"x_max":618,"o":"m 569 161 l 615 49 q 542 13 586 28 q 456 -10 497 -3 q 385 -18 414 -18 q 201 26 279 -18 q 81 151 124 71 q 39 336 39 231 q 82 523 39 443 q 203 647 125 603 q 388 692 282 692 q 457 684 415 692 q 542 661 499 676 q 618 624 586 646 l 572 513 q 483 545 526 532 q 388 558 440 558 q 289 529 332 558 q 223 450 246 500 q 199 338 200 400 q 221 224 199 274 q 286 145 243 174 q 386 117 329 117 q 481 128 439 117 q 569 161 524 140 m 275 -106 l 324 18 l 439 18 l 411 -50 q 463 -77 440 -58 q 499 -120 486 -96 q 513 -169 513 -144 q 488 -247 513 -215 q 425 -292 464 -278 q 342 -307 386 -307 q 278 -297 315 -307 q 218 -271 240 -287 l 254 -179 q 297 -195 271 -186 q 342 -204 324 -204 q 380 -197 361 -204 q 399 -172 399 -189 q 382 -142 399 -154 q 337 -119 365 -129 q 275 -106 308 -110 "},"ć":{"ha":650,"x_min":39,"x_max":618,"o":"m 569 161 l 615 49 q 542 13 586 28 q 456 -10 497 -3 q 385 -18 414 -18 q 201 26 279 -18 q 81 151 124 71 q 39 336 39 231 q 82 523 39 443 q 203 647 125 603 q 388 692 282 692 q 457 684 415 692 q 542 661 499 676 q 618 624 586 646 l 572 513 q 483 545 526 532 q 388 558 440 558 q 289 529 332 558 q 223 450 246 500 q 199 338 200 400 q 221 224 199 274 q 286 145 243 174 q 386 117 329 117 q 481 128 439 117 q 569 161 524 140 m 358 818 l 251 847 l 324 1042 l 488 1042 l 358 818 "},"č":{"ha":650,"x_min":39,"x_max":618,"o":"m 569 161 l 615 49 q 542 13 586 28 q 456 -10 497 -3 q 385 -18 414 -18 q 201 26 279 -18 q 81 151 124 71 q 39 336 39 231 q 82 523 39 443 q 203 647 125 603 q 388 692 282 692 q 457 684 415 692 q 542 661 499 676 q 618 624 586 646 l 572 513 q 483 545 526 532 q 388 558 440 558 q 289 529 332 558 q 223 450 246 500 q 199 338 200 400 q 221 224 199 274 q 286 145 243 174 q 386 117 329 117 q 481 128 439 117 q 569 161 524 140 m 356 936 l 454 1042 l 596 1024 l 403 818 l 307 818 l 113 1024 l 257 1042 l 356 936 "},"ď":{"ha":1022,"x_min":39,"x_max":981,"o":"m 885 1017 q 952 985 924 1017 q 981 906 981 954 q 958 803 981 856 q 897 706 935 750 q 811 635 860 661 l 775 707 q 833 763 810 736 q 864 832 857 790 q 831 845 847 832 q 803 880 815 858 q 792 922 792 901 q 804 967 792 946 q 838 1003 817 989 q 885 1017 860 1017 m 524 121 l 524 965 l 681 979 l 681 0 l 596 0 l 524 121 m 563 211 l 610 106 q 539 39 579 67 q 456 -3 499 11 q 375 -18 414 -18 q 195 26 271 -18 q 79 151 119 71 q 39 339 39 231 q 80 524 39 444 q 197 647 121 603 q 378 692 274 692 q 458 677 414 692 q 544 635 503 663 q 611 568 585 607 l 565 461 q 476 536 519 514 q 379 558 432 558 q 281 529 322 558 q 219 451 240 500 q 199 339 199 401 q 219 224 199 274 q 281 145 240 174 q 378 117 322 117 q 474 140 432 117 q 563 211 517 164 "},"è":{"ha":707,"x_min":39,"x_max":669,"o":"m 669 296 l 203 296 q 233 201 210 242 q 301 138 256 161 q 418 115 346 115 q 522 132 476 115 q 617 175 567 149 l 664 61 q 594 22 632 40 q 513 -7 557 3 q 415 -17 468 -17 q 207 27 292 -17 q 81 151 122 71 q 39 336 39 231 q 78 523 39 443 q 192 647 118 603 q 369 692 267 692 q 540 642 474 692 q 638 510 607 592 q 669 329 669 428 l 669 296 m 206 401 l 519 401 q 491 486 511 451 q 440 540 471 521 q 364 558 408 558 q 287 540 321 558 q 233 486 253 521 q 206 401 213 451 m 346 818 l 218 1042 l 382 1042 l 454 847 l 346 818 "},"é":{"ha":707,"x_min":39,"x_max":669,"o":"m 669 296 l 203 296 q 233 201 210 242 q 301 138 256 161 q 418 115 346 115 q 522 132 476 115 q 617 175 567 149 l 664 61 q 594 22 632 40 q 513 -7 557 3 q 415 -17 468 -17 q 207 27 292 -17 q 81 151 122 71 q 39 336 39 231 q 78 523 39 443 q 192 647 118 603 q 369 692 267 692 q 540 642 474 692 q 638 510 607 592 q 669 329 669 428 l 669 296 m 206 401 l 519 401 q 491 486 511 451 q 440 540 471 521 q 364 558 408 558 q 287 540 321 558 q 233 486 253 521 q 206 401 213 451 m 374 818 l 267 847 l 339 1042 l 503 1042 l 374 818 "},"ê":{"ha":707,"x_min":39,"x_max":669,"o":"m 669 296 l 203 296 q 233 201 210 242 q 301 138 256 161 q 418 115 346 115 q 522 132 476 115 q 617 175 567 149 l 664 61 q 594 22 632 40 q 513 -7 557 3 q 415 -17 468 -17 q 207 27 292 -17 q 81 151 122 71 q 39 336 39 231 q 78 523 39 443 q 192 647 118 603 q 369 692 267 692 q 540 642 474 692 q 638 510 607 592 q 669 329 669 428 l 669 296 m 206 401 l 519 401 q 491 486 511 451 q 440 540 471 521 q 364 558 408 558 q 287 540 321 558 q 233 486 253 521 q 206 401 213 451 m 361 924 l 264 818 l 118 836 l 311 1042 l 407 1042 l 601 836 l 460 818 l 361 924 "},"ë":{"ha":707,"x_min":39,"x_max":669,"o":"m 669 296 l 203 296 q 233 201 210 242 q 301 138 256 161 q 418 115 346 115 q 522 132 476 115 q 617 175 567 149 l 664 61 q 594 22 632 40 q 513 -7 557 3 q 415 -17 468 -17 q 207 27 292 -17 q 81 151 122 71 q 39 336 39 231 q 78 523 39 443 q 192 647 118 603 q 369 692 267 692 q 540 642 474 692 q 638 510 607 592 q 669 329 669 428 l 669 296 m 206 401 l 519 401 q 491 486 511 451 q 440 540 471 521 q 364 558 408 558 q 287 540 321 558 q 233 486 253 521 q 206 401 213 451 m 225 843 q 166 867 190 843 q 142 925 142 890 q 166 983 142 958 q 225 1007 190 1007 q 283 983 260 1007 q 306 925 306 958 q 283 867 306 890 q 225 843 260 843 m 476 843 q 419 867 444 843 q 394 925 394 890 q 419 983 394 958 q 476 1007 444 1007 q 536 983 513 1007 q 560 925 560 958 q 536 867 560 890 q 476 843 513 843 "},"ē":{"ha":707,"x_min":39,"x_max":669,"o":"m 669 296 l 203 296 q 233 201 210 242 q 301 138 256 161 q 418 115 346 115 q 522 132 476 115 q 617 175 567 149 l 664 61 q 594 22 632 40 q 513 -7 557 3 q 415 -17 468 -17 q 207 27 292 -17 q 81 151 122 71 q 39 336 39 231 q 78 523 39 443 q 192 647 118 603 q 369 692 267 692 q 540 642 474 692 q 638 510 607 592 q 669 329 669 428 l 669 296 m 206 401 l 519 401 q 491 486 511 451 q 440 540 471 521 q 364 558 408 558 q 287 540 321 558 q 233 486 253 521 q 206 401 213 451 m 181 861 l 181 985 l 524 985 l 536 861 l 181 861 "},"ė":{"ha":707,"x_min":39,"x_max":669,"o":"m 669 296 l 203 296 q 233 201 210 242 q 301 138 256 161 q 418 115 346 115 q 522 132 476 115 q 617 175 567 149 l 664 61 q 594 22 632 40 q 513 -7 557 3 q 415 -17 468 -17 q 207 27 292 -17 q 81 151 122 71 q 39 336 39 231 q 78 523 39 443 q 192 647 118 603 q 369 692 267 692 q 540 642 474 692 q 638 510 607 592 q 669 329 669 428 l 669 296 m 206 401 l 519 401 q 491 486 511 451 q 440 540 471 521 q 364 558 408 558 q 287 540 321 558 q 233 486 253 521 q 206 401 213 451 m 365 833 q 299 860 326 833 q 271 925 271 888 q 299 992 271 964 q 365 1019 326 1019 q 430 992 404 1019 q 456 926 456 965 q 430 860 456 888 q 365 833 404 833 "},"ę":{"ha":707,"x_min":39,"x_max":669,"o":"m 669 296 l 203 296 q 233 201 210 242 q 301 138 256 161 q 418 115 346 115 q 522 132 476 115 q 617 175 567 149 l 664 61 q 594 22 632 40 q 513 -7 557 3 q 415 -17 468 -17 q 207 27 292 -17 q 81 151 122 71 q 39 336 39 231 q 78 523 39 443 q 192 647 118 603 q 369 692 267 692 q 540 642 474 692 q 638 510 607 592 q 669 329 669 428 l 669 296 m 206 401 l 519 401 q 491 486 511 451 q 440 540 471 521 q 364 558 408 558 q 287 540 321 558 q 233 486 253 521 q 206 401 213 451 m 408 6 l 554 7 q 521 -30 538 -7 q 494 -78 504 -53 q 483 -124 483 -103 q 496 -160 483 -147 q 533 -172 508 -172 q 562 -165 544 -172 q 594 -147 579 -158 l 640 -243 q 578 -277 611 -267 q 507 -287 546 -287 q 426 -267 461 -287 q 370 -213 390 -247 q 350 -137 350 -179 q 358 -86 350 -112 q 381 -35 367 -60 q 408 6 396 -10 "},"ě":{"ha":707,"x_min":39,"x_max":669,"o":"m 669 296 l 203 296 q 233 201 210 242 q 301 138 256 161 q 418 115 346 115 q 522 132 476 115 q 617 175 567 149 l 664 61 q 594 22 632 40 q 513 -7 557 3 q 415 -17 468 -17 q 207 27 292 -17 q 81 151 122 71 q 39 336 39 231 q 78 523 39 443 q 192 647 118 603 q 369 692 267 692 q 540 642 474 692 q 638 510 607 592 q 669 329 669 428 l 669 296 m 206 401 l 519 401 q 491 486 511 451 q 440 540 471 521 q 364 558 408 558 q 287 540 321 558 q 233 486 253 521 q 206 401 213 451 m 369 936 l 468 1042 l 610 1024 l 417 818 l 321 818 l 126 1024 l 271 1042 l 369 936 "},"ğ":{"ha":768,"x_min":39,"x_max":681,"o":"m 681 674 l 681 -46 q 640 -192 681 -131 q 523 -286 599 -253 q 342 -319 447 -319 q 287 -315 321 -319 q 216 -302 253 -311 q 144 -279 179 -293 q 85 -247 110 -265 l 132 -136 q 233 -178 186 -164 q 338 -194 281 -193 q 472 -154 419 -193 q 524 -44 524 -115 l 524 557 l 596 674 l 681 674 m 563 211 l 610 106 q 539 39 579 67 q 456 -3 499 11 q 375 -18 414 -18 q 195 26 271 -18 q 79 151 119 71 q 39 339 39 231 q 80 524 39 444 q 197 647 121 603 q 378 692 274 692 q 458 677 414 692 q 544 635 503 663 q 611 568 585 607 l 565 461 q 476 536 519 514 q 379 558 432 558 q 281 529 322 558 q 219 451 240 500 q 199 339 199 401 q 219 224 199 274 q 281 145 240 174 q 378 117 322 117 q 474 140 432 117 q 563 211 517 164 m 451 1038 l 557 1038 q 536 933 557 983 q 472 853 515 883 q 358 822 428 824 q 247 853 292 824 q 182 933 203 883 q 161 1038 161 982 l 268 1038 q 289 969 268 1001 q 358 936 310 936 q 428 969 406 936 q 451 1038 451 1001 "},"ì":{"ha":317,"x_min":11,"x_max":246,"o":"m 238 0 l 81 0 l 81 674 l 238 674 l 238 0 m 139 818 l 11 1042 l 175 1042 l 247 847 l 139 818 "},"í":{"ha":317,"x_min":57,"x_max":293,"o":"m 238 0 l 81 0 l 81 674 l 238 674 l 238 0 m 164 818 l 57 847 l 129 1042 l 293 1042 l 164 818 "},"î":{"ha":317,"x_min":-90,"x_max":393,"o":"m 238 0 l 81 0 l 81 674 l 238 674 l 238 0 m 153 924 l 56 818 l -90 836 l 103 1042 l 199 1042 l 393 836 l 251 818 l 153 924 "},"ï":{"ha":317,"x_min":-68,"x_max":350,"o":"m 238 0 l 81 0 l 81 674 l 238 674 l 238 0 m 15 843 q -44 867 -19 843 q -68 925 -68 890 q -44 983 -68 958 q 15 1007 -19 1007 q 73 983 50 1007 q 96 925 96 958 q 73 867 96 890 q 15 843 50 843 m 267 843 q 210 867 235 843 q 185 925 185 890 q 210 983 185 958 q 267 1007 235 1007 q 326 983 303 1007 q 350 925 350 958 q 326 867 350 890 q 267 843 303 843 "},"ī":{"ha":317,"x_min":-26,"x_max":329,"o":"m 238 0 l 81 0 l 81 674 l 238 674 l 238 0 m -26 861 l -26 985 l 317 985 l 329 861 l -26 861 "},"į":{"ha":317,"x_min":33,"x_max":324,"o":"m 79 0 l 238 0 q 205 -35 222 -12 q 176 -84 188 -58 q 164 -131 164 -110 q 178 -165 164 -153 q 215 -178 192 -178 q 244 -172 226 -178 q 276 -153 261 -165 l 324 -249 q 260 -283 293 -272 q 189 -294 228 -294 q 108 -274 144 -294 q 53 -219 72 -253 q 33 -143 33 -185 q 46 -67 33 -110 q 79 0 58 -24 m 238 0 l 81 0 l 81 674 l 238 674 l 238 0 m 156 833 q 90 860 117 833 q 63 925 63 888 q 90 992 63 965 q 156 1019 117 1019 q 220 992 194 1019 q 246 926 246 965 q 220 860 246 888 q 156 833 194 833 "},"ľ":{"ha":589,"x_min":94,"x_max":547,"o":"m 453 1017 q 519 985 492 1017 q 547 906 547 954 q 525 803 547 856 q 465 706 503 750 q 378 635 426 661 l 343 707 q 401 763 378 736 q 432 832 425 790 q 399 845 415 832 q 370 880 382 858 q 358 922 358 901 q 372 967 358 946 q 406 1003 385 989 q 453 1017 428 1017 m 249 0 l 94 0 l 94 965 l 249 981 l 249 0 "},"ñ":{"ha":769,"x_min":81,"x_max":694,"o":"m 236 0 l 81 0 l 81 674 l 185 674 l 213 593 q 295 648 251 625 q 385 683 339 671 q 471 696 431 696 q 603 661 554 696 q 673 567 651 626 q 694 433 694 508 l 694 0 l 538 0 l 538 424 q 513 528 538 490 q 433 565 489 565 q 365 551 400 565 q 297 515 329 538 q 236 471 265 493 l 236 0 m 517 988 l 615 988 q 597 894 615 929 q 545 845 578 860 q 476 831 513 831 q 430 839 449 831 q 396 860 411 847 q 365 878 381 871 q 326 885 349 885 q 298 870 311 885 q 283 838 285 856 l 179 838 q 199 931 179 897 q 251 979 218 965 q 319 993 283 993 q 367 987 347 993 q 401 967 386 981 q 434 949 417 957 q 475 940 451 940 q 503 954 492 940 q 517 988 515 968 "},"ń":{"ha":769,"x_min":81,"x_max":694,"o":"m 236 0 l 81 0 l 81 674 l 185 674 l 213 593 q 295 648 251 625 q 385 683 339 671 q 471 696 431 696 q 603 661 554 696 q 673 567 651 626 q 694 433 694 508 l 694 0 l 538 0 l 538 424 q 513 528 538 490 q 433 565 489 565 q 365 551 400 565 q 297 515 329 538 q 236 471 265 493 l 236 0 m 407 818 l 300 847 l 372 1042 l 536 1042 l 407 818 "},"ň":{"ha":769,"x_min":81,"x_max":694,"o":"m 236 0 l 81 0 l 81 674 l 185 674 l 213 593 q 295 648 251 625 q 385 683 339 671 q 471 696 431 696 q 603 661 554 696 q 673 567 651 626 q 694 433 694 508 l 694 0 l 538 0 l 538 424 q 513 528 538 490 q 433 565 489 565 q 365 551 400 565 q 297 515 329 538 q 236 471 265 493 l 236 0 m 403 936 l 501 1042 l 643 1024 l 450 818 l 354 818 l 160 1024 l 304 1042 l 403 936 "},"ò":{"ha":772,"x_min":39,"x_max":735,"o":"m 385 -18 q 569 27 492 -17 q 691 151 647 71 q 735 338 735 232 q 692 524 735 444 q 572 647 649 603 q 388 692 494 692 q 203 647 282 692 q 82 524 125 603 q 39 336 39 444 q 81 151 39 231 q 200 26 122 71 q 385 -18 278 -18 m 386 117 q 286 145 329 117 q 221 224 243 174 q 199 338 199 274 q 223 450 200 400 q 289 529 246 500 q 388 558 332 558 q 488 530 446 558 q 551 451 529 501 q 574 338 574 401 q 551 225 574 275 q 486 146 528 175 q 386 117 444 117 m 365 818 l 238 1042 l 401 1042 l 474 847 l 365 818 "},"ó":{"ha":772,"x_min":39,"x_max":735,"o":"m 385 -18 q 569 27 492 -17 q 691 151 647 71 q 735 338 735 232 q 692 524 735 444 q 572 647 649 603 q 388 692 494 692 q 203 647 282 692 q 82 524 125 603 q 39 336 39 444 q 81 151 39 231 q 200 26 122 71 q 385 -18 278 -18 m 386 117 q 286 145 329 117 q 221 224 243 174 q 199 338 199 274 q 223 450 200 400 q 289 529 246 500 q 388 558 332 558 q 488 530 446 558 q 551 451 529 501 q 574 338 574 401 q 551 225 574 275 q 486 146 528 175 q 386 117 444 117 m 393 818 l 286 847 l 358 1042 l 522 1042 l 393 818 "},"ô":{"ha":772,"x_min":39,"x_max":735,"o":"m 385 -18 q 569 27 492 -17 q 691 151 647 71 q 735 338 735 232 q 692 524 735 444 q 572 647 649 603 q 388 692 494 692 q 203 647 282 692 q 82 524 125 603 q 39 336 39 444 q 81 151 39 231 q 200 26 122 71 q 385 -18 278 -18 m 386 117 q 286 145 329 117 q 221 224 243 174 q 199 338 199 274 q 223 450 200 400 q 289 529 246 500 q 388 558 332 558 q 488 530 446 558 q 551 451 529 501 q 574 338 574 401 q 551 225 574 275 q 486 146 528 175 q 386 117 444 117 m 381 924 l 283 818 l 138 836 l 331 1042 l 426 1042 l 621 836 l 479 818 l 381 924 "},"õ":{"ha":772,"x_min":39,"x_max":735,"o":"m 385 -18 q 569 27 492 -17 q 691 151 647 71 q 735 338 735 232 q 692 524 735 444 q 572 647 649 603 q 388 692 494 692 q 203 647 282 692 q 82 524 125 603 q 39 336 39 444 q 81 151 39 231 q 200 26 122 71 q 385 -18 278 -18 m 386 117 q 286 145 329 117 q 221 224 243 174 q 199 338 199 274 q 223 450 200 400 q 289 529 246 500 q 388 558 332 558 q 488 530 446 558 q 551 451 529 501 q 574 338 574 401 q 551 225 574 275 q 486 146 528 175 q 386 117 444 117 m 503 988 l 601 988 q 583 894 601 929 q 531 845 564 860 q 463 831 499 831 q 416 839 435 831 q 382 860 397 847 q 351 878 367 871 q 313 885 335 885 q 284 870 297 885 q 269 838 271 856 l 165 838 q 185 931 165 897 q 237 979 204 965 q 306 993 269 993 q 353 987 333 993 q 388 967 372 981 q 420 949 403 957 q 461 940 438 940 q 490 954 478 940 q 503 988 501 968 "},"ö":{"ha":772,"x_min":39,"x_max":735,"o":"m 385 -18 q 569 27 492 -17 q 691 151 647 71 q 735 338 735 232 q 692 524 735 444 q 572 647 649 603 q 388 692 494 692 q 203 647 282 692 q 82 524 125 603 q 39 336 39 444 q 81 151 39 231 q 200 26 122 71 q 385 -18 278 -18 m 386 117 q 286 145 329 117 q 221 224 243 174 q 199 338 199 274 q 223 450 200 400 q 289 529 246 500 q 388 558 332 558 q 488 530 446 558 q 551 451 529 501 q 574 338 574 401 q 551 225 574 275 q 486 146 528 175 q 386 117 444 117 m 244 843 q 185 867 210 843 q 161 925 161 890 q 185 983 161 958 q 244 1007 210 1007 q 302 983 279 1007 q 325 925 325 958 q 302 867 325 890 q 244 843 279 843 m 496 843 q 439 867 464 843 q 414 925 414 890 q 439 983 414 958 q 496 1007 464 1007 q 556 983 532 1007 q 579 925 579 958 q 556 867 579 890 q 496 843 532 843 "},"ō":{"ha":772,"x_min":39,"x_max":735,"o":"m 385 -18 q 569 27 492 -17 q 691 151 647 71 q 735 338 735 232 q 692 524 735 444 q 572 647 649 603 q 388 692 494 692 q 203 647 282 692 q 82 524 125 603 q 39 336 39 444 q 81 151 39 231 q 200 26 122 71 q 385 -18 278 -18 m 386 117 q 286 145 329 117 q 221 224 243 174 q 199 338 199 274 q 223 450 200 400 q 289 529 246 500 q 388 558 332 558 q 488 530 446 558 q 551 451 529 501 q 574 338 574 401 q 551 225 574 275 q 486 146 528 175 q 386 117 444 117 m 200 861 l 200 985 l 543 985 l 556 861 l 200 861 "},"ő":{"ha":772,"x_min":39,"x_max":735,"o":"m 385 -18 q 569 27 492 -17 q 691 151 647 71 q 735 338 735 232 q 692 524 735 444 q 572 647 649 603 q 388 692 494 692 q 203 647 282 692 q 82 524 125 603 q 39 336 39 444 q 81 151 39 231 q 200 26 122 71 q 385 -18 278 -18 m 386 117 q 286 145 329 117 q 221 224 243 174 q 199 338 199 274 q 223 450 200 400 q 289 529 246 500 q 388 558 332 558 q 488 530 446 558 q 551 451 529 501 q 574 338 574 401 q 551 225 574 275 q 486 146 528 175 q 386 117 444 117 m 297 818 l 190 847 l 263 1042 l 426 1042 l 297 818 m 553 818 l 443 847 l 517 1042 l 681 1042 l 553 818 "},"ŕ":{"ha":489,"x_min":81,"x_max":475,"o":"m 236 0 l 81 0 l 81 674 l 164 674 l 215 563 q 282 612 243 586 q 363 656 321 638 q 442 674 406 674 l 475 549 q 399 532 442 549 q 315 489 357 515 q 236 429 272 463 l 236 0 m 263 818 l 156 847 l 228 1042 l 392 1042 l 263 818 "},"ř":{"ha":489,"x_min":17,"x_max":500,"o":"m 236 0 l 81 0 l 81 674 l 164 674 l 215 563 q 282 612 243 586 q 363 656 321 638 q 442 674 406 674 l 475 549 q 399 532 442 549 q 315 489 357 515 q 236 429 272 463 l 236 0 m 260 936 l 358 1042 l 500 1024 l 307 818 l 211 818 l 17 1024 l 161 1042 l 260 936 "},"ś":{"ha":586,"x_min":40,"x_max":547,"o":"m 43 47 l 90 154 q 151 131 121 142 q 211 115 182 121 q 269 110 240 110 q 332 118 303 110 q 379 143 361 126 q 397 182 397 160 q 381 223 397 204 q 335 258 364 242 q 264 285 306 274 q 160 331 211 304 q 74 397 108 357 q 40 490 40 436 q 110 638 40 585 q 300 692 179 692 q 369 684 329 692 q 451 662 410 676 q 524 625 493 647 l 475 518 q 390 552 432 539 q 297 565 349 565 q 226 544 254 565 q 197 493 197 524 q 234 447 197 467 q 319 411 271 428 q 427 362 375 393 q 513 288 479 331 q 547 188 547 246 q 476 37 547 92 q 271 -18 406 -18 q 200 -11 243 -18 q 115 11 157 -4 q 43 47 74 26 m 307 818 l 200 847 l 272 1042 l 436 1042 l 307 818 "},"š":{"ha":586,"x_min":40,"x_max":547,"o":"m 43 47 l 90 154 q 151 131 121 142 q 211 115 182 121 q 269 110 240 110 q 332 118 303 110 q 379 143 361 126 q 397 182 397 160 q 381 223 397 204 q 335 258 364 242 q 264 285 306 274 q 160 331 211 304 q 74 397 108 357 q 40 490 40 436 q 110 638 40 585 q 300 692 179 692 q 369 684 329 692 q 451 662 410 676 q 524 625 493 647 l 475 518 q 390 552 432 539 q 297 565 349 565 q 226 544 254 565 q 197 493 197 524 q 234 447 197 467 q 319 411 271 428 q 427 362 375 393 q 513 288 479 331 q 547 188 547 246 q 476 37 547 92 q 271 -18 406 -18 q 200 -11 243 -18 q 115 11 157 -4 q 43 47 74 26 m 301 936 l 400 1042 l 542 1024 l 349 818 l 253 818 l 58 1024 l 203 1042 l 301 936 "},"ť":{"ha":708,"x_min":17,"x_max":667,"o":"m 572 1017 q 638 985 610 1017 q 667 906 667 954 q 645 803 667 856 q 585 706 624 750 q 499 635 547 661 l 463 707 q 521 763 497 736 q 553 832 544 790 q 519 845 536 832 q 490 880 501 858 q 479 922 479 901 q 492 967 479 946 q 525 1003 504 989 q 572 1017 546 1017 m 389 668 l 436 550 l 267 550 l 267 226 q 290 142 267 175 q 363 110 314 110 q 399 114 381 110 q 433 125 417 118 l 476 10 q 442 -7 464 1 q 397 -21 421 -15 q 351 -26 372 -26 q 224 0 278 -26 q 140 77 169 26 q 111 201 111 128 l 111 550 l 18 550 l 17 668 l 111 668 l 111 833 l 267 864 l 267 668 l 389 668 "},"ù":{"ha":769,"x_min":75,"x_max":689,"o":"m 532 674 l 689 674 l 689 0 l 582 0 l 556 81 q 474 27 518 50 q 384 -9 429 4 q 299 -22 339 -22 q 165 12 214 -22 q 96 106 117 46 q 75 240 75 165 l 75 674 l 231 674 l 231 251 q 256 147 231 185 q 335 110 281 110 q 404 124 369 110 q 472 159 439 138 q 532 203 504 181 l 532 674 m 364 818 l 236 1042 l 400 1042 l 472 847 l 364 818 "},"ú":{"ha":769,"x_min":75,"x_max":689,"o":"m 532 674 l 689 674 l 689 0 l 582 0 l 556 81 q 474 27 518 50 q 384 -9 429 4 q 299 -22 339 -22 q 165 12 214 -22 q 96 106 117 46 q 75 240 75 165 l 75 674 l 231 674 l 231 251 q 256 147 231 185 q 335 110 281 110 q 404 124 369 110 q 472 159 439 138 q 532 203 504 181 l 532 674 m 392 818 l 285 847 l 357 1042 l 521 1042 l 392 818 "},"û":{"ha":769,"x_min":75,"x_max":689,"o":"m 532 674 l 689 674 l 689 0 l 582 0 l 556 81 q 474 27 518 50 q 384 -9 429 4 q 299 -22 339 -22 q 165 12 214 -22 q 96 106 117 46 q 75 240 75 165 l 75 674 l 231 674 l 231 251 q 256 147 231 185 q 335 110 281 110 q 404 124 369 110 q 472 159 439 138 q 532 203 504 181 l 532 674 m 378 924 l 281 818 l 135 836 l 328 1042 l 424 1042 l 618 836 l 476 818 l 378 924 "},"ü":{"ha":769,"x_min":75,"x_max":689,"o":"m 532 674 l 689 674 l 689 0 l 582 0 l 556 81 q 474 27 518 50 q 384 -9 429 4 q 299 -22 339 -22 q 165 12 214 -22 q 96 106 117 46 q 75 240 75 165 l 75 674 l 231 674 l 231 251 q 256 147 231 185 q 335 110 281 110 q 404 124 369 110 q 472 159 439 138 q 532 203 504 181 l 532 674 m 243 843 q 184 867 208 843 q 160 925 160 890 q 184 983 160 958 q 243 1007 208 1007 q 301 983 278 1007 q 324 925 324 958 q 301 867 324 890 q 243 843 278 843 m 494 843 q 438 867 463 843 q 413 925 413 890 q 438 983 413 958 q 494 1007 463 1007 q 554 983 531 1007 q 578 925 578 958 q 554 867 578 890 q 494 843 531 843 "},"ū":{"ha":769,"x_min":75,"x_max":689,"o":"m 532 674 l 689 674 l 689 0 l 582 0 l 556 81 q 474 27 518 50 q 384 -9 429 4 q 299 -22 339 -22 q 165 12 214 -22 q 96 106 117 46 q 75 240 75 165 l 75 674 l 231 674 l 231 251 q 256 147 231 185 q 335 110 281 110 q 404 124 369 110 q 472 159 439 138 q 532 203 504 181 l 532 674 m 199 861 l 199 985 l 542 985 l 554 861 l 199 861 "},"ů":{"ha":769,"x_min":75,"x_max":689,"o":"m 532 674 l 689 674 l 689 0 l 582 0 l 556 81 q 474 27 518 50 q 384 -9 429 4 q 299 -22 339 -22 q 165 12 214 -22 q 96 106 117 46 q 75 240 75 165 l 75 674 l 231 674 l 231 251 q 256 147 231 185 q 335 110 281 110 q 404 124 369 110 q 472 159 439 138 q 532 203 504 181 l 532 674 m 378 1089 q 449 1072 417 1089 q 500 1024 481 1054 q 519 954 519 993 q 500 888 519 917 q 449 842 481 858 q 378 825 417 825 q 278 862 321 825 q 236 954 236 899 q 256 1024 236 993 q 308 1072 276 1054 q 378 1089 340 1089 m 379 899 q 418 915 401 899 q 435 954 435 932 q 418 994 435 978 q 379 1011 401 1011 q 339 994 356 1011 q 322 954 322 978 q 339 915 322 932 q 379 899 356 899 "},"ű":{"ha":769,"x_min":75,"x_max":689,"o":"m 532 674 l 689 674 l 689 0 l 582 0 l 556 81 q 474 27 518 50 q 384 -9 429 4 q 299 -22 339 -22 q 165 12 214 -22 q 96 106 117 46 q 75 240 75 165 l 75 674 l 231 674 l 231 251 q 256 147 231 185 q 335 110 281 110 q 404 124 369 110 q 472 159 439 138 q 532 203 504 181 l 532 674 m 297 818 l 190 847 l 263 1042 l 426 1042 l 297 818 m 553 818 l 443 847 l 517 1042 l 681 1042 l 553 818 "},"ų":{"ha":769,"x_min":75,"x_max":776,"o":"m 579 43 l 689 0 q 656 -35 672 -12 q 629 -84 640 -58 q 618 -131 618 -110 q 631 -165 618 -153 q 668 -178 644 -178 q 697 -172 679 -178 q 729 -153 714 -165 l 776 -249 q 713 -283 746 -272 q 642 -294 681 -294 q 560 -274 596 -294 q 505 -219 525 -253 q 485 -143 485 -185 q 498 -67 485 -101 q 533 -6 511 -33 q 579 43 556 21 m 532 674 l 689 674 l 689 0 l 582 0 l 556 81 q 474 27 518 50 q 384 -9 429 4 q 299 -22 339 -22 q 165 12 214 -22 q 95 105 115 46 q 75 240 75 164 l 75 674 l 231 674 l 231 251 q 256 147 231 185 q 335 110 281 110 q 404 124 369 110 q 472 159 439 138 q 532 203 504 181 l 532 674 "},"ý":{"ha":678,"x_min":14,"x_max":664,"o":"m 217 -60 l 254 32 l 14 647 l 165 699 l 338 226 l 500 674 l 664 674 l 364 -106 q 305 -197 344 -156 q 214 -267 265 -239 q 107 -308 163 -294 l 53 -182 q 119 -151 85 -168 q 179 -112 153 -135 q 217 -60 206 -90 m 338 818 l 231 847 l 303 1042 l 467 1042 l 338 818 "},"ÿ":{"ha":678,"x_min":14,"x_max":664,"o":"m 217 -60 l 254 32 l 14 647 l 165 699 l 338 226 l 500 674 l 664 674 l 364 -106 q 305 -197 344 -156 q 214 -267 265 -239 q 107 -308 163 -294 l 53 -182 q 119 -151 85 -168 q 179 -112 153 -135 q 217 -60 206 -90 m 189 843 q 130 867 154 843 q 106 925 106 890 q 130 983 106 958 q 189 1007 154 1007 q 247 983 224 1007 q 269 925 269 958 q 247 867 269 890 q 189 843 224 843 m 440 843 q 383 867 408 843 q 358 925 358 890 q 383 983 358 958 q 440 1007 408 1007 q 500 983 476 1007 q 524 925 524 958 q 500 867 524 890 q 440 843 476 843 "},"ź":{"ha":608,"x_min":22,"x_max":586,"o":"m 571 674 l 579 586 l 217 125 l 572 125 l 586 0 l 42 0 l 22 82 l 378 546 l 76 546 l 44 674 l 571 674 m 311 818 l 204 847 l 276 1042 l 440 1042 l 311 818 "},"ż":{"ha":608,"x_min":22,"x_max":586,"o":"m 571 674 l 579 586 l 217 125 l 572 125 l 586 0 l 42 0 l 22 82 l 378 546 l 76 546 l 44 674 l 571 674 m 303 833 q 236 860 264 833 q 208 925 208 888 q 236 992 208 964 q 303 1019 264 1019 q 367 992 342 1019 q 393 926 393 965 q 367 860 393 888 q 303 833 342 833 "},"ž":{"ha":608,"x_min":22,"x_max":586,"o":"m 571 674 l 579 586 l 217 125 l 572 125 l 586 0 l 42 0 l 22 82 l 378 546 l 76 546 l 44 674 l 571 674 m 307 936 l 406 1042 l 547 1024 l 354 818 l 258 818 l 64 1024 l 208 1042 l 307 936 "},"ş":{"ha":586,"x_min":40,"x_max":547,"o":"m 43 47 l 90 154 q 151 131 121 142 q 211 115 182 121 q 269 110 240 110 q 332 118 303 110 q 379 143 361 126 q 397 182 397 160 q 381 223 397 204 q 335 258 364 242 q 264 285 306 274 q 160 331 211 304 q 74 397 108 357 q 40 490 40 436 q 110 638 40 585 q 300 692 179 692 q 369 684 329 692 q 451 662 410 676 q 524 625 493 647 l 475 518 q 390 552 432 539 q 297 565 349 565 q 226 544 254 565 q 197 493 197 524 q 234 447 197 467 q 319 411 271 428 q 427 362 375 393 q 513 288 479 331 q 547 188 547 246 q 476 37 547 92 q 271 -18 406 -18 q 200 -11 243 -18 q 115 11 157 -4 q 43 47 74 26 m 169 -106 l 218 18 l 333 18 l 306 -50 q 358 -77 335 -58 q 394 -120 381 -96 q 407 -169 407 -144 q 383 -247 407 -215 q 319 -292 358 -278 q 236 -307 281 -307 q 172 -297 210 -307 q 113 -271 135 -287 l 149 -179 q 192 -195 165 -186 q 236 -204 218 -204 q 274 -197 256 -204 q 293 -172 293 -189 q 276 -142 293 -154 q 231 -119 260 -129 q 169 -106 203 -110 "},"ţ":{"ha":501,"x_min":17,"x_max":476,"o":"m 389 668 l 436 550 l 267 550 l 267 226 q 290 142 267 175 q 363 110 314 110 q 399 114 381 110 q 433 125 417 118 l 476 10 q 442 -7 464 1 q 397 -21 421 -15 q 351 -26 372 -26 q 224 0 276 -26 q 141 77 171 26 q 111 201 111 128 l 111 550 l 18 550 l 17 668 l 111 668 l 111 833 l 267 864 l 267 668 l 389 668 m 203 -106 l 251 18 l 367 18 l 339 -50 q 391 -77 368 -58 q 427 -120 414 -96 q 440 -169 440 -144 q 416 -247 440 -215 q 353 -292 392 -278 q 269 -307 314 -307 q 206 -297 243 -307 q 146 -271 168 -287 l 182 -179 q 225 -195 199 -186 q 269 -204 251 -204 q 308 -197 289 -204 q 326 -172 326 -189 q 310 -142 326 -154 q 265 -119 293 -129 q 203 -106 236 -110 "},"ș":{"ha":586,"x_min":40,"x_max":547,"o":"m 43 47 l 90 154 q 151 131 121 142 q 211 115 182 121 q 269 110 240 110 q 332 118 303 110 q 379 143 361 126 q 397 182 397 160 q 381 223 397 204 q 335 258 364 242 q 264 285 306 274 q 160 331 211 304 q 74 397 108 357 q 40 490 40 436 q 110 638 40 585 q 300 692 179 692 q 369 684 329 692 q 451 662 410 676 q 524 625 493 647 l 475 518 q 390 552 432 539 q 297 565 349 565 q 226 544 254 565 q 197 493 197 524 q 234 447 197 467 q 319 411 271 428 q 427 362 375 393 q 513 288 479 331 q 547 188 547 246 q 476 37 547 92 q 271 -18 406 -18 q 200 -11 243 -18 q 115 11 157 -4 q 43 47 74 26 m 274 -36 q 340 -67 313 -36 q 367 -149 367 -97 q 347 -244 367 -199 q 292 -325 326 -290 q 215 -382 257 -360 l 179 -307 q 223 -275 200 -297 q 253 -222 246 -253 q 204 -194 228 -222 q 181 -131 181 -165 q 193 -85 181 -106 q 227 -51 206 -65 q 274 -36 249 -36 "},"­":{"ha":167,"x_min":0,"x_max":0,"o":""},"µ":{"ha":783,"x_min":89,"x_max":703,"o":"m 244 -289 l 89 -304 l 89 476 l 244 499 l 244 -289 m 546 674 l 703 674 l 703 0 l 596 0 l 569 81 q 488 27 532 50 q 398 -9 443 4 q 313 -22 353 -22 q 178 12 228 -22 q 109 105 129 46 q 89 240 89 164 l 89 674 l 244 674 l 244 251 q 269 147 244 185 q 349 110 294 110 q 418 124 383 110 q 485 159 453 138 q 546 203 518 181 l 546 674 "},"ˉ":{"ha":383,"x_min":14,"x_max":369,"o":"m 14 861 l 14 985 l 356 985 l 369 861 l 14 861 "},"ℓ":{"ha":553,"x_min":14,"x_max":511,"o":"m 53 224 l 14 363 q 45 383 29 372 q 77 406 61 394 q 108 429 93 418 l 108 768 q 138 880 108 833 q 214 951 167 926 q 318 975 261 975 q 416 951 372 975 q 485 883 460 928 q 511 778 511 839 q 478 644 511 714 q 389 506 444 574 q 267 379 333 438 l 267 240 q 273 179 267 207 q 295 135 279 151 q 342 118 311 118 q 379 123 356 118 q 433 149 403 128 l 488 51 q 435 14 461 29 q 380 -8 408 -1 q 326 -15 351 -15 q 197 15 244 -15 q 129 100 150 46 q 108 226 108 154 l 108 258 q 91 247 100 253 q 72 235 82 240 q 53 224 61 229 m 267 572 q 331 667 306 617 q 357 769 357 718 q 344 823 357 807 q 313 839 331 839 q 281 821 294 839 q 267 761 267 803 l 267 572 "},"Ω":{"ha":986,"x_min":51,"x_max":935,"o":"m 765 475 q 731 665 765 586 q 636 789 697 744 q 493 833 575 833 q 351 789 413 833 q 255 665 289 744 q 221 475 221 586 q 231 365 221 419 q 262 263 242 310 q 310 180 282 215 q 376 126 339 144 l 378 0 l 60 0 l 51 126 l 183 126 q 115 222 144 165 q 72 347 86 279 q 58 479 58 414 q 110 733 58 624 q 259 903 161 842 q 493 967 357 965 q 728 903 631 965 q 878 733 826 842 q 929 479 929 624 q 915 347 929 414 q 872 222 900 279 q 803 126 844 165 l 935 126 l 926 0 l 608 0 l 611 126 q 676 180 647 144 q 725 263 706 215 q 755 365 744 310 q 765 475 765 419 "},"∆":{"ha":892,"x_min":14,"x_max":878,"o":"m 375 944 l 511 944 l 878 22 l 878 0 l 14 0 l 375 944 m 672 125 l 440 732 l 215 125 l 672 125 "},"∕":{"ha":606,"x_min":14,"x_max":592,"o":"m 432 986 l 592 981 l 174 -6 l 14 0 l 432 986 "},"∙":{"ha":367,"x_min":42,"x_max":325,"o":"m 183 317 q 112 335 144 317 q 60 386 79 354 q 42 457 42 418 q 60 528 42 496 q 111 578 79 560 q 182 597 143 597 q 254 578 222 597 q 306 528 286 560 q 325 457 325 496 q 306 386 325 418 q 254 335 286 354 q 183 317 222 317 "},"₺":{"ha":735,"x_min":0,"x_max":707,"o":"m 119 0 l 119 438 l 22 406 l 0 524 l 119 565 l 119 628 l 22 592 l 0 713 l 119 754 l 119 965 l 275 981 l 275 811 l 497 889 l 521 769 l 275 683 l 275 622 l 497 700 l 521 581 l 275 493 l 275 144 q 381 167 332 144 q 468 230 431 189 q 526 325 506 271 q 547 443 547 379 l 707 443 q 672 260 707 342 q 575 120 636 178 q 433 31 514 63 q 260 0 351 0 l 119 0 "},"₽":{"ha":808,"x_min":38,"x_max":769,"o":"m 653 279 l 665 157 l 50 157 l 38 279 l 653 279 m 276 0 l 122 0 l 122 944 l 404 944 q 589 914 506 944 q 721 818 672 883 q 769 646 769 753 q 739 508 769 567 q 655 413 708 450 q 533 357 601 375 q 392 339 465 339 l 276 339 l 276 0 m 400 814 l 276 814 l 276 468 l 399 468 q 503 485 458 468 q 576 541 549 503 q 607 638 603 579 q 581 742 607 704 q 510 797 556 781 q 400 814 465 814 m 228 464 l 242 342 l 50 342 l 38 464 l 228 464 "},"¢":{"ha":650,"x_min":39,"x_max":618,"o":"m 475 642 l 325 647 l 325 831 l 475 846 l 475 642 m 476 36 l 476 -158 l 326 -158 l 326 32 l 476 36 m 569 161 l 615 49 q 542 13 586 28 q 456 -10 497 -3 q 385 -18 414 -18 q 201 26 279 -18 q 81 151 124 71 q 39 336 39 231 q 82 523 39 443 q 203 647 125 603 q 388 692 282 692 q 457 684 415 692 q 542 661 499 676 q 618 624 586 646 l 572 513 q 483 545 526 532 q 388 558 440 558 q 289 529 332 558 q 223 450 246 500 q 199 338 200 400 q 221 224 199 274 q 286 145 243 174 q 386 117 329 117 q 481 128 439 117 q 569 161 524 140 "},"£":{"ha":675,"x_min":67,"x_max":661,"o":"m 83 0 l 69 122 q 148 155 125 122 q 171 240 171 188 l 171 418 l 68 418 l 67 536 l 171 536 l 171 701 q 197 834 171 778 q 277 920 224 890 q 407 950 331 950 q 453 945 429 950 q 498 932 476 940 q 532 913 519 924 l 489 799 q 453 810 472 804 q 419 815 435 815 q 349 781 369 815 q 328 694 328 747 l 328 536 l 497 536 l 549 418 l 328 418 l 328 286 q 320 195 328 239 q 293 122 313 151 l 638 122 l 661 0 l 83 0 "},"¤":{"ha":960,"x_min":42,"x_max":918,"o":"m 136 -108 l 42 4 l 179 146 q 142 235 156 186 q 129 336 129 283 q 143 438 129 389 q 182 525 157 488 l 42 667 l 136 781 l 285 631 q 377 674 326 658 q 483 692 428 690 q 588 675 540 690 q 678 635 636 660 l 824 781 l 918 667 l 782 528 q 822 440 808 489 q 838 336 836 390 q 821 232 835 281 q 782 144 807 183 l 918 4 l 824 -108 l 676 39 q 585 -3 635 11 q 481 -18 535 -18 q 374 -1 425 -17 q 282 40 324 14 l 136 -108 m 675 335 q 649 441 675 394 q 580 515 624 488 q 483 543 536 543 q 386 515 431 543 q 316 441 342 488 q 289 338 290 394 q 315 232 290 279 q 383 157 340 185 q 479 128 426 129 q 578 156 533 128 q 649 231 622 185 q 675 335 675 278 "},"¥":{"ha":825,"x_min":14,"x_max":811,"o":"m 99 433 l 713 433 l 725 317 l 113 317 l 99 433 m 99 211 l 713 211 l 725 96 l 113 96 l 99 211 m 481 0 l 325 0 l 325 371 l 14 917 l 167 967 l 401 528 l 646 944 l 811 944 l 481 369 l 481 0 "},"€":{"ha":850,"x_min":0,"x_max":825,"o":"m 0 651 l 614 651 l 626 535 l 15 535 l 0 651 m 0 404 l 614 404 l 626 288 l 15 288 l 0 404 m 819 904 l 771 793 q 704 814 733 806 q 644 827 675 822 q 571 832 614 832 q 425 787 489 832 q 323 660 361 742 q 285 468 285 579 q 303 332 285 396 q 356 218 321 268 q 442 140 392 168 q 558 113 493 113 q 674 124 622 113 q 767 154 725 136 l 825 39 q 747 8 792 21 q 654 -12 701 -6 q 568 -19 607 -19 q 375 18 458 -19 q 235 123 292 56 q 151 278 179 190 q 122 467 122 367 q 154 666 122 575 q 245 824 186 757 q 388 927 304 890 q 575 964 471 964 q 646 958 603 964 q 735 940 689 953 q 819 904 782 926 "},"$":{"ha":726,"x_min":53,"x_max":688,"o":"m 217 -171 l 324 -171 l 324 -18 l 340 -18 q 374 -17 358 -18 q 407 -14 390 -15 l 407 -171 l 515 -171 l 515 10 q 643 101 599 40 q 688 239 688 161 q 667 338 688 296 q 610 414 646 381 q 526 476 574 447 q 424 532 478 504 q 312 592 360 565 q 238 648 264 618 q 211 719 211 678 q 258 802 211 775 q 375 829 306 829 q 453 822 418 829 q 519 801 489 814 q 575 775 549 789 l 626 900 q 578 922 604 911 q 522 942 551 933 l 522 1119 l 413 1103 l 413 964 q 392 966 403 965 q 369 967 381 967 q 350 966 360 967 q 331 965 340 965 l 331 1119 l 224 1103 l 224 943 q 97 854 140 914 q 53 718 53 794 q 73 622 53 664 q 128 544 93 579 q 212 480 164 510 q 315 421 260 450 q 424 365 376 392 q 500 308 472 338 q 528 239 528 279 q 506 174 528 201 q 443 133 485 147 q 339 119 401 119 q 253 130 297 119 q 171 155 210 140 q 104 182 132 169 l 68 57 q 106 37 83 47 q 158 17 129 26 q 217 1 186 8 l 217 -171 "},",":{"ha":275,"x_min":28,"x_max":233,"o":"m 138 185 q 205 153 176 185 q 233 72 233 122 q 211 -28 233 25 q 151 -126 189 -82 q 64 -197 113 -171 l 28 -124 q 86 -68 63 -94 q 118 0 110 -42 q 85 15 101 1 q 58 49 69 28 q 46 92 46 69 q 58 137 46 115 q 91 172 69 158 q 138 185 113 185 "},".":{"ha":268,"x_min":42,"x_max":226,"o":"m 136 0 q 69 26 96 0 q 42 92 42 53 q 69 158 42 131 q 136 185 96 185 q 201 158 175 185 q 226 93 226 132 q 201 26 226 53 q 136 0 175 0 "},"!":{"ha":269,"x_min":42,"x_max":226,"o":"m 74 329 l 51 975 l 217 975 l 196 272 l 74 329 m 135 185 q 200 158 174 185 q 226 93 226 132 q 199 27 226 54 q 135 0 172 0 q 69 26 96 0 q 42 92 42 53 q 69 158 42 131 q 135 185 97 185 "},"¡":{"ha":269,"x_min":42,"x_max":228,"o":"m 135 789 q 69 816 97 789 q 42 882 42 843 q 69 948 42 921 q 135 975 97 975 q 201 948 174 975 q 228 882 228 921 q 201 816 228 843 q 135 789 174 789 m 197 646 l 217 0 l 50 0 l 72 701 l 197 646 "},":":{"ha":268,"x_min":42,"x_max":226,"o":"m 135 464 q 69 492 96 464 q 42 557 42 519 q 69 622 42 594 q 135 650 96 650 q 199 623 172 650 q 226 557 226 596 q 200 491 226 518 q 135 464 174 464 m 135 13 q 69 40 96 13 q 42 106 42 67 q 69 172 42 144 q 135 199 96 199 q 199 172 172 199 q 226 106 226 144 q 200 40 226 67 q 135 13 174 13 "},";":{"ha":276,"x_min":28,"x_max":235,"o":"m 142 464 q 75 491 103 464 q 47 557 47 518 q 75 623 47 596 q 142 650 103 650 q 208 623 181 650 q 235 557 235 596 q 208 491 235 518 q 142 464 181 464 m 138 199 q 205 167 176 199 q 233 85 233 135 q 211 -16 233 36 q 151 -112 189 -68 q 64 -185 113 -157 l 28 -111 q 86 -56 63 -82 q 118 14 110 -29 q 85 27 101 14 q 58 61 69 40 q 46 104 46 82 q 58 149 46 128 q 91 184 69 169 q 138 199 113 199 "},"?":{"ha":592,"x_min":14,"x_max":550,"o":"m 276 974 q 430 943 369 974 q 520 858 490 913 q 550 731 550 803 q 520 626 550 679 q 438 526 490 574 q 315 444 385 479 l 297 235 l 185 281 l 174 525 q 340 611 275 557 q 404 728 404 665 q 368 814 404 785 q 272 843 332 843 q 160 822 221 843 q 35 756 100 800 l 14 894 q 138 953 76 933 q 276 974 200 974 m 232 185 q 299 158 271 185 q 326 92 326 132 q 299 27 326 54 q 232 0 271 0 q 166 27 193 0 q 139 92 139 54 q 166 158 139 132 q 232 185 193 185 "},"¿":{"ha":592,"x_min":42,"x_max":578,"o":"m 358 721 q 294 749 321 721 q 267 814 267 776 q 294 880 267 853 q 358 907 321 907 q 425 880 397 907 q 453 814 453 853 q 425 749 453 776 q 358 721 397 721 m 314 -67 q 162 -35 222 -67 q 72 51 101 -4 q 42 175 42 106 q 72 281 42 228 q 156 381 103 333 q 276 463 208 429 l 296 672 l 407 626 l 419 383 q 253 296 318 350 q 188 178 188 242 q 224 93 188 122 q 318 64 260 64 q 431 85 371 64 q 558 153 492 107 l 578 11 q 454 -47 517 -28 q 314 -67 392 -67 "},"*":{"ha":521,"x_min":14,"x_max":507,"o":"m 322 1067 l 322 924 l 471 957 l 507 849 l 358 819 l 461 674 l 368 601 l 261 747 l 154 601 l 60 674 l 163 818 l 14 849 l 49 957 l 197 924 l 199 1067 l 322 1067 "},"\"":{"ha":517,"x_min":28,"x_max":475,"o":"m 381 1017 q 447 985 419 1017 q 475 906 475 954 q 452 803 475 856 q 392 706 429 750 q 306 635 356 661 l 269 707 q 328 763 304 736 q 361 832 351 790 q 311 860 335 832 q 288 922 288 889 q 301 967 288 946 q 335 1003 314 989 q 381 1017 356 1017 m 136 1017 q 203 985 175 1017 q 232 906 232 954 q 210 803 232 856 q 150 706 189 750 q 64 635 111 661 l 28 707 q 85 763 61 736 q 117 832 108 790 q 84 845 101 832 q 56 880 67 858 q 44 922 44 901 q 56 967 44 946 q 90 1003 68 989 q 136 1017 111 1017 "},"'":{"ha":274,"x_min":28,"x_max":232,"o":"m 136 1017 q 203 985 175 1017 q 232 906 232 954 q 210 803 232 856 q 150 706 189 750 q 64 635 111 661 l 28 707 q 85 763 61 736 q 117 832 108 790 q 84 845 101 832 q 56 880 67 858 q 44 922 44 901 q 56 967 44 946 q 90 1003 68 989 q 136 1017 111 1017 "},"‘":{"ha":275,"x_min":35,"x_max":240,"o":"m 129 635 q 62 667 89 635 q 35 746 35 699 q 56 849 35 797 q 117 947 78 901 q 203 1017 156 992 l 240 943 q 181 889 204 915 q 150 818 157 863 q 197 791 174 819 q 221 729 221 763 q 209 684 221 706 q 176 649 197 663 q 129 635 156 635 "},"’":{"ha":274,"x_min":28,"x_max":232,"o":"m 136 1017 q 203 985 175 1017 q 232 906 232 954 q 210 803 232 856 q 150 706 189 750 q 64 635 111 661 l 28 707 q 85 763 61 736 q 117 832 108 790 q 84 845 101 832 q 56 880 67 858 q 44 922 44 901 q 56 967 44 946 q 90 1003 68 989 q 136 1017 111 1017 "},"‚":{"ha":274,"x_min":28,"x_max":232,"o":"m 136 185 q 203 153 175 185 q 232 72 232 122 q 210 -28 232 25 q 150 -126 189 -82 q 64 -197 111 -171 l 28 -124 q 85 -68 61 -94 q 117 0 108 -42 q 84 15 101 1 q 56 49 67 28 q 44 92 44 69 q 56 137 44 115 q 90 172 68 158 q 136 185 111 185 "},"“":{"ha":518,"x_min":42,"x_max":490,"o":"m 135 635 q 69 667 96 635 q 42 746 42 699 q 63 849 42 797 q 124 947 85 901 q 210 1017 163 992 l 247 943 q 188 889 211 915 q 156 818 164 863 q 204 791 181 819 q 228 729 228 763 q 216 684 228 706 q 183 649 204 663 q 135 635 163 635 m 379 635 q 313 667 340 635 q 286 746 286 699 q 307 849 286 797 q 367 947 328 901 q 453 1017 406 992 l 490 943 q 431 889 454 915 q 400 818 407 863 q 432 806 415 819 q 460 772 449 792 q 472 729 472 751 q 460 684 472 706 q 426 649 447 663 q 379 635 404 635 "},"”":{"ha":517,"x_min":28,"x_max":475,"o":"m 381 1017 q 447 985 419 1017 q 475 906 475 954 q 452 803 475 856 q 392 706 429 750 q 306 635 356 661 l 269 707 q 328 763 304 736 q 361 832 351 790 q 311 860 335 832 q 288 922 288 889 q 301 967 288 946 q 335 1003 314 989 q 381 1017 356 1017 m 136 1017 q 203 985 175 1017 q 232 906 232 954 q 210 803 232 856 q 150 706 189 750 q 64 635 111 661 l 28 707 q 85 763 61 736 q 117 832 108 790 q 84 845 101 832 q 56 880 67 858 q 44 922 44 901 q 56 967 44 946 q 90 1003 68 989 q 136 1017 111 1017 "},"„":{"ha":517,"x_min":28,"x_max":475,"o":"m 136 183 q 203 153 175 183 q 232 72 232 122 q 210 -28 232 25 q 150 -126 189 -82 q 64 -197 111 -171 l 28 -124 q 85 -68 61 -94 q 117 0 108 -42 q 84 15 101 1 q 56 49 67 28 q 44 92 44 69 q 56 136 44 115 q 90 170 68 157 q 136 183 111 183 m 381 185 q 447 153 419 185 q 475 72 475 122 q 452 -28 475 25 q 392 -126 429 -82 q 306 -197 356 -171 l 269 -124 q 328 -68 304 -94 q 361 0 351 -42 q 311 29 335 1 q 288 92 288 57 q 301 137 288 115 q 335 172 314 158 q 381 185 356 185 "},"·":{"ha":268,"x_min":42,"x_max":226,"o":"m 136 271 q 69 298 96 271 q 42 364 42 325 q 69 429 42 403 q 136 456 96 456 q 201 429 175 456 q 226 364 226 403 q 201 298 226 325 q 136 271 175 271 "},"(":{"ha":407,"x_min":69,"x_max":365,"o":"m 364 -8 l 243 -53 q 149 101 188 19 q 90 270 110 183 q 69 444 69 357 q 90 615 69 531 q 148 783 110 700 q 243 944 186 865 l 365 900 q 309 805 336 861 q 260 685 282 749 q 227 560 239 622 q 215 446 215 497 q 227 331 215 394 q 260 202 239 267 q 308 82 281 138 q 364 -8 335 26 "},")":{"ha":407,"x_min":42,"x_max":338,"o":"m 42 897 l 164 944 q 257 790 218 872 q 317 620 296 707 q 338 444 338 533 q 317 276 338 361 q 257 108 296 192 q 163 -53 218 25 l 42 -10 q 98 86 71 31 q 146 206 125 142 q 178 332 167 269 q 190 444 190 394 q 178 561 190 497 q 146 690 167 625 q 98 809 125 754 q 42 897 71 864 "},"[":{"ha":471,"x_min":139,"x_max":457,"o":"m 139 -122 l 139 967 l 457 967 l 433 844 l 292 844 l 292 -3 l 433 -3 l 457 -122 l 139 -122 "},"]":{"ha":471,"x_min":14,"x_max":332,"o":"m 332 967 l 332 -122 l 14 -122 l 35 -3 l 176 -3 l 176 844 l 35 844 l 14 967 l 332 967 "},"{":{"ha":397,"x_min":42,"x_max":383,"o":"m 244 429 q 288 370 274 407 q 303 286 303 333 q 297 242 303 264 q 279 197 290 219 q 261 151 268 172 q 254 107 254 129 q 270 76 254 92 q 318 61 286 61 l 368 61 l 383 -58 l 325 -58 q 172 -14 221 -58 q 124 110 124 31 q 130 153 124 129 q 146 203 136 176 q 164 257 157 231 q 171 303 171 283 q 149 355 171 335 q 100 375 126 375 l 42 375 l 42 479 l 100 479 q 147 502 128 479 q 167 558 167 525 q 160 607 167 579 q 143 665 153 635 q 130 713 135 690 q 125 754 125 735 q 175 873 125 831 q 325 915 225 915 l 383 915 l 368 796 l 318 796 q 269 780 285 796 q 254 750 254 764 q 261 710 254 731 q 278 667 268 689 q 296 620 289 643 q 303 571 303 597 q 290 485 303 519 q 244 429 276 451 "},"}":{"ha":396,"x_min":13,"x_max":354,"o":"m 150 426 q 108 487 122 450 q 93 569 93 524 q 99 615 93 593 q 117 660 106 638 q 135 706 128 685 q 142 749 142 728 q 126 780 142 764 q 76 796 110 796 l 28 796 l 13 915 l 71 915 q 224 871 175 915 q 272 746 272 826 q 265 703 272 728 q 249 653 258 679 q 233 599 240 624 q 225 554 225 574 q 247 501 225 522 q 296 481 269 481 l 354 481 l 354 378 l 296 378 q 249 355 268 378 q 229 297 229 332 q 237 249 229 278 q 253 190 244 221 q 265 144 261 167 q 269 101 269 121 q 219 -17 269 25 q 71 -58 169 -58 l 13 -58 l 28 61 l 76 61 q 126 76 111 61 q 142 107 142 92 q 135 147 142 126 q 118 190 128 167 q 100 237 107 214 q 93 286 93 260 q 106 372 93 338 q 150 426 119 406 "},"/":{"ha":606,"x_min":14,"x_max":592,"o":"m 432 986 l 592 981 l 174 -6 l 14 0 l 432 986 "},"\\":{"ha":606,"x_min":14,"x_max":592,"o":"m 592 0 l 432 -6 l 14 981 l 174 986 l 592 0 "},"|":{"ha":399,"x_min":122,"x_max":276,"o":"m 122 989 l 276 976 l 276 -11 l 122 0 l 122 989 "},"¦":{"ha":399,"x_min":122,"x_max":276,"o":"m 122 989 l 276 976 l 276 564 l 122 576 l 122 989 m 122 411 l 276 400 l 276 -11 l 122 0 l 122 411 "},"«":{"ha":543,"x_min":42,"x_max":515,"o":"m 269 307 l 269 374 l 486 565 l 515 461 l 389 340 l 515 219 l 486 115 l 269 307 m 42 307 l 42 374 l 257 565 l 288 461 l 160 340 l 288 219 l 257 115 l 42 307 "},"»":{"ha":546,"x_min":28,"x_max":504,"o":"m 274 374 l 274 307 l 60 115 l 28 219 l 156 340 l 28 461 l 60 565 l 274 374 m 504 374 l 504 307 l 289 115 l 257 219 l 386 340 l 257 461 l 289 565 l 504 374 "},"π":{"ha":886,"x_min":14,"x_max":872,"o":"m 310 0 l 154 0 l 154 551 l 14 551 l 14 674 l 872 674 l 872 551 l 732 551 l 732 0 l 575 0 l 575 551 l 310 551 l 310 0 "},"†":{"ha":594,"x_min":42,"x_max":553,"o":"m 215 1088 l 383 1083 l 383 868 l 526 868 l 553 725 l 383 725 l 368 -6 l 229 0 l 215 725 l 68 725 l 42 868 l 215 868 l 215 1088 "},"‡":{"ha":607,"x_min":42,"x_max":565,"o":"m 393 1 l 213 -8 l 219 225 l 68 225 l 42 368 l 215 368 l 219 710 l 68 710 l 42 853 l 222 853 l 215 1088 l 396 1083 l 390 853 l 540 853 l 565 710 l 392 710 l 390 368 l 540 368 l 565 225 l 388 225 l 393 1 "},"•":{"ha":367,"x_min":42,"x_max":325,"o":"m 183 317 q 112 335 144 317 q 60 386 79 354 q 42 457 42 418 q 60 528 42 496 q 111 578 79 560 q 182 597 143 597 q 254 578 222 597 q 306 528 286 560 q 325 457 325 496 q 306 386 325 418 q 254 335 286 354 q 183 317 222 317 "},"…":{"ha":713,"x_min":42,"x_max":671,"o":"m 128 0 q 67 24 92 0 q 42 85 42 49 q 67 144 42 119 q 128 169 92 169 q 188 144 164 169 q 213 85 213 119 q 188 24 213 49 q 128 0 164 0 m 360 0 q 299 24 324 0 q 274 85 274 49 q 299 144 274 119 q 360 169 324 169 q 419 144 394 169 q 443 85 443 119 q 419 24 443 49 q 360 0 394 0 m 588 0 q 526 24 551 0 q 501 85 501 49 q 526 144 501 119 q 588 169 551 169 q 647 144 622 169 q 671 85 671 119 q 647 24 671 49 q 588 0 622 0 "},"‹":{"ha":315,"x_min":42,"x_max":288,"o":"m 42 307 l 42 374 l 257 567 l 288 456 l 165 340 l 288 225 l 257 115 l 42 307 "},"›":{"ha":315,"x_min":28,"x_max":274,"o":"m 274 374 l 274 307 l 58 115 l 28 225 l 149 340 l 28 456 l 58 567 l 274 374 "},"-":{"ha":456,"x_min":42,"x_max":414,"o":"m 400 442 l 414 318 l 56 318 l 42 442 l 400 442 "},"_":{"ha":613,"x_min":42,"x_max":571,"o":"m 558 122 l 571 0 l 56 0 l 42 122 l 558 122 "},"–":{"ha":613,"x_min":42,"x_max":571,"o":"m 558 440 l 571 318 l 56 318 l 42 440 l 558 440 "},"—":{"ha":757,"x_min":42,"x_max":715,"o":"m 704 440 l 715 318 l 56 318 l 42 440 l 704 440 "},"#":{"ha":781,"x_min":42,"x_max":739,"o":"m 560 715 l 693 713 l 656 553 l 725 553 l 739 436 l 629 436 l 590 272 l 725 272 l 739 156 l 564 156 l 526 -15 l 394 -7 l 431 156 l 258 156 l 219 -15 l 88 -7 l 124 156 l 56 156 l 42 272 l 151 272 l 189 436 l 56 436 l 42 553 l 217 553 l 254 715 l 388 713 l 349 553 l 522 553 l 560 715 m 494 436 l 324 436 l 286 272 l 457 272 l 494 436 "},"%":{"ha":1261,"x_min":39,"x_max":1222,"o":"m 758 986 l 915 981 l 497 -6 l 340 0 l 758 986 m 265 975 q 378 947 326 975 q 461 867 429 919 q 493 739 493 814 q 460 614 493 667 q 376 533 428 561 q 265 504 325 504 q 153 532 206 504 q 70 613 101 560 q 39 739 39 665 q 72 864 39 811 q 156 946 104 917 q 265 975 207 975 m 265 860 q 222 847 243 860 q 187 808 200 833 q 174 740 174 782 q 200 648 174 678 q 265 618 226 618 q 310 631 289 618 q 344 671 331 644 q 357 739 357 697 q 330 830 357 800 q 265 860 303 860 m 999 469 q 1110 442 1058 469 q 1192 363 1161 415 q 1222 235 1222 310 q 1190 110 1222 163 q 1108 28 1158 57 q 999 0 1057 0 q 887 27 939 0 q 803 107 835 54 q 771 235 771 160 q 803 360 771 308 q 888 441 835 413 q 999 469 940 469 m 999 356 q 954 343 975 356 q 919 303 933 331 q 904 236 904 276 q 931 143 904 174 q 999 113 958 113 q 1042 126 1022 113 q 1076 167 1063 140 q 1089 235 1089 194 q 1062 325 1089 294 q 999 356 1035 356 "},"+":{"ha":746,"x_min":42,"x_max":704,"o":"m 690 440 l 704 321 l 451 321 l 451 6 l 306 11 l 306 321 l 53 321 l 42 440 l 306 440 l 306 742 l 451 738 l 451 440 l 690 440 "},"÷":{"ha":703,"x_min":42,"x_max":661,"o":"m 350 500 q 279 529 308 500 q 250 599 250 558 q 279 669 250 640 q 350 699 308 699 q 421 669 392 699 q 450 599 450 640 q 421 529 450 558 q 350 500 392 500 m 647 442 l 661 318 l 54 318 l 42 442 l 647 442 m 351 44 q 281 74 310 44 q 251 146 251 104 q 281 217 251 188 q 351 246 310 246 q 422 217 392 246 q 451 146 451 188 q 422 74 451 104 q 351 44 392 44 "},"×":{"ha":761,"x_min":42,"x_max":719,"o":"m 454 351 l 719 665 l 560 665 l 382 463 l 224 665 l 64 665 l 306 354 l 42 42 l 201 42 l 379 244 l 538 42 l 697 42 l 454 351 "},"±":{"ha":658,"x_min":42,"x_max":618,"o":"m 606 524 l 618 415 l 400 415 l 400 183 l 265 190 l 265 415 l 54 415 l 42 524 l 265 524 l 265 742 l 400 738 l 400 524 l 606 524 m 611 110 l 617 0 l 54 0 l 44 110 l 611 110 "},"<":{"ha":474,"x_min":42,"x_max":446,"o":"m 446 154 l 414 26 l 42 301 l 42 379 l 414 653 l 446 526 l 196 340 l 446 154 "},"=":{"ha":710,"x_min":42,"x_max":668,"o":"m 656 553 l 668 436 l 56 436 l 42 553 l 656 553 m 656 272 l 668 156 l 56 156 l 42 272 l 656 272 "},">":{"ha":474,"x_min":28,"x_max":432,"o":"m 432 378 l 432 300 l 60 26 l 28 153 l 278 340 l 28 525 l 60 653 l 432 378 "},"°":{"ha":350,"x_min":14,"x_max":336,"o":"m 176 997 q 256 976 219 997 q 315 921 293 956 q 336 843 336 886 q 315 765 336 800 q 256 710 293 729 q 176 690 219 690 q 96 710 133 690 q 36 765 58 729 q 14 843 14 800 q 36 921 14 886 q 96 976 58 956 q 176 997 133 997 m 203 804 q 219 835 217 815 q 211 868 222 854 q 182 885 200 883 q 149 878 164 888 q 132 848 135 867 q 140 815 129 829 q 169 797 151 800 q 203 804 188 794 "},"¹":{"ha":407,"x_min":14,"x_max":313,"o":"m 313 467 l 172 467 l 172 917 l 69 868 l 14 967 l 221 1061 l 313 1061 l 313 467 "},"²":{"ha":510,"x_min":21,"x_max":482,"o":"m 242 1071 q 369 1042 321 1071 q 441 972 418 1014 q 464 886 464 929 q 429 773 464 825 q 318 657 394 721 l 221 576 l 465 576 l 482 467 l 35 467 l 35 568 l 232 732 q 299 808 278 772 q 321 888 321 843 q 310 920 321 904 q 281 946 300 936 q 235 956 263 956 q 174 947 204 956 q 119 928 144 939 q 72 906 93 917 l 21 1008 q 74 1035 42 1021 q 148 1060 106 1049 q 242 1071 190 1071 "},"³":{"ha":508,"x_min":0,"x_max":463,"o":"m 235 1071 q 398 1017 344 1071 q 451 892 451 964 q 438 829 451 858 q 403 779 425 800 q 358 749 382 758 q 408 722 383 744 q 447 666 432 700 q 463 589 463 632 q 433 486 463 532 q 349 413 404 440 q 219 386 294 386 q 103 404 161 386 q 0 450 44 422 l 60 549 q 131 513 100 525 q 207 501 163 501 q 265 512 240 501 q 306 542 290 522 q 321 588 321 563 q 288 665 321 639 q 185 692 254 692 l 147 692 l 132 800 l 192 800 q 263 814 238 800 q 298 849 288 828 q 308 890 308 869 q 285 938 308 919 q 215 956 263 956 q 135 939 168 956 q 75 903 101 922 l 18 1000 q 119 1051 67 1031 q 235 1071 171 1071 "},"¼":{"ha":1204,"x_min":14,"x_max":1176,"o":"m 313 467 l 172 467 l 172 917 l 69 868 l 14 967 l 221 1061 l 313 1061 l 313 467 m 1176 4 l 1164 -111 l 1056 -111 l 1056 -228 l 914 -228 l 914 -111 l 626 -111 l 613 4 l 957 446 l 1056 446 l 1056 4 l 1176 4 m 914 204 l 757 4 l 914 4 l 914 204 m 828 972 l 993 972 l 228 -186 l 63 -186 l 828 972 "},"½":{"ha":1228,"x_min":14,"x_max":1200,"o":"m 313 467 l 172 467 l 172 917 l 69 868 l 14 967 l 221 1061 l 313 1061 l 313 467 m 960 451 q 1088 423 1039 451 q 1159 352 1136 394 q 1182 267 1182 310 q 1147 153 1182 206 q 1036 38 1113 101 l 939 -43 l 1183 -43 l 1200 -153 l 753 -153 l 753 -51 l 950 113 q 1017 188 996 153 q 1039 268 1039 224 q 1028 301 1039 285 q 999 326 1018 317 q 953 336 981 336 q 892 328 922 336 q 837 308 863 319 q 790 286 811 297 l 739 389 q 792 415 760 401 q 866 440 824 429 q 960 451 908 451 m 821 972 l 986 972 l 221 -186 l 56 -186 l 821 972 "},"¾":{"ha":1200,"x_min":0,"x_max":1172,"o":"m 235 1071 q 398 1017 344 1071 q 451 892 451 964 q 438 829 451 858 q 403 779 425 800 q 358 749 382 758 q 408 722 383 744 q 447 666 432 700 q 463 589 463 632 q 433 486 463 532 q 349 413 404 440 q 219 386 294 386 q 103 404 161 386 q 0 450 44 422 l 60 549 q 131 513 100 525 q 207 501 163 501 q 265 512 240 501 q 306 542 290 522 q 321 588 321 563 q 288 665 321 639 q 185 692 254 692 l 147 692 l 132 800 l 192 800 q 263 814 238 800 q 298 849 288 828 q 308 890 308 869 q 285 938 308 919 q 215 956 263 956 q 135 939 168 956 q 75 903 101 922 l 18 1000 q 119 1051 67 1031 q 235 1071 171 1071 m 893 972 l 1058 972 l 293 -186 l 128 -186 l 893 972 m 1174 4 l 1161 -111 l 1053 -111 l 1053 -228 l 911 -228 l 911 -111 l 624 -111 l 610 4 l 954 446 l 1053 446 l 1053 4 l 1174 4 m 911 204 l 754 4 l 911 4 l 911 204 "},"℮":{"ha":707,"x_min":39,"x_max":669,"o":"m 669 296 l 203 296 q 233 201 210 242 q 301 138 256 161 q 418 115 346 115 q 522 132 476 115 q 617 175 567 149 l 664 61 q 594 22 632 40 q 513 -7 557 3 q 415 -17 468 -17 q 207 27 292 -17 q 81 151 122 71 q 39 336 39 231 q 78 523 39 443 q 192 647 118 603 q 369 692 267 692 q 541 642 474 692 q 639 509 608 592 q 669 328 669 426 l 669 296 m 206 401 l 519 401 q 491 486 511 451 q 440 540 471 521 q 364 558 408 558 q 287 540 321 558 q 233 486 253 521 q 206 401 213 451 "},"∂":{"ha":772,"x_min":39,"x_max":735,"o":"m 735 361 q 693 163 735 249 q 574 31 651 78 q 385 -18 496 -17 q 200 26 278 -18 q 81 151 122 71 q 39 336 39 231 q 81 524 39 444 q 201 647 124 603 q 381 692 278 692 q 488 672 435 692 q 588 619 542 653 q 663 546 633 586 l 599 465 q 546 513 575 492 q 478 546 517 533 q 388 558 439 558 q 289 529 332 558 q 223 450 246 500 q 199 338 200 400 q 221 224 199 274 q 286 145 243 174 q 386 117 329 117 q 486 146 444 117 q 551 225 528 175 q 574 338 574 275 q 544 519 574 433 q 457 681 515 606 q 311 817 399 756 q 106 928 224 879 l 160 1042 q 388 932 283 1001 q 571 772 493 863 q 692 577 649 682 q 735 361 735 472 "},"∏":{"ha":907,"x_min":122,"x_max":785,"o":"m 122 0 l 122 944 l 785 944 l 785 0 l 629 0 l 629 825 l 275 825 l 275 0 l 122 0 "},"∑":{"ha":667,"x_min":42,"x_max":639,"o":"m 560 944 l 583 822 l 214 822 l 432 507 l 432 453 l 208 122 l 615 122 l 639 0 l 42 0 l 42 122 l 289 478 l 46 822 l 46 944 l 560 944 "},"−":{"ha":665,"x_min":42,"x_max":624,"o":"m 607 440 l 624 318 l 53 318 l 42 440 l 607 440 "},"√":{"ha":840,"x_min":14,"x_max":826,"o":"m 669 986 l 826 981 l 417 -6 l 249 0 l 14 440 l 174 446 l 326 165 l 669 986 "},"∞":{"ha":1143,"x_min":39,"x_max":1104,"o":"m 335 646 q 429 631 385 646 q 513 590 474 617 q 582 525 551 563 q 640 588 607 560 q 715 631 674 615 q 804 647 757 647 q 959 610 892 647 q 1065 509 1026 574 q 1104 358 1104 444 q 1066 204 1104 274 q 961 94 1028 135 q 807 54 894 54 q 714 69 758 54 q 631 111 669 83 q 561 176 593 139 q 501 114 535 142 q 427 69 468 86 q 339 53 386 53 q 183 90 250 53 q 77 192 115 126 q 39 340 39 257 q 77 494 39 425 q 183 605 115 564 q 335 646 250 646 m 622 299 q 671 240 643 265 q 732 199 699 214 q 803 183 765 185 q 890 208 853 183 q 945 273 926 232 q 964 361 964 314 q 945 440 964 404 q 890 498 926 476 q 804 519 853 519 q 745 504 772 519 q 696 463 718 489 q 657 402 674 436 q 631 328 640 368 l 622 299 m 519 401 q 474 460 501 435 q 411 501 446 486 q 339 515 376 515 q 254 491 290 515 q 198 427 218 467 q 178 339 178 388 q 198 260 178 296 q 254 201 218 224 q 338 179 290 179 q 399 194 371 179 q 448 237 426 210 q 485 299 469 264 q 511 372 501 333 l 519 401 "},"∫":{"ha":544,"x_min":0,"x_max":544,"o":"m 349 836 l 349 -12 q 323 -137 349 -85 q 245 -219 297 -190 q 118 -249 193 -249 q 74 -244 97 -249 q 33 -230 51 -239 q 0 -212 14 -221 l 42 -99 q 74 -108 57 -103 q 107 -112 90 -112 q 175 -79 157 -112 q 193 4 193 -46 l 193 853 q 220 978 193 926 q 299 1059 247 1031 q 425 1088 350 1088 q 468 1083 446 1088 q 511 1070 490 1078 q 544 1051 532 1063 l 500 938 q 468 949 483 944 q 435 953 453 953 q 368 920 388 953 q 349 836 349 888 "},"≈":{"ha":725,"x_min":42,"x_max":683,"o":"m 564 592 l 683 565 q 665 481 683 513 q 618 432 647 449 q 557 410 589 415 q 496 404 525 404 q 438 412 469 404 q 369 433 406 419 q 221 463 292 463 q 196 457 211 463 q 171 439 181 451 q 160 403 161 426 l 42 428 q 60 515 42 483 q 107 563 78 546 q 168 584 136 579 q 228 589 200 589 q 360 560 276 589 q 438 538 404 544 q 504 531 472 531 q 528 537 515 532 q 551 556 540 542 q 564 592 563 569 m 564 321 l 683 296 q 665 211 683 243 q 618 163 647 179 q 557 140 589 146 q 496 133 525 133 q 438 141 469 133 q 369 164 406 149 q 221 192 292 192 q 196 187 211 192 q 171 169 181 182 q 160 135 161 157 l 42 158 q 60 242 42 211 q 107 291 78 274 q 168 315 136 308 q 228 321 200 321 q 360 290 276 321 q 438 268 404 275 q 504 261 472 261 q 528 267 515 263 q 551 286 540 272 q 564 321 563 300 "},"≠":{"ha":710,"x_min":42,"x_max":668,"o":"m 447 722 l 589 718 l 515 553 l 657 553 l 668 436 l 465 436 l 393 272 l 657 272 l 668 156 l 340 156 l 260 -21 l 122 -14 l 197 156 l 57 156 l 42 272 l 247 272 l 322 436 l 57 436 l 42 553 l 372 553 l 447 722 "},"≤":{"ha":494,"x_min":42,"x_max":467,"o":"m 467 282 l 438 153 l 42 375 l 42 474 l 438 697 l 467 569 l 214 425 l 467 282 m 457 111 l 464 0 l 53 0 l 43 111 l 457 111 "},"≥":{"ha":496,"x_min":28,"x_max":454,"o":"m 454 475 l 454 375 l 60 153 l 28 282 l 282 425 l 28 568 l 60 697 l 454 475 m 442 111 l 450 0 l 38 0 l 29 111 l 442 111 "},"‰":{"ha":1788,"x_min":39,"x_max":1749,"o":"m 760 986 l 917 981 l 500 -6 l 343 0 l 760 986 m 265 975 q 378 947 326 975 q 461 867 429 919 q 493 739 493 814 q 460 614 493 667 q 376 533 428 561 q 265 504 325 504 q 153 532 206 504 q 70 613 101 560 q 39 739 39 665 q 72 864 39 811 q 156 946 104 917 q 265 975 207 975 m 265 860 q 222 847 243 860 q 187 808 200 833 q 174 740 174 782 q 200 648 174 678 q 265 618 226 618 q 310 631 289 618 q 344 671 331 644 q 357 739 357 697 q 330 830 357 800 q 265 860 303 860 m 1524 469 q 1634 442 1583 469 q 1717 363 1685 415 q 1749 235 1749 310 q 1717 110 1749 163 q 1633 28 1685 57 q 1524 0 1581 0 q 1410 27 1463 0 q 1326 107 1358 54 q 1294 235 1294 160 q 1326 360 1294 308 q 1411 441 1358 413 q 1524 469 1464 469 m 999 469 q 1110 442 1058 469 q 1192 363 1161 415 q 1222 235 1222 310 q 1190 110 1222 163 q 1108 28 1158 57 q 999 0 1057 0 q 887 27 939 0 q 803 107 835 54 q 771 235 771 160 q 803 360 771 308 q 888 441 835 413 q 999 469 940 469 m 1524 356 q 1479 343 1501 356 q 1443 303 1457 331 q 1429 236 1429 276 q 1457 143 1429 174 q 1524 113 1485 113 q 1567 126 1547 113 q 1601 167 1588 140 q 1614 235 1614 194 q 1587 325 1614 294 q 1524 356 1560 356 m 999 356 q 954 343 975 356 q 919 303 933 331 q 904 236 904 276 q 931 143 904 174 q 999 113 958 113 q 1042 126 1022 113 q 1076 167 1063 140 q 1089 235 1089 194 q 1062 325 1089 294 q 999 356 1035 356 "},"⁄":{"ha":606,"x_min":-162,"x_max":768,"o":"m 603 972 l 768 972 l 3 -186 l -162 -186 l 603 972 "},"◊":{"ha":785,"x_min":42,"x_max":743,"o":"m 424 0 l 361 0 l 42 393 l 42 439 l 361 832 l 424 832 l 743 439 l 743 393 l 424 0 m 392 661 l 196 415 l 392 172 l 588 415 l 392 661 "},"©":{"ha":1132,"x_min":39,"x_max":1094,"o":"m 1094 467 q 1057 264 1094 358 q 951 97 1019 169 q 784 -15 882 25 q 565 -54 686 -54 q 347 -15 443 -54 q 181 97 250 25 q 76 263 113 168 q 39 467 39 358 q 76 671 39 576 q 181 838 113 765 q 346 949 249 910 q 565 989 443 989 q 784 949 686 989 q 951 837 882 908 q 1058 671 1021 765 q 1094 467 1094 576 m 146 468 q 197 251 146 349 q 342 97 247 153 q 565 40 436 40 q 790 97 696 40 q 935 250 883 153 q 986 468 986 347 q 935 687 986 590 q 790 840 883 783 q 565 896 696 896 q 342 840 438 896 q 197 687 247 783 q 146 468 146 590 m 590 143 q 419 184 490 143 q 312 299 349 225 q 275 469 275 372 q 315 640 275 568 q 426 753 356 713 q 592 793 497 793 q 656 787 619 793 q 731 767 692 781 q 797 733 769 753 l 754 617 q 702 640 726 631 q 652 655 678 650 q 593 660 626 660 q 506 637 542 660 q 453 571 471 614 q 436 471 436 528 q 475 326 436 378 q 592 275 514 275 q 676 288 642 275 q 751 321 711 300 l 796 206 q 729 171 768 185 q 653 150 690 157 q 590 143 617 143 "},"®":{"ha":1008,"x_min":39,"x_max":969,"o":"m 969 678 q 913 444 969 549 q 753 278 857 339 q 506 217 649 217 q 257 278 363 217 q 95 444 151 339 q 39 678 39 549 q 95 912 39 807 q 257 1078 151 1017 q 504 1139 363 1139 q 753 1078 649 1139 q 913 912 857 1017 q 969 678 969 807 m 138 678 q 181 489 138 572 q 308 357 225 406 q 504 307 390 308 q 699 357 618 308 q 825 489 781 406 q 869 678 869 572 q 826 869 869 785 q 700 1001 782 953 q 504 1049 618 1049 q 308 1001 390 1049 q 182 869 226 953 q 138 678 138 786 m 482 853 l 435 853 l 435 717 l 481 717 q 539 722 514 717 q 579 741 564 726 q 594 783 594 756 q 581 830 594 815 q 542 849 567 844 q 482 853 517 853 m 739 422 l 613 422 l 517 626 q 499 626 507 626 q 479 626 490 626 l 435 626 l 435 422 l 322 422 l 322 944 l 513 944 q 613 928 568 944 q 685 878 658 911 q 713 789 713 844 q 685 702 713 736 q 621 650 658 668 l 739 422 "},"™":{"ha":1046,"x_min":14,"x_max":993,"o":"m 450 944 l 464 856 l 289 856 l 289 424 l 176 424 l 176 856 l 14 856 l 14 944 l 450 944 m 783 567 l 749 560 l 632 703 l 632 424 l 518 424 l 518 944 l 571 944 l 765 706 l 942 944 l 993 944 l 993 424 l 881 424 l 881 692 l 783 567 "},"&":{"ha":942,"x_min":53,"x_max":903,"o":"m 593 185 l 347 410 q 317 438 332 424 q 289 467 303 453 q 235 394 254 436 q 215 303 217 351 q 244 200 215 240 q 320 141 274 160 q 418 122 367 122 q 515 139 471 122 q 593 185 560 156 m 813 -15 l 704 83 q 581 10 651 36 q 418 -17 510 -17 q 234 20 317 -15 q 102 126 151 56 q 53 300 53 196 q 91 453 53 381 q 192 572 129 525 q 161 634 172 601 q 150 706 150 667 q 185 835 150 776 q 283 931 219 894 q 433 967 347 967 q 565 947 503 967 q 681 900 628 928 l 626 776 q 541 815 585 797 q 435 832 497 832 q 369 815 396 832 q 326 772 342 797 q 311 714 311 746 q 325 651 311 681 q 365 592 339 622 q 433 524 392 563 l 674 304 q 704 403 692 349 q 719 519 717 457 l 857 464 q 836 322 853 389 q 792 197 819 254 l 903 99 l 813 -15 "},"@":{"ha":1063,"x_min":39,"x_max":1024,"o":"m 767 539 l 735 261 q 748 220 732 233 q 778 207 764 207 q 834 232 808 207 q 876 305 860 257 q 893 418 893 353 q 853 569 893 503 q 744 672 814 635 q 582 710 674 710 q 432 682 504 710 q 303 601 360 654 q 213 474 246 549 q 179 308 179 400 q 225 138 179 210 q 346 27 271 65 q 510 -11 421 -11 q 584 -6 544 -11 q 663 10 624 -1 q 739 38 703 21 l 779 -79 q 636 -127 708 -117 q 494 -137 564 -137 q 328 -107 410 -137 q 181 -17 246 -76 q 77 124 115 42 q 39 308 39 207 q 77 510 39 415 q 186 678 115 604 q 358 793 257 751 q 585 835 460 835 q 760 803 681 835 q 899 717 839 772 q 991 588 958 663 q 1024 425 1024 513 q 1004 276 1024 340 q 951 169 985 213 q 871 105 917 126 q 769 83 825 83 q 709 94 738 83 q 658 122 681 104 q 602 97 635 108 q 538 86 569 86 q 355 147 414 86 q 296 306 296 208 q 322 424 296 371 q 393 515 347 478 q 496 573 439 553 q 614 593 553 593 l 722 593 l 767 539 m 535 206 q 576 215 557 206 q 606 240 594 224 q 603 256 604 247 q 606 274 603 265 l 632 479 l 618 479 q 527 458 569 478 q 460 400 485 439 q 435 306 435 361 q 444 258 435 282 q 475 220 453 235 q 535 206 497 206 "},"^":{"ha":615,"x_min":14,"x_max":601,"o":"m 308 389 l 174 199 l 14 199 l 257 542 l 360 542 l 601 199 l 442 199 l 308 389 "},"~":{"ha":631,"x_min":42,"x_max":589,"o":"m 42 250 q 65 370 42 325 q 125 435 88 415 q 206 454 163 454 q 270 447 243 454 q 319 429 297 440 q 363 413 342 419 q 408 406 383 406 q 436 417 421 406 q 453 460 451 429 l 589 460 q 566 340 589 386 q 506 274 543 294 q 426 254 469 254 q 362 261 389 254 q 313 279 335 268 q 268 297 290 292 q 221 303 246 303 q 194 292 207 303 q 178 250 181 282 l 42 250 "},"§":{"ha":822,"x_min":53,"x_max":783,"o":"m 590 121 l 504 249 q 594 285 565 258 q 624 356 624 313 q 596 425 624 396 q 520 481 568 454 q 411 538 472 508 q 307 597 354 568 q 224 661 260 626 q 169 738 189 696 q 149 835 149 781 q 186 962 149 906 q 295 1051 224 1018 q 465 1083 367 1083 q 606 1063 538 1083 q 724 1017 674 1042 l 672 892 q 616 917 646 906 q 551 938 586 929 q 472 946 515 946 q 356 919 403 946 q 308 836 308 892 q 334 765 308 794 q 408 708 360 735 q 521 649 456 682 q 622 591 575 619 q 706 529 669 563 q 763 453 742 496 q 783 356 783 411 q 762 255 783 301 q 697 174 740 208 q 590 121 653 140 m 68 -90 l 104 35 q 171 7 132 22 q 253 -18 210 -8 q 339 -28 297 -28 q 443 -14 401 -28 q 506 27 485 0 q 528 92 528 54 q 500 161 528 132 q 424 217 472 190 q 315 274 376 244 q 212 333 260 304 q 128 397 164 363 q 73 474 93 432 q 53 571 53 517 q 73 667 53 622 q 134 744 93 711 q 231 799 175 778 l 322 675 q 242 642 274 667 q 211 572 211 617 q 238 501 211 531 q 312 444 264 471 q 424 385 360 418 q 526 327 478 356 q 610 265 574 299 q 667 190 646 232 q 688 92 688 147 q 647 -41 688 17 q 529 -132 606 -99 q 340 -165 453 -165 q 272 -158 311 -165 q 194 -141 233 -151 q 121 -117 154 -131 q 68 -90 88 -104 "},"ª":{"ha":456,"x_min":39,"x_max":418,"o":"m 157 656 q 169 626 157 639 q 204 614 181 614 q 255 624 231 614 q 300 651 279 633 l 300 699 l 219 699 q 174 688 190 699 q 157 656 157 676 m 92 835 l 64 935 q 108 955 81 946 q 166 969 136 964 q 221 975 196 975 q 326 953 282 975 q 394 893 369 931 q 418 808 418 856 l 418 515 l 353 515 l 324 556 q 267 520 300 536 q 200 504 235 504 q 80 545 121 504 q 39 649 39 586 q 87 756 39 717 q 208 794 135 794 l 296 794 l 296 800 q 275 845 293 826 q 222 864 257 864 q 152 854 188 864 q 92 835 117 844 "},"¬":{"ha":714,"x_min":14,"x_max":672,"o":"m 661 564 l 672 494 l 672 156 l 539 163 l 539 442 l 25 442 l 14 564 l 661 564 "},"¶":{"ha":1228,"x_min":39,"x_max":1190,"o":"m 611 0 l 456 0 l 456 339 l 418 339 q 274 357 343 339 q 153 413 206 375 q 69 508 100 450 q 39 646 39 567 q 88 819 39 753 q 219 915 136 885 q 403 944 301 944 l 1190 944 l 1190 821 l 1058 821 l 1058 0 l 901 0 l 901 821 l 611 821 l 611 0 "},"º":{"ha":535,"x_min":38,"x_max":497,"o":"m 265 975 q 389 945 338 975 q 469 863 440 915 q 497 738 497 810 q 467 614 497 667 q 384 533 438 561 q 261 504 331 504 q 142 533 192 504 q 65 615 92 561 q 38 739 38 668 q 67 864 38 811 q 147 946 96 917 q 265 975 199 975 m 268 865 q 221 853 243 865 q 185 813 199 840 q 172 739 172 785 q 197 645 172 676 q 263 614 221 614 q 315 627 293 614 q 349 667 336 640 q 361 738 361 694 q 338 832 361 799 q 268 865 314 865 "},"ழ":{"ha":1211,"x_min":122,"x_max":1144,"o":"m 671 53 l 671 -37 q 697 -117 671 -94 q 765 -139 722 -139 l 971 -139 l 992 -247 l 754 -247 q 688 -337 731 -297 q 585 -398 644 -376 q 457 -419 526 -419 q 305 -387 371 -419 q 201 -297 239 -356 q 164 -164 164 -239 l 304 -164 q 349 -262 304 -225 q 457 -300 393 -300 q 564 -274 524 -300 q 621 -211 604 -247 q 556 -151 581 -192 q 531 -56 531 -111 l 531 14 l 671 53 m 261 110 l 835 110 q 936 138 900 110 q 985 215 972 165 q 999 326 999 264 q 977 477 999 411 q 915 581 956 543 q 813 619 874 619 q 705 568 739 619 q 671 421 671 517 l 671 26 l 531 14 l 531 425 q 563 592 531 522 q 659 700 596 663 q 811 738 722 738 q 991 684 917 738 q 1105 538 1065 631 q 1144 326 1144 446 q 1112 157 1144 231 q 1011 42 1079 83 q 835 0 943 0 l 122 0 l 122 713 l 261 719 l 261 110 "},"ய":{"ha":1326,"x_min":108,"x_max":1204,"o":"m 1204 713 l 1064 713 l 1064 110 l 703 110 l 703 713 l 563 713 l 563 0 l 1204 0 l 1204 713 m 108 713 l 108 278 q 140 117 108 185 q 235 12 172 49 q 389 -25 299 -25 q 530 18 468 -25 q 627 138 592 61 q 663 311 663 214 l 563 311 q 522 155 563 217 q 393 93 481 93 q 283 142 318 93 q 247 281 247 190 l 247 719 l 108 713 "},"௭":{"ha":1099,"x_min":67,"x_max":976,"o":"m 976 713 l 614 713 l 675 603 l 836 603 l 836 0 l 976 0 l 976 713 m 214 329 q 249 472 214 410 q 359 568 283 533 q 556 603 435 603 l 793 603 l 793 713 l 543 713 q 278 663 385 713 q 119 527 172 614 q 67 329 67 440 q 117 149 67 229 q 258 22 167 68 q 468 -25 349 -25 q 604 4 544 -25 q 698 84 664 33 q 732 199 732 135 q 699 316 732 265 q 610 395 667 367 q 481 424 554 424 q 361 395 414 424 q 278 317 308 367 q 249 201 249 267 q 278 101 249 144 q 361 32 308 57 q 479 7 414 7 l 482 86 q 401 118 433 86 q 368 199 368 150 q 401 282 368 250 q 482 314 433 314 q 565 281 532 314 q 597 199 597 249 q 565 118 597 150 q 482 86 532 86 q 335 117 396 86 q 244 203 275 149 q 214 329 214 258 "},"௸":{"ha":2692,"x_min":67,"x_max":2569,"o":"m 2017 738 q 1883 708 1940 738 q 1794 628 1826 679 q 1763 508 1763 576 q 1801 386 1764 440 q 1904 300 1838 332 q 2058 268 1971 268 q 2272 308 2175 268 q 2441 419 2368 347 q 2556 586 2514 492 l 2431 603 q 2338 494 2394 543 q 2210 415 2282 444 q 2058 386 2139 386 q 1949 423 1989 386 q 1908 508 1908 460 q 1937 588 1908 556 q 2017 619 1965 619 q 2097 586 2069 619 q 2124 500 2124 553 l 2124 -337 l 2263 -337 l 2263 507 q 2233 627 2263 575 q 2148 708 2203 679 q 2017 738 2093 738 m 1540 376 q 1526 249 1540 321 q 1486 110 1513 178 l 1486 0 l 2569 0 l 2569 603 l 2431 603 l 2431 110 l 1632 110 q 1674 251 1661 183 q 1686 376 1686 318 q 1642 563 1686 482 q 1511 691 1597 644 q 1300 738 1425 738 q 1111 699 1203 738 q 948 594 1019 661 q 835 438 876 526 q 793 247 793 349 q 824 107 793 168 q 912 10 854 46 q 1046 -25 969 -25 q 1182 10 1125 -25 q 1271 107 1239 46 q 1303 247 1303 168 q 1252 438 1303 349 q 1113 594 1201 526 q 905 699 1024 661 q 649 738 786 738 q 340 683 472 738 q 138 534 208 628 q 67 319 67 440 q 117 142 67 221 q 257 19 167 64 q 468 -25 347 -25 q 604 4 544 -25 q 698 84 664 33 q 732 199 732 135 q 699 315 732 265 q 610 394 667 365 q 481 424 554 424 q 362 395 415 424 q 278 317 308 367 q 249 201 249 267 q 278 101 249 144 q 361 32 308 57 q 479 7 414 7 l 482 86 q 401 118 433 86 q 368 200 368 150 q 401 282 368 250 q 482 314 433 314 q 565 281 532 314 q 597 199 597 249 q 565 118 597 150 q 482 86 532 86 q 335 115 394 86 q 244 197 275 144 q 214 319 214 250 q 267 474 214 407 q 417 581 319 542 q 649 619 514 619 q 847 592 756 619 q 1008 513 939 564 q 1115 395 1076 463 q 1154 247 1154 328 q 1128 137 1154 181 q 1046 93 1101 93 q 966 137 993 93 q 939 247 939 181 q 967 394 939 326 q 1045 511 996 461 q 1160 590 1094 561 q 1300 619 1225 619 q 1435 588 1382 619 q 1515 501 1489 557 q 1540 376 1540 446 "},"ஒ":{"ha":1154,"x_min":60,"x_max":1088,"o":"m 567 742 q 360 715 453 742 q 199 638 267 688 q 96 520 132 588 q 60 372 60 453 q 88 247 60 301 q 167 160 115 192 q 292 129 219 129 q 431 179 376 129 q 485 306 485 229 q 433 428 485 381 q 301 475 381 475 q 179 428 226 475 q 132 306 132 381 q 177 192 132 238 q 293 147 222 147 l 293 235 q 242 255 263 235 q 221 306 221 275 q 241 354 221 335 q 294 374 261 374 q 344 354 325 374 q 364 306 364 335 q 344 254 364 274 q 293 235 324 235 q 234 253 260 235 q 194 303 208 271 q 179 374 179 335 q 228 502 179 446 q 366 590 278 558 q 567 622 454 622 q 759 592 675 622 q 892 508 843 561 q 940 388 940 456 q 917 303 940 336 q 856 271 893 271 q 786 299 813 271 q 760 374 760 328 l 656 374 q 681 260 656 310 q 751 181 706 210 q 857 153 797 153 q 977 182 925 153 q 1058 265 1029 211 q 1088 388 1088 318 q 1049 529 1088 464 q 940 642 1011 594 q 774 716 869 690 q 567 742 679 742 m 1033 -49 l 1033 61 l 925 61 q 802 92 844 61 q 760 197 760 124 l 760 374 l 632 374 l 632 197 q 710 18 632 85 q 925 -49 789 -49 l 1033 -49 m 583 -185 q 468 -151 508 -185 q 428 -64 428 -117 l 428 0 l 289 0 l 289 -64 q 325 -187 289 -133 q 427 -273 361 -242 q 583 -304 493 -304 q 736 -273 671 -304 q 837 -187 801 -242 q 872 -64 872 -133 l 872 0 l 739 26 l 739 -64 q 699 -151 739 -117 q 583 -185 658 -185 "},"ஞ":{"ha":1778,"x_min":94,"x_max":1713,"o":"m 571 329 q 606 472 571 410 q 717 568 642 533 q 913 603 793 603 l 1089 603 l 1089 713 l 900 713 q 638 663 744 713 q 477 527 531 614 q 424 329 424 440 q 474 149 424 229 q 615 22 524 68 q 826 -25 707 -25 q 962 4 903 -25 q 1055 84 1021 33 q 1089 199 1089 135 q 1057 315 1089 265 q 968 394 1025 365 q 839 424 911 424 q 719 395 772 424 q 635 317 665 367 q 606 201 606 267 q 635 101 606 144 q 718 32 665 57 q 838 7 771 7 l 840 86 q 759 118 792 86 q 726 200 726 150 q 759 282 726 250 q 840 314 792 314 q 923 281 890 314 q 956 199 956 249 q 923 118 956 150 q 840 86 890 86 q 693 117 753 86 q 602 204 633 149 q 571 329 571 260 m 1438 485 q 1363 472 1399 485 q 1297 436 1326 460 l 1297 603 l 1551 603 l 1531 713 l 996 713 l 1014 603 l 1158 603 l 1158 0 l 1297 0 l 1297 219 q 1335 322 1297 278 q 1432 367 1374 367 q 1510 340 1481 367 q 1553 269 1540 313 q 1565 171 1565 225 q 1486 -55 1565 40 q 1263 -201 1407 -150 q 924 -251 1119 -251 q 647 -216 771 -251 q 431 -116 522 -181 q 290 41 339 -51 q 242 247 242 133 q 267 428 242 340 q 337 591 292 517 q 439 713 382 665 l 296 726 q 192 594 238 672 q 120 427 146 517 q 94 250 94 338 q 153 -5 94 110 q 320 -201 211 -119 q 583 -326 429 -282 q 924 -369 736 -369 q 1253 -331 1107 -369 q 1502 -222 1400 -293 q 1658 -51 1604 -151 q 1713 171 1713 49 q 1681 330 1713 258 q 1589 443 1650 401 q 1438 485 1528 485 "},"Ț":{"ha":807,"x_min":14,"x_max":793,"o":"m 769 944 l 793 821 l 469 821 l 469 0 l 311 0 l 311 821 l 14 821 l 14 944 l 769 944 m 396 -31 q 462 -61 435 -31 q 489 -143 489 -92 q 469 -239 489 -193 q 414 -319 449 -285 q 338 -376 379 -354 l 301 -301 q 345 -269 322 -292 q 375 -217 368 -247 q 326 -188 350 -217 q 303 -125 303 -160 q 315 -80 303 -100 q 349 -45 328 -60 q 396 -31 371 -31 "},"ெ":{"ha":1136,"x_min":67,"x_max":1014,"o":"m 1014 474 q 958 717 1014 613 q 798 879 901 821 q 556 938 694 938 q 298 874 408 938 q 127 701 188 811 q 67 447 67 590 q 118 201 67 308 q 260 35 169 94 q 468 -25 351 -25 q 604 4 544 -25 q 698 84 664 33 q 732 199 732 135 q 701 315 732 265 q 614 394 669 365 q 485 424 558 424 q 365 395 418 424 q 283 317 313 367 q 253 201 253 267 q 283 101 253 144 q 365 32 313 57 q 482 7 418 7 l 482 86 q 401 118 433 86 q 368 199 368 150 q 401 282 368 250 q 482 314 433 314 q 565 281 532 314 q 597 199 597 249 q 565 118 597 150 q 482 86 532 86 q 335 131 394 86 q 244 258 275 176 q 214 447 214 340 q 255 640 214 556 q 373 772 296 724 q 556 819 450 819 q 726 776 654 819 q 836 656 797 733 q 875 474 875 578 l 875 0 l 1014 0 l 1014 474 "},"ண":{"ha":2438,"x_min":67,"x_max":2424,"o":"m 2031 0 l 2171 0 l 2171 603 l 2424 603 l 2403 713 l 1907 713 q 1692 676 1790 713 q 1520 576 1593 640 q 1407 427 1447 511 q 1367 247 1367 343 q 1399 107 1367 168 q 1488 10 1431 46 q 1622 -25 1544 -25 q 1757 10 1701 -25 q 1844 107 1813 46 q 1876 247 1876 168 q 1835 442 1876 353 q 1720 599 1793 532 q 1549 701 1647 665 q 1335 738 1450 738 q 1121 699 1219 738 q 949 593 1022 661 q 834 436 875 525 q 793 247 793 347 q 824 107 793 168 q 912 10 854 46 q 1046 -25 969 -25 q 1182 10 1125 -25 q 1271 107 1239 46 q 1303 247 1303 168 q 1252 438 1303 349 q 1113 594 1201 526 q 905 699 1024 661 q 649 738 786 738 q 340 683 472 738 q 138 534 208 628 q 67 319 67 440 q 117 142 67 221 q 257 19 167 64 q 468 -25 347 -25 q 604 4 544 -25 q 698 84 664 33 q 732 199 732 135 q 699 315 732 265 q 610 394 667 365 q 481 424 554 424 q 362 395 415 424 q 278 317 308 367 q 249 201 249 267 q 278 101 249 144 q 361 32 308 57 q 479 7 414 7 l 482 86 q 401 118 433 86 q 368 200 368 150 q 401 282 368 250 q 482 314 433 314 q 565 281 532 314 q 597 199 597 249 q 565 118 597 150 q 482 86 532 86 q 335 115 394 86 q 244 197 275 144 q 214 319 214 250 q 267 474 214 407 q 417 581 319 542 q 649 619 514 619 q 847 592 756 619 q 1008 513 939 564 q 1115 395 1076 463 q 1154 247 1154 328 q 1128 137 1154 181 q 1046 93 1101 93 q 966 137 993 93 q 939 247 939 181 q 991 437 939 351 q 1133 571 1043 522 q 1335 619 1224 619 q 1490 592 1418 619 q 1615 514 1561 564 q 1699 397 1668 464 q 1729 247 1729 329 q 1703 137 1729 181 q 1622 93 1676 93 q 1540 137 1567 93 q 1514 247 1514 181 q 1542 390 1514 325 q 1624 502 1571 454 q 1749 576 1676 550 q 1907 603 1821 603 l 2031 603 l 2031 0 "},"ஓ":{"ha":1154,"x_min":60,"x_max":1088,"o":"m 1033 61 l 925 61 q 813 85 854 61 q 763 163 771 108 l 761 176 q 807 159 783 165 q 857 153 831 153 q 977 182 925 153 q 1058 265 1029 211 q 1088 388 1088 318 q 1049 529 1088 464 q 940 642 1011 594 q 775 715 869 689 q 567 742 681 742 q 360 715 453 742 q 199 638 267 688 q 96 520 132 588 q 60 372 60 453 q 88 247 60 301 q 167 160 115 192 q 292 129 219 129 q 431 179 376 129 q 485 306 485 229 q 433 428 485 381 q 301 475 381 475 q 240 465 268 475 q 190 438 213 456 q 260 531 208 490 q 390 597 311 572 q 567 622 468 622 q 759 592 675 622 q 892 509 843 563 q 940 388 940 456 q 917 303 940 336 q 856 271 893 271 q 787 299 813 271 q 760 374 761 328 l 632 374 l 632 197 q 660 81 632 132 q 738 -1 688 31 l 738 -64 q 715 -126 738 -97 q 651 -169 692 -154 q 557 -185 610 -185 q 449 -162 492 -185 q 406 -104 406 -139 q 423 -57 406 -76 q 469 -37 440 -37 l 497 -37 l 497 71 l 469 71 q 318 22 374 71 q 263 -104 263 -28 q 301 -207 263 -161 q 406 -278 339 -253 q 557 -304 472 -304 q 720 -273 650 -304 q 831 -187 790 -242 q 872 -64 872 -133 l 872 -46 q 898 -48 881 -47 q 925 -49 915 -49 l 1033 -49 l 1033 61 m 221 306 q 241 355 221 336 q 294 374 261 374 q 344 355 325 374 q 364 306 364 336 q 344 254 364 274 q 293 235 324 235 q 241 255 261 235 q 221 306 221 275 "},"ஆ":{"ha":1792,"x_min":39,"x_max":1778,"o":"m 1303 76 l 1303 185 l 233 185 q 86 143 133 185 q 39 36 39 101 q 92 -85 39 -32 q 237 -169 144 -139 q 450 -200 329 -200 q 692 -162 585 -200 q 877 -55 800 -124 q 996 108 954 14 q 1038 315 1038 203 q 985 533 1038 438 q 842 683 933 628 q 625 738 750 738 q 445 701 524 738 q 322 602 367 665 q 278 457 278 539 q 333 330 278 381 q 471 278 388 279 q 608 327 554 276 q 664 457 663 378 q 612 580 664 533 q 478 626 560 626 q 394 604 431 626 q 336 544 357 582 q 315 457 315 506 l 406 457 q 424 502 406 485 q 472 519 442 519 q 518 502 500 519 q 536 457 536 485 q 517 410 536 429 q 471 392 499 392 q 424 410 443 392 q 406 457 406 429 q 434 541 406 504 q 513 599 463 578 q 625 619 563 619 q 767 580 708 619 q 857 472 825 540 q 889 315 889 404 q 837 111 889 200 q 686 -30 785 22 q 450 -82 588 -82 q 313 -66 372 -82 q 219 -24 253 -50 q 186 36 186 3 q 196 65 186 53 q 231 76 206 76 l 1303 76 m 1532 149 q 1455 138 1492 149 q 1389 106 1418 126 l 1389 713 l 1249 713 l 1249 -175 l 1389 -175 l 1389 -99 q 1424 -8 1389 -46 q 1518 29 1460 29 q 1601 -9 1572 29 q 1631 -100 1631 -47 q 1580 -258 1631 -189 q 1439 -365 1529 -326 q 1231 -404 1349 -404 q 1085 -375 1142 -404 q 1028 -304 1028 -346 q 1047 -258 1028 -275 q 1096 -240 1067 -240 l 1125 -240 l 1125 -131 l 1096 -131 q 944 -178 1001 -131 q 888 -304 888 -226 q 930 -417 888 -367 q 1049 -495 972 -467 q 1231 -524 1126 -524 q 1451 -492 1351 -524 q 1625 -404 1551 -461 q 1738 -270 1699 -347 q 1778 -101 1778 -193 q 1747 30 1778 -26 q 1661 117 1717 86 q 1532 149 1606 149 "},"அ":{"ha":1511,"x_min":39,"x_max":1389,"o":"m 1389 -175 l 1249 -175 l 1249 713 l 1389 713 l 1389 -175 m 625 738 q 842 683 750 738 q 985 533 933 628 q 1038 315 1038 438 q 996 108 1038 203 q 877 -55 954 14 q 692 -162 800 -124 q 450 -200 585 -200 q 237 -169 329 -200 q 92 -85 144 -139 q 39 36 39 -32 q 86 143 39 101 q 233 185 133 185 l 1249 185 l 1249 76 l 231 76 q 196 65 206 76 q 186 36 186 54 q 219 -24 186 3 q 313 -66 253 -50 q 450 -82 372 -82 q 686 -30 588 -82 q 837 112 785 22 q 889 315 889 201 q 857 472 889 404 q 767 580 825 540 q 625 619 708 619 q 513 599 563 619 q 434 541 463 578 q 406 457 406 504 q 424 410 406 429 q 471 393 443 392 q 517 410 499 392 q 536 457 536 429 q 518 501 536 483 q 472 519 500 519 q 424 502 443 519 q 406 457 406 485 l 315 457 q 336 544 315 506 q 394 604 357 582 q 478 626 431 626 q 612 580 560 626 q 664 457 664 533 q 608 327 663 378 q 471 278 554 276 q 333 329 388 279 q 278 457 278 379 q 322 602 278 539 q 445 701 367 665 q 625 738 524 738 "},"ஊ":{"ha":2288,"x_min":39,"x_max":2274,"o":"m 103 110 l 103 0 l 2274 0 l 2274 110 l 722 110 q 814 228 782 158 q 846 379 846 297 q 796 564 846 483 q 654 691 746 644 q 443 738 563 738 q 238 692 329 738 q 92 569 146 647 q 39 389 39 490 q 69 281 39 328 q 149 207 99 233 q 264 181 199 181 q 377 206 328 181 q 455 275 426 231 q 483 376 483 319 q 457 476 483 432 q 383 544 431 519 q 274 568 336 568 q 169 544 215 568 q 95 477 122 519 q 68 381 68 435 l 163 378 q 190 447 163 418 q 260 475 218 475 q 331 447 303 475 q 360 376 360 419 q 331 306 360 333 q 261 279 303 279 q 190 307 218 279 q 163 378 163 335 q 197 501 163 447 q 295 588 232 556 q 443 619 358 619 q 577 588 519 619 q 667 503 635 557 q 699 379 699 449 q 663 240 699 301 q 563 144 628 179 q 413 110 499 110 l 103 110 m 1082 428 q 1109 524 1082 482 q 1185 592 1136 567 q 1297 617 1233 617 q 1425 588 1369 617 q 1512 512 1481 560 q 1543 401 1543 464 l 1543 182 l 1683 182 l 1683 603 l 1894 603 l 1894 182 l 2035 182 l 2035 603 l 2218 603 l 2199 713 l 1543 713 l 1543 639 q 1435 709 1499 683 q 1297 735 1372 735 q 1110 695 1192 735 q 982 585 1028 656 q 936 428 936 515 q 978 290 936 350 q 1092 197 1019 231 q 1260 163 1165 163 q 1369 186 1322 163 q 1441 251 1415 210 q 1467 342 1467 292 q 1413 463 1467 417 q 1276 510 1358 510 q 1150 464 1200 510 q 1100 344 1100 418 q 1149 242 1100 282 q 1269 201 1197 201 l 1272 265 q 1219 286 1240 265 q 1197 340 1197 307 q 1219 393 1197 374 q 1272 413 1240 413 q 1326 393 1306 413 q 1347 340 1347 374 q 1326 287 1347 308 q 1272 265 1306 265 q 1161 287 1203 265 q 1101 345 1119 308 q 1082 428 1082 382 "},"ஶ":{"ha":1538,"x_min":108,"x_max":1471,"o":"m 1160 713 l 538 713 l 538 281 q 501 142 538 190 q 393 93 465 93 q 283 142 319 93 q 247 281 247 190 l 247 719 l 108 713 l 108 278 q 142 117 108 185 q 240 12 175 49 q 393 -25 304 -25 q 545 12 482 -25 q 644 117 608 49 q 679 278 679 185 l 679 603 l 856 603 l 856 288 q 889 121 856 192 q 985 13 922 50 q 1138 -25 1049 -25 q 1317 28 1243 -25 q 1431 175 1392 82 q 1471 388 1471 268 q 1439 556 1471 482 q 1338 671 1407 629 q 1160 713 1269 713 m 1138 93 q 1032 144 1067 93 q 997 293 997 196 l 997 603 l 1160 603 q 1262 575 1226 603 q 1310 499 1297 547 q 1324 388 1324 450 q 1302 236 1324 303 q 1240 131 1281 169 q 1138 93 1200 93 "},"ஏ":{"ha":1243,"x_min":67,"x_max":1229,"o":"m 214 329 q 249 472 214 410 q 359 568 283 533 q 556 603 435 603 l 836 603 l 836 61 q 833 -14 836 17 q 814 -63 829 -44 q 765 -93 799 -82 l 310 -240 l 363 -347 l 882 -185 q 947 -142 926 -171 q 972 -72 967 -112 q 976 17 976 -31 l 976 603 l 1229 603 l 1210 713 l 542 713 q 278 663 385 713 q 119 527 172 614 q 67 329 67 440 q 117 149 67 229 q 258 22 167 68 q 468 -25 349 -25 q 604 4 544 -25 q 698 84 664 33 q 732 199 732 135 q 699 315 732 265 q 610 394 667 365 q 481 424 554 424 q 369 399 419 424 q 289 331 319 374 q 251 229 258 288 q 251 210 251 219 q 251 193 251 201 q 223 256 232 221 q 214 329 214 290 m 368 199 q 401 282 368 250 q 482 314 433 314 q 565 281 532 314 q 597 199 597 249 q 565 118 597 150 q 482 86 532 86 q 401 118 433 86 q 368 199 368 150 "},"ஸ":{"ha":1903,"x_min":67,"x_max":1838,"o":"m 831 0 l 969 0 l 969 354 q 988 490 969 431 q 1042 583 1006 549 q 1128 618 1078 618 q 1228 567 1201 618 q 1254 436 1254 515 l 1254 290 q 1288 121 1254 192 q 1384 13 1321 50 q 1536 -25 1447 -25 q 1705 20 1639 -25 q 1804 145 1771 65 q 1838 329 1838 225 q 1826 451 1838 383 q 1788 592 1814 519 q 1721 732 1763 664 l 1576 713 q 1642 588 1617 657 q 1678 450 1667 518 q 1690 329 1690 382 q 1656 160 1690 226 q 1540 94 1621 94 q 1432 144 1469 94 q 1394 290 1394 193 l 1394 442 q 1366 594 1394 528 q 1280 699 1338 661 q 1132 738 1222 738 q 992 695 1051 738 q 897 582 933 653 q 750 697 844 656 q 535 738 656 738 q 285 683 390 738 q 123 537 179 629 q 67 329 67 444 q 117 149 67 229 q 258 22 167 69 q 468 -25 349 -25 q 604 4 544 -25 q 698 84 664 33 q 732 199 732 135 q 699 315 732 265 q 610 394 667 365 q 481 424 554 424 q 363 395 415 424 q 280 317 310 367 q 250 201 250 267 q 280 101 250 144 q 362 32 310 57 q 479 7 414 7 l 482 86 q 401 118 433 86 q 368 200 368 150 q 401 282 368 250 q 482 314 433 314 q 565 281 532 314 q 597 199 597 249 q 565 118 597 150 q 482 86 532 86 q 335 117 396 86 q 244 203 274 149 q 214 329 214 258 q 251 477 214 411 q 360 581 289 543 q 535 618 432 618 q 692 586 626 618 q 794 494 758 554 q 831 354 831 435 l 831 0 "},"ை":{"ha":1753,"x_min":67,"x_max":1686,"o":"m 1300 619 q 1435 588 1382 619 q 1515 501 1489 556 q 1540 376 1540 446 q 1528 258 1540 324 q 1492 124 1517 192 q 1426 0 1467 57 l 1569 -19 q 1659 190 1632 83 q 1686 376 1686 296 q 1642 563 1686 482 q 1511 691 1597 644 q 1300 738 1425 738 q 1111 699 1203 738 q 948 594 1019 661 q 835 438 876 526 q 793 247 793 349 q 824 107 793 168 q 912 10 854 46 q 1047 -25 969 -25 q 1182 10 1125 -25 q 1271 106 1239 44 q 1303 247 1303 168 q 1252 438 1303 349 q 1113 594 1201 526 q 905 699 1024 661 q 649 738 786 738 q 341 683 472 738 q 138 535 210 628 q 67 319 67 442 q 117 142 67 221 q 257 19 167 64 q 468 -25 347 -25 q 604 4 544 -25 q 698 84 664 33 q 732 199 732 135 q 699 316 732 265 q 610 395 667 367 q 481 424 554 424 q 361 395 414 424 q 278 317 308 367 q 249 201 249 267 q 278 101 249 144 q 361 32 308 57 q 479 7 414 7 l 482 86 q 401 118 433 86 q 368 199 368 150 q 401 282 368 250 q 482 314 433 314 q 565 281 532 314 q 597 199 597 249 q 565 118 597 150 q 482 86 532 86 q 335 115 394 86 q 244 197 275 144 q 214 319 214 249 q 267 474 214 407 q 417 581 319 542 q 649 619 514 619 q 847 592 756 619 q 1008 514 939 564 q 1115 396 1076 464 q 1154 247 1154 328 q 1128 137 1154 181 q 1047 93 1101 93 q 966 137 993 93 q 939 247 939 181 q 967 394 939 326 q 1045 512 996 461 q 1160 591 1094 563 q 1300 619 1225 619 "},"ஷ":{"ha":1992,"x_min":67,"x_max":1885,"o":"m 1885 603 l 1744 603 l 1744 110 l 799 110 l 800 0 l 1885 0 l 1885 603 m 1332 738 q 1197 708 1254 738 q 1108 628 1140 679 q 1076 508 1076 576 q 1115 386 1078 440 q 1219 300 1153 332 q 1374 268 1286 268 q 1587 308 1490 268 q 1756 419 1683 347 q 1869 586 1828 492 l 1744 603 q 1653 494 1710 543 q 1524 415 1596 444 q 1374 386 1453 386 q 1263 423 1303 386 q 1224 508 1224 460 q 1251 588 1224 556 q 1332 619 1279 619 q 1410 586 1383 619 q 1438 500 1438 553 l 1438 -337 l 1578 -337 l 1578 507 q 1547 627 1578 575 q 1462 708 1517 679 q 1332 738 1407 738 m 551 738 q 297 685 406 738 q 127 540 188 632 q 67 329 67 449 q 117 149 67 229 q 258 22 167 68 q 468 -25 349 -25 q 604 4 544 -25 q 698 84 664 33 q 732 199 732 135 q 699 315 732 265 q 610 394 667 365 q 481 424 554 424 q 362 395 415 424 q 278 317 308 367 q 249 201 249 267 q 278 101 249 144 q 361 32 308 57 q 479 7 414 7 l 482 86 q 401 118 433 86 q 368 200 368 150 q 401 282 368 250 q 482 314 433 314 q 565 281 532 314 q 597 199 597 249 q 565 118 597 150 q 482 86 532 86 q 335 117 396 86 q 244 204 274 149 q 214 329 214 260 q 254 478 214 413 q 371 582 294 544 q 551 619 447 619 q 728 585 656 619 q 837 490 800 550 q 874 354 874 431 q 853 219 874 281 q 799 110 832 158 l 903 36 q 989 177 956 93 q 1022 354 1022 261 q 963 552 1022 465 q 797 688 903 639 q 551 738 690 738 "},"ா":{"ha":953,"x_min":122,"x_max":939,"o":"m 685 603 l 939 603 l 918 713 l 122 713 l 122 0 l 261 0 l 261 603 l 546 603 l 546 0 l 685 0 l 685 603 "},"ி":{"ha":382,"x_min":-522,"x_max":261,"o":"m -179 1107 q -360 1074 -283 1107 q -480 983 -437 1040 q -522 850 -522 925 q -487 728 -521 782 q -392 644 -454 675 q -243 613 -331 613 l -226 613 l -226 713 l -243 713 q -347 751 -312 713 q -382 850 -382 790 q -329 951 -382 914 q -179 989 -276 989 q -19 952 -86 989 q 85 850 49 915 q 122 699 122 785 l 122 0 l 261 0 l 261 699 q 207 910 261 818 q 54 1054 153 1001 q -179 1107 -44 1107 "},"ț":{"ha":501,"x_min":17,"x_max":476,"o":"m 389 668 l 436 550 l 267 550 l 267 226 q 290 142 267 175 q 363 110 314 110 q 399 114 381 110 q 433 125 417 118 l 476 10 q 442 -7 464 1 q 397 -21 421 -15 q 351 -26 372 -26 q 224 0 276 -26 q 141 77 171 26 q 111 201 111 128 l 111 550 l 18 550 l 17 668 l 111 668 l 111 833 l 267 864 l 267 668 l 389 668 m 306 -37 q 372 -68 344 -37 q 399 -150 399 -99 q 378 -246 399 -200 q 324 -326 358 -292 q 247 -383 289 -361 l 211 -308 q 255 -276 232 -299 q 285 -224 278 -254 q 236 -195 260 -224 q 213 -132 213 -167 q 225 -87 213 -107 q 259 -52 238 -67 q 306 -37 281 -37 "},"வ":{"ha":1492,"x_min":67,"x_max":1371,"o":"m 874 354 q 853 219 874 281 q 799 110 832 158 l 800 0 l 1371 0 l 1371 713 l 1231 713 l 1231 110 l 956 110 q 1004 224 986 161 q 1022 354 1022 288 q 963 552 1022 465 q 797 688 903 639 q 551 738 690 738 q 297 685 406 738 q 127 540 188 632 q 67 329 67 449 q 117 149 67 229 q 258 22 167 68 q 468 -25 349 -25 q 604 4 544 -25 q 698 84 664 33 q 732 199 732 135 q 699 316 732 265 q 610 395 667 367 q 481 424 554 424 q 363 395 415 424 q 279 317 310 367 q 249 201 249 267 q 279 101 249 144 q 362 32 310 57 q 479 7 414 7 l 482 86 q 401 118 433 86 q 368 199 368 150 q 401 282 368 250 q 482 314 433 314 q 565 281 532 314 q 597 199 597 249 q 565 118 597 150 q 482 86 532 86 q 335 117 396 86 q 244 203 275 149 q 214 329 214 258 q 254 478 214 413 q 371 582 294 544 q 551 619 447 619 q 729 585 657 619 q 838 490 801 550 q 874 354 874 431 "},"ீ":{"ha":0,"x_min":-567,"x_max":126,"o":"m -203 1219 q -393 1178 -311 1219 q -521 1067 -475 1138 q -567 906 -567 997 q -524 751 -567 818 q -409 644 -482 683 q -242 606 -336 606 l -242 713 q -333 737 -293 713 q -397 806 -374 761 q -419 907 -419 850 q -393 1008 -419 964 q -317 1076 -367 1051 q -203 1100 -268 1100 q -88 1082 -137 1100 q -12 1029 -39 1064 q 15 944 15 994 q -4 896 15 915 q -51 876 -24 876 q -101 896 -82 876 q -119 944 -119 915 q -101 992 -119 972 q -53 1011 -82 1011 q -3 992 -22 1011 q 15 944 15 972 l 101 943 q 57 1063 101 1015 q -57 1110 13 1110 q -184 1063 -135 1110 q -232 940 -233 1015 q -178 825 -229 871 q -53 779 -128 779 q 76 829 26 779 q 126 954 126 879 q 81 1088 126 1028 q -38 1184 36 1149 q -203 1219 -112 1219 "},"ப":{"ha":1024,"x_min":122,"x_max":903,"o":"m 903 713 l 763 713 l 763 110 l 261 110 l 261 719 l 122 713 l 122 0 l 903 0 l 903 713 "},"Ģ":{"ha":872,"x_min":53,"x_max":807,"o":"m 464 386 l 476 506 l 807 506 l 807 49 q 728 15 774 31 q 630 -10 682 -1 q 524 -19 578 -19 q 272 45 378 -19 q 109 220 165 110 q 53 467 53 331 q 89 667 53 576 q 192 824 125 757 q 347 928 258 892 q 542 964 436 964 q 615 958 571 964 q 708 940 660 953 q 793 904 756 926 l 744 793 q 678 814 707 806 q 619 827 649 822 q 544 832 589 832 q 419 808 479 832 q 313 740 360 785 q 241 626 267 694 q 215 468 215 558 q 254 280 215 361 q 363 156 293 199 q 519 113 432 113 q 603 118 567 113 q 667 132 639 124 l 667 386 l 464 386 m 526 -35 q 592 -65 565 -35 q 619 -147 619 -96 q 599 -243 619 -197 q 544 -324 579 -289 q 468 -381 510 -358 l 432 -306 q 476 -274 453 -296 q 506 -221 499 -251 q 457 -192 481 -221 q 433 -129 433 -164 q 446 -84 433 -104 q 480 -49 458 -64 q 526 -35 501 -35 "},"ட":{"ha":1008,"x_min":122,"x_max":994,"o":"m 974 110 l 994 0 l 122 0 l 122 713 l 261 719 l 261 110 l 974 110 "},"ļ":{"ha":343,"x_min":86,"x_max":274,"o":"m 249 0 l 94 0 l 94 965 l 249 981 l 249 0 m 181 -31 q 247 -61 219 -31 q 274 -143 274 -92 q 253 -239 274 -193 q 199 -319 233 -285 q 122 -376 164 -354 l 86 -301 q 130 -269 107 -292 q 160 -217 153 -247 q 111 -188 135 -217 q 88 -125 88 -160 q 100 -80 88 -100 q 134 -45 113 -60 q 181 -31 156 -31 "},"௪":{"ha":1228,"x_min":53,"x_max":1176,"o":"m 1176 317 l 1176 713 l 1043 713 l 1043 349 l 1176 317 m 689 285 l 689 603 l 939 603 l 918 713 l 215 713 l 215 365 l 356 365 l 356 603 l 549 603 l 549 285 q 525 186 549 229 q 456 118 501 143 q 346 93 411 93 q 239 124 278 93 q 200 203 200 156 q 240 286 200 256 q 356 317 279 317 l 1176 317 l 1136 426 l 354 426 q 133 365 213 426 q 53 203 53 304 q 88 86 53 138 q 190 5 124 35 q 346 -25 257 -25 q 528 15 451 -25 q 647 126 606 56 q 689 285 689 196 "},"உ":{"ha":1388,"x_min":39,"x_max":1374,"o":"m 1374 0 l 1374 110 l 103 110 l 103 0 l 1374 0 m 68 381 l 163 378 q 190 447 163 418 q 260 475 218 475 q 331 447 303 475 q 360 376 360 419 q 331 306 360 333 q 261 279 303 279 q 190 307 218 279 q 163 378 163 335 q 197 501 163 447 q 295 588 232 556 q 443 619 358 619 q 577 588 519 619 q 667 503 635 557 q 699 379 699 449 q 663 240 699 301 q 563 144 628 179 q 413 110 499 110 l 413 10 q 642 58 544 10 q 792 189 739 106 q 846 379 846 272 q 796 564 846 483 q 654 691 746 644 q 443 738 563 738 q 238 692 329 738 q 92 569 146 647 q 39 389 39 490 q 69 281 39 328 q 149 207 99 233 q 264 181 199 181 q 377 206 328 181 q 455 275 426 231 q 483 376 483 319 q 457 476 483 432 q 383 544 431 519 q 274 568 336 568 q 169 544 215 568 q 95 477 122 519 q 68 381 68 435 "},"௶":{"ha":1413,"x_min":122,"x_max":1290,"o":"m 1290 -225 l 1290 713 l 1151 713 l 1151 -117 l 347 -117 q 181 -165 239 -117 q 122 -290 122 -214 q 160 -391 122 -347 q 270 -460 199 -435 q 439 -485 342 -485 q 681 -442 576 -485 q 844 -323 786 -399 q 903 -150 903 -247 l 903 139 l 763 139 l 763 -146 q 722 -260 763 -210 q 609 -337 682 -310 q 439 -365 536 -365 q 313 -345 357 -365 q 269 -290 269 -325 q 288 -244 269 -262 q 349 -225 306 -225 l 1290 -225 m 903 713 l 763 713 l 763 110 l 261 110 l 261 719 l 122 713 l 122 0 l 903 0 l 903 713 "},"ற":{"ha":1215,"x_min":108,"x_max":1149,"o":"m 822 738 q 690 707 750 738 q 590 621 629 676 q 497 707 553 676 q 371 738 442 738 q 227 699 286 738 q 138 593 168 661 q 108 438 108 525 l 108 0 l 247 0 l 247 424 q 279 567 247 514 q 379 619 311 619 q 464 590 431 619 q 514 513 497 561 q 531 406 531 465 l 531 0 l 671 0 l 671 421 q 689 530 671 486 q 741 597 707 574 q 821 619 775 619 q 927 581 888 619 q 985 476 967 542 q 1003 324 1003 410 q 968 83 1003 189 q 861 -82 933 -22 q 674 -142 789 -142 l 443 -142 q 222 -177 307 -142 q 108 -269 136 -212 l 221 -337 q 299 -276 249 -299 q 453 -253 350 -253 l 674 -253 q 942 -178 836 -253 q 1098 27 1047 -103 q 1149 324 1149 157 q 1113 537 1149 443 q 1003 684 1076 631 q 822 738 931 738 "},"௺":{"ha":1468,"x_min":122,"x_max":1468,"o":"m 1178 981 q 1152 905 1178 935 q 1082 875 1126 875 l 1082 765 l 1468 765 l 1468 875 l 1293 875 q 1317 923 1308 897 q 1325 981 1325 949 q 1287 1103 1325 1049 q 1183 1188 1249 1157 q 1031 1219 1117 1219 q 876 1196 947 1219 q 750 1132 804 1172 q 667 1040 696 1092 q 638 932 638 989 q 663 834 638 876 q 733 769 688 792 q 833 746 778 746 q 935 769 890 746 q 1005 834 979 792 q 1031 932 1031 876 q 983 1074 1031 1008 q 854 1179 935 1139 q 674 1219 774 1219 q 490 1178 569 1219 q 366 1067 410 1138 q 322 906 322 997 q 365 751 322 818 q 481 645 407 683 q 647 607 554 607 l 647 713 q 556 738 597 713 q 492 806 515 763 q 469 906 469 850 q 494 1007 469 963 q 565 1076 519 1051 q 674 1100 611 1100 q 791 1083 740 1100 q 871 1028 842 1065 q 900 932 900 992 q 881 879 900 900 q 833 858 863 858 q 785 879 804 858 q 767 932 767 900 q 801 1026 767 989 q 896 1082 836 1064 q 1024 1100 956 1100 q 1136 1067 1094 1100 q 1178 981 1178 1033 m 764 485 q 687 472 724 485 q 621 438 650 460 l 621 603 l 875 603 l 854 713 l 122 713 l 122 0 l 261 0 l 261 603 l 482 603 l 482 0 l 621 0 l 621 225 q 659 324 621 285 q 753 364 697 364 q 855 302 819 364 q 890 144 890 240 q 867 -3 890 61 q 795 -105 843 -68 q 678 -142 747 -142 l 457 -142 q 233 -175 314 -142 q 122 -269 153 -208 l 235 -337 q 313 -276 263 -299 q 467 -253 364 -253 l 678 -253 q 871 -201 790 -253 q 994 -60 951 -150 q 1038 143 1038 29 q 1003 320 1038 244 q 908 440 969 396 q 764 485 847 485 "},"ŗ":{"ha":489,"x_min":69,"x_max":475,"o":"m 236 0 l 81 0 l 81 674 l 164 674 l 215 563 q 282 612 243 586 q 363 656 321 638 q 442 674 406 674 l 475 549 q 399 532 442 549 q 315 489 357 515 q 236 429 272 463 l 236 0 m 164 -31 q 230 -61 203 -31 q 257 -143 257 -92 q 237 -239 257 -193 q 182 -319 217 -285 q 106 -376 147 -354 l 69 -301 q 113 -269 90 -292 q 143 -217 136 -247 q 94 -188 118 -217 q 71 -125 71 -160 q 83 -80 71 -100 q 117 -45 96 -60 q 164 -31 139 -31 "},"௲":{"ha":1558,"x_min":53,"x_max":1521,"o":"m 1238 317 l 1474 317 l 1457 426 l 689 426 l 689 603 l 939 603 l 918 713 l 215 713 l 215 407 q 95 328 138 382 q 53 203 53 275 q 88 86 53 138 q 190 5 124 35 q 346 -25 257 -25 q 528 15 451 -25 q 647 126 606 56 q 689 285 689 196 l 689 317 l 1099 317 l 1099 207 l 940 207 q 773 158 836 207 q 710 31 710 108 q 738 -64 710 -22 q 822 -131 767 -106 q 953 -156 876 -156 q 1092 -130 1029 -156 q 1194 -53 1156 -104 q 1238 74 1233 -1 l 1238 90 l 1254 90 q 1323 71 1294 90 q 1366 18 1351 51 q 1381 -57 1381 -15 q 1334 -182 1381 -132 q 1207 -232 1288 -232 l 985 -232 q 796 -254 858 -232 q 710 -322 733 -276 l 810 -396 q 867 -357 825 -372 q 994 -342 908 -342 l 1207 -342 q 1373 -305 1303 -342 q 1482 -203 1443 -268 q 1521 -57 1521 -139 q 1486 78 1521 19 q 1391 172 1451 138 q 1247 207 1331 206 l 1238 207 l 1238 317 m 356 603 l 549 603 l 549 426 l 356 426 l 356 603 m 346 93 q 239 124 278 93 q 200 203 200 156 q 240 286 200 256 q 356 317 279 317 l 549 317 l 549 285 q 525 186 549 229 q 456 118 501 143 q 346 93 411 93 m 857 28 q 877 72 857 54 q 940 90 897 90 l 1097 90 l 1096 78 q 1072 16 1092 42 q 1022 -23 1053 -10 q 953 -36 992 -36 q 881 -15 904 -36 q 857 28 857 6 "},"௷":{"ha":1951,"x_min":67,"x_max":1938,"o":"m 976 426 l 976 603 l 1229 603 l 1210 713 l 542 713 q 278 663 385 713 q 119 527 172 614 q 67 329 67 440 q 117 149 67 229 q 258 22 167 68 q 468 -25 349 -25 q 604 4 544 -25 q 698 84 664 33 q 732 199 732 135 q 699 315 732 265 q 610 394 667 365 q 481 424 554 424 q 369 399 419 424 q 289 330 319 374 q 251 229 258 286 q 251 210 251 219 q 251 193 251 201 q 223 256 232 221 q 214 329 214 290 q 249 472 214 410 q 359 568 283 533 q 556 603 435 603 l 836 603 l 836 0 l 976 0 l 976 317 l 1121 317 q 1135 317 1128 317 q 1151 315 1143 317 q 1108 243 1124 282 q 1092 161 1092 204 q 1118 63 1092 106 q 1190 -2 1144 21 q 1292 -25 1235 -25 q 1392 -1 1347 -25 q 1462 65 1436 22 q 1488 161 1488 107 q 1469 253 1488 211 q 1417 329 1451 296 q 1451 334 1433 333 q 1488 335 1468 335 q 1608 301 1568 335 q 1647 214 1647 267 q 1622 140 1647 171 q 1551 110 1597 110 l 1551 0 l 1938 0 l 1938 110 l 1763 110 q 1787 159 1778 133 q 1796 214 1796 185 q 1759 339 1796 285 q 1654 424 1722 393 q 1493 454 1586 454 q 1376 442 1432 454 q 1275 411 1321 431 q 1217 422 1246 418 q 1154 426 1188 426 l 976 426 m 368 199 q 401 282 368 250 q 482 314 433 314 q 565 281 532 314 q 597 199 597 249 q 565 118 597 150 q 482 86 532 86 q 401 118 433 86 q 368 199 368 150 m 1222 161 q 1241 231 1222 200 q 1290 282 1260 261 q 1339 235 1321 265 q 1357 161 1357 206 q 1338 108 1357 129 q 1290 88 1319 88 q 1242 108 1261 88 q 1222 161 1222 129 "},"௫":{"ha":1854,"x_min":94,"x_max":1732,"o":"m 915 0 l 1056 0 l 1056 225 q 1092 324 1056 285 q 1188 364 1129 364 q 1263 335 1232 364 q 1309 258 1293 307 q 1325 144 1325 208 q 1263 -62 1325 26 q 1088 -199 1200 -150 q 826 -249 975 -249 q 579 -206 688 -249 q 395 -85 471 -162 q 281 96 319 -8 q 242 325 242 200 q 288 584 242 465 q 421 790 333 703 q 633 926 508 878 q 915 974 758 974 q 1192 935 1068 974 q 1407 825 1317 897 q 1545 652 1497 753 q 1593 426 1593 551 l 1593 0 l 1732 0 l 1732 429 q 1674 703 1732 581 q 1506 913 1615 825 q 1247 1047 1397 1000 q 915 1094 1097 1094 q 575 1038 726 1094 q 316 878 424 982 q 151 634 208 775 q 94 328 94 493 q 144 49 94 176 q 290 -172 194 -78 q 520 -317 385 -265 q 826 -369 656 -369 q 1087 -333 968 -369 q 1292 -228 1206 -296 q 1425 -65 1378 -160 q 1472 143 1472 29 q 1438 319 1472 243 q 1342 440 1404 396 q 1197 485 1281 485 q 1121 472 1157 485 q 1056 438 1085 460 l 1056 603 l 1308 603 l 1288 713 l 540 713 l 540 0 l 681 0 l 681 603 l 915 603 l 915 0 "},"ன":{"ha":1864,"x_min":67,"x_max":1850,"o":"m 1456 0 l 1597 0 l 1597 603 l 1850 603 l 1829 713 l 1332 713 q 1117 676 1215 713 q 945 576 1018 640 q 833 427 872 511 q 793 247 793 343 q 824 107 793 168 q 912 10 854 46 q 1047 -25 969 -25 q 1182 10 1125 -25 q 1271 106 1239 44 q 1303 247 1303 168 q 1252 438 1303 349 q 1113 594 1201 526 q 905 699 1024 661 q 649 738 786 738 q 341 683 472 738 q 138 534 210 628 q 67 319 67 440 q 117 142 67 221 q 257 19 167 64 q 468 -25 347 -25 q 604 4 544 -25 q 698 84 664 33 q 732 199 732 135 q 699 315 732 265 q 610 394 667 365 q 481 424 554 424 q 361 395 414 424 q 278 317 308 367 q 249 201 249 267 q 278 101 249 146 q 361 32 308 57 q 479 7 414 7 l 482 86 q 401 118 433 86 q 368 199 368 150 q 401 282 368 250 q 482 314 433 314 q 565 281 532 314 q 597 199 597 249 q 565 118 597 150 q 482 86 532 86 q 335 115 394 86 q 244 197 275 144 q 214 319 214 250 q 267 474 214 407 q 417 581 319 542 q 649 619 514 619 q 847 592 756 619 q 1008 514 939 564 q 1115 396 1076 464 q 1154 247 1154 328 q 1128 137 1154 181 q 1046 93 1101 93 q 966 137 993 93 q 939 247 939 181 q 968 390 939 325 q 1050 502 997 454 q 1174 576 1103 550 q 1332 603 1246 603 l 1456 603 l 1456 0 "},"ஂ":{"ha":0,"x_min":-174,"x_max":175,"o":"m -1 860 q -85 882 -46 860 q -149 942 -125 904 q -174 1025 -174 979 q -149 1110 -174 1074 q -85 1169 -125 1147 q -1 1192 -46 1192 q 87 1169 47 1192 q 151 1110 126 1147 q 175 1025 175 1074 q 150 942 175 979 q 85 882 125 904 q -1 860 46 860 m 0 961 q 47 979 29 961 q 65 1025 65 997 q 47 1072 65 1054 q 0 1090 29 1090 q -47 1072 -29 1090 q -65 1025 -65 1054 q -47 979 -65 997 q 0 961 -29 961 "},"ள":{"ha":1733,"x_min":67,"x_max":1719,"o":"m 214 329 q 252 478 214 413 q 363 582 290 544 q 538 619 436 619 q 712 581 635 619 q 832 474 789 542 q 875 317 875 406 l 875 0 l 1014 0 l 1014 603 l 1326 603 l 1326 0 l 1465 0 l 1465 603 l 1719 603 l 1699 713 l 875 713 l 875 597 q 729 700 815 663 q 538 738 643 738 q 289 685 394 738 q 125 540 183 632 q 67 329 67 449 q 117 149 67 229 q 258 22 167 68 q 468 -25 349 -25 q 604 4 544 -25 q 698 84 664 33 q 732 199 732 135 q 699 316 732 265 q 610 395 667 367 q 481 424 554 424 q 361 395 414 424 q 278 317 308 367 q 249 201 249 267 q 278 101 249 144 q 361 32 308 57 q 479 7 414 7 l 482 86 q 401 118 433 86 q 368 199 368 150 q 401 282 368 250 q 482 314 433 314 q 565 281 532 314 q 597 199 597 249 q 565 118 597 150 q 482 86 532 86 q 335 117 396 86 q 244 203 275 149 q 214 329 214 258 "},"ņ":{"ha":769,"x_min":81,"x_max":694,"o":"m 236 0 l 81 0 l 81 674 l 185 674 l 213 593 q 295 648 251 625 q 385 683 339 671 q 471 696 431 696 q 603 661 554 696 q 673 567 651 626 q 694 433 694 508 l 694 0 l 538 0 l 538 424 q 513 528 538 490 q 433 565 489 565 q 365 551 400 565 q 297 515 329 538 q 236 471 265 493 l 236 0 m 401 -31 q 467 -61 440 -31 q 494 -143 494 -92 q 474 -239 494 -193 q 419 -319 454 -285 q 343 -376 385 -354 l 307 -301 q 351 -269 328 -292 q 381 -217 374 -247 q 332 -188 356 -217 q 308 -125 308 -160 q 321 -80 308 -100 q 355 -45 333 -60 q 401 -31 376 -31 "},"௮":{"ha":1511,"x_min":39,"x_max":1389,"o":"m 1389 -175 l 1249 -175 l 1249 713 l 1389 713 l 1389 -175 m 1249 76 l 1249 185 l 1021 185 q 1033 249 1029 217 q 1038 315 1038 281 q 1009 484 1038 407 q 928 618 981 561 q 802 706 876 675 q 638 738 728 738 q 449 694 532 738 q 319 578 367 651 q 271 407 271 504 q 294 283 271 340 q 358 185 318 226 l 233 185 q 86 144 133 185 q 39 36 39 103 q 92 -86 39 -33 q 237 -169 144 -139 q 450 -200 329 -200 q 681 -166 578 -200 q 860 -70 785 -132 q 981 76 936 -8 l 1249 76 m 418 407 q 447 517 418 469 q 524 592 475 564 q 638 619 574 619 q 774 581 718 619 q 860 473 831 542 q 889 315 889 404 q 884 248 889 281 q 869 185 879 215 l 608 185 q 510 213 553 185 q 443 292 468 242 q 418 407 418 342 m 450 -82 q 313 -66 372 -82 q 219 -24 253 -50 q 186 36 186 3 q 196 65 186 53 q 231 76 206 76 l 814 76 q 666 -39 758 4 q 450 -82 574 -82 "},"௹":{"ha":1579,"x_min":94,"x_max":1514,"o":"m 694 0 l 694 603 l 957 603 l 957 0 l 1096 0 l 1096 225 q 1133 324 1096 285 q 1229 364 1171 364 q 1304 335 1274 364 q 1350 258 1335 307 q 1365 144 1365 208 q 1329 -18 1365 54 q 1225 -142 1293 -90 q 1063 -221 1157 -193 q 857 -249 969 -249 q 598 -203 713 -249 q 404 -74 483 -158 q 283 128 325 11 q 242 392 242 246 q 287 672 242 543 q 418 897 332 801 q 626 1046 504 993 q 899 1099 747 1099 q 1049 1090 983 1099 q 1163 1067 1115 1082 q 1108 1012 1128 1047 q 1089 929 1088 976 q 1141 813 1092 858 q 1265 768 1190 768 q 1391 815 1342 768 q 1440 933 1440 863 q 1403 1046 1440 994 q 1297 1135 1367 1097 q 1126 1196 1226 1174 q 899 1219 1025 1218 q 569 1160 717 1221 q 314 986 421 1099 q 151 722 207 874 q 94 393 94 571 q 147 81 94 222 q 299 -161 200 -61 q 539 -315 397 -261 q 857 -369 681 -369 q 1122 -333 1001 -369 q 1330 -229 1242 -296 q 1466 -67 1418 -162 q 1514 143 1514 28 q 1480 319 1514 243 q 1383 440 1446 396 q 1239 485 1321 485 q 1163 472 1199 485 q 1096 438 1126 460 l 1096 603 l 1350 603 l 1329 713 l 554 713 l 554 0 l 694 0 m 1197 933 q 1217 981 1197 963 q 1265 1000 1236 1000 q 1315 981 1296 1000 q 1335 933 1335 963 q 1315 884 1335 903 q 1265 865 1296 865 q 1217 884 1236 865 q 1197 933 1197 903 "},"ொ":{"ha":2778,"x_min":67,"x_max":2736,"o":"m 1014 474 q 958 717 1014 613 q 798 879 901 821 q 556 938 694 938 q 298 874 408 938 q 127 701 188 811 q 67 447 67 590 q 118 201 67 308 q 260 35 169 94 q 468 -25 351 -25 q 604 4 544 -25 q 698 84 664 33 q 732 199 732 135 q 701 315 732 265 q 614 394 669 365 q 485 424 558 424 q 365 395 418 424 q 283 317 313 367 q 253 201 253 267 q 283 101 253 144 q 365 32 313 57 q 482 7 418 7 l 482 86 q 401 118 433 86 q 368 199 368 150 q 401 282 368 250 q 482 314 433 314 q 565 281 532 314 q 597 199 597 249 q 565 118 597 150 q 482 86 532 86 q 335 131 394 86 q 244 258 275 176 q 214 447 214 340 q 255 640 214 556 q 373 772 296 724 q 556 819 450 819 q 726 776 654 819 q 836 656 797 733 q 875 474 875 578 l 875 0 l 1014 0 l 1014 474 m 2482 603 l 2736 603 l 2715 713 l 1919 713 l 1919 0 l 2058 0 l 2058 603 l 2343 603 l 2343 0 l 2482 0 l 2482 603 m 1461 638 q 1432 649 1443 638 q 1421 678 1421 660 q 1432 708 1421 696 q 1461 719 1443 719 q 1490 708 1479 719 q 1501 678 1501 696 q 1490 649 1501 660 q 1461 638 1479 638 m 1586 617 q 1546 657 1546 617 q 1557 686 1546 675 q 1586 697 1568 697 q 1615 686 1604 697 q 1626 657 1626 675 q 1615 628 1626 639 q 1586 617 1604 617 m 1338 697 q 1367 686 1356 697 q 1378 657 1378 675 q 1367 628 1378 639 q 1338 617 1356 617 q 1308 628 1319 617 q 1297 657 1297 639 q 1308 686 1297 675 q 1338 697 1319 697 m 1692 546 q 1663 557 1674 546 q 1651 586 1651 568 q 1663 616 1651 604 q 1692 628 1674 628 q 1722 616 1710 628 q 1733 586 1733 604 q 1722 557 1733 568 q 1692 546 1710 546 m 1232 628 q 1261 616 1250 628 q 1272 586 1272 604 q 1261 557 1272 568 q 1232 546 1250 546 q 1202 557 1214 546 q 1190 586 1190 568 q 1202 616 1190 604 q 1232 628 1214 628 m 1758 436 q 1729 447 1740 436 q 1718 476 1718 458 q 1729 506 1718 494 q 1758 518 1740 518 q 1788 506 1776 518 q 1799 476 1799 494 q 1788 447 1799 458 q 1758 436 1776 436 m 1165 518 q 1194 506 1183 518 q 1206 476 1206 494 q 1194 447 1206 458 q 1165 436 1183 436 q 1135 447 1147 436 q 1124 476 1124 458 q 1135 506 1124 494 q 1165 518 1147 518 m 1778 318 q 1749 328 1760 318 q 1738 357 1738 339 q 1749 388 1738 376 q 1778 399 1760 399 q 1808 388 1796 399 q 1819 357 1819 376 q 1808 328 1819 339 q 1778 318 1796 318 m 1146 399 q 1175 388 1164 399 q 1186 357 1186 376 q 1175 328 1186 339 q 1146 318 1164 318 q 1116 328 1128 318 q 1104 357 1104 339 q 1116 388 1104 376 q 1146 399 1128 399 m 1758 201 q 1729 213 1740 201 q 1718 242 1718 224 q 1729 271 1718 260 q 1758 282 1740 282 q 1788 271 1776 282 q 1799 242 1799 260 q 1788 213 1799 224 q 1758 201 1776 201 m 1165 282 q 1194 271 1183 282 q 1206 242 1206 260 q 1194 213 1206 224 q 1165 201 1183 201 q 1135 213 1147 201 q 1124 242 1124 224 q 1135 271 1124 260 q 1165 282 1147 282 m 1693 90 q 1664 101 1675 90 q 1653 131 1653 113 q 1664 160 1653 149 q 1693 171 1675 171 q 1723 160 1711 171 q 1735 131 1735 149 q 1723 101 1735 113 q 1693 90 1711 90 m 1231 171 q 1260 160 1249 171 q 1271 131 1271 149 q 1260 101 1271 113 q 1231 90 1249 90 q 1201 101 1213 90 q 1189 131 1189 113 q 1201 160 1189 149 q 1231 171 1213 171 m 1338 103 q 1367 91 1356 103 q 1378 61 1378 79 q 1367 32 1378 43 q 1338 21 1356 21 q 1308 32 1319 21 q 1297 61 1297 43 q 1308 91 1297 79 q 1338 103 1319 103 m 1586 21 q 1557 32 1568 21 q 1546 61 1546 43 q 1557 91 1546 79 q 1586 103 1568 103 q 1615 91 1604 103 q 1626 61 1626 79 q 1615 32 1626 43 q 1586 21 1604 21 m 1461 0 q 1432 11 1443 0 q 1421 40 1421 22 q 1432 70 1421 58 q 1461 82 1443 82 q 1490 70 1479 82 q 1501 40 1501 58 q 1490 11 1501 22 q 1461 0 1479 0 "},"௴":{"ha":1778,"x_min":122,"x_max":1778,"o":"m 261 110 l 835 110 q 936 138 900 110 q 985 215 972 165 q 999 326 999 264 q 977 477 999 411 q 915 581 956 543 q 813 619 874 619 q 705 568 739 619 q 671 421 671 517 l 671 26 l 531 14 l 531 425 q 563 592 531 522 q 659 700 596 663 q 811 738 722 738 q 991 684 917 738 q 1105 538 1065 631 q 1144 326 1144 446 q 1112 157 1144 231 q 1011 42 1079 83 q 835 0 943 0 l 122 0 l 122 713 l 261 719 l 261 110 m 1778 765 l 1393 765 l 1393 875 q 1463 905 1438 875 q 1489 981 1489 935 q 1447 1066 1489 1032 q 1335 1100 1406 1100 q 1206 1082 1265 1100 q 1113 1026 1147 1064 q 1078 932 1078 989 q 1097 879 1078 900 q 1144 858 1115 858 q 1191 879 1172 858 q 1210 932 1210 900 q 1181 1028 1210 992 q 1101 1083 1151 1065 q 985 1100 1050 1100 q 876 1076 922 1100 q 806 1007 831 1051 q 781 906 781 963 q 811 792 781 840 q 893 724 842 744 l 794 643 q 677 749 721 681 q 633 906 633 817 q 677 1067 633 997 q 801 1178 721 1138 q 985 1219 881 1219 q 1165 1179 1085 1219 q 1293 1074 1246 1139 q 1340 932 1340 1008 q 1315 834 1340 876 q 1244 769 1289 792 q 1144 746 1200 746 q 1044 769 1089 746 q 972 834 999 792 q 946 932 946 876 q 976 1040 946 989 q 1060 1132 1007 1092 q 1186 1196 1114 1172 q 1342 1219 1258 1219 q 1494 1188 1428 1219 q 1599 1103 1561 1157 q 1636 981 1636 1049 q 1627 923 1636 949 q 1603 875 1618 897 l 1778 875 l 1778 765 "},"க":{"ha":1068,"x_min":53,"x_max":1029,"o":"m 689 285 l 689 603 l 939 603 l 918 713 l 215 713 l 215 365 l 356 365 l 356 603 l 549 603 l 549 285 q 525 186 549 229 q 456 118 501 143 q 346 93 411 93 q 239 124 278 93 q 200 203 200 156 q 240 286 200 256 q 356 317 279 317 l 731 317 q 847 283 811 317 q 883 199 883 250 q 842 117 883 147 q 713 86 801 86 l 713 -25 q 884 3 814 -25 q 992 83 954 32 q 1029 199 1029 133 q 994 317 1029 267 q 892 397 958 368 q 729 426 825 426 l 354 426 q 133 365 213 426 q 53 203 53 304 q 88 86 53 138 q 190 5 124 35 q 346 -25 257 -25 q 528 15 451 -25 q 647 126 606 56 q 689 285 689 196 "},"ு":{"ha":653,"x_min":-261,"x_max":618,"o":"m 368 603 q 451 571 418 603 q 483 489 483 539 q 451 406 483 439 q 368 374 418 374 q 286 406 318 374 q 254 489 254 439 q 286 571 254 539 q 368 603 318 603 l 368 701 q 244 673 299 701 q 158 597 189 644 q 126 486 126 549 q 158 372 126 422 q 243 292 189 321 q 367 264 297 264 q 496 292 440 264 q 585 372 551 321 q 618 489 618 424 q 583 605 618 554 q 490 684 549 656 q 354 713 431 713 l -261 713 l -261 603 l 368 603 "},"௦":{"ha":986,"x_min":67,"x_max":919,"o":"m 492 738 q 274 688 369 738 q 123 553 178 639 q 67 357 68 468 q 123 160 68 246 q 274 24 178 74 q 492 -25 369 -25 q 711 24 615 -25 q 863 160 807 74 q 919 357 918 246 q 863 553 918 468 q 711 688 807 639 q 492 738 615 738 m 492 93 q 349 127 413 93 q 250 221 286 161 q 214 357 214 281 q 250 492 214 433 q 349 585 286 551 q 493 619 413 619 q 636 585 574 619 q 735 493 699 551 q 772 357 772 435 q 735 221 772 281 q 636 127 699 161 q 492 93 574 93 "},"எ":{"ha":1243,"x_min":67,"x_max":1229,"o":"m 976 603 l 1229 603 l 1210 713 l 614 713 l 675 603 l 836 603 l 836 0 l 976 0 l 976 603 m 214 329 q 249 472 214 410 q 359 568 283 533 q 556 603 435 603 l 793 603 l 793 713 l 543 713 q 278 663 385 713 q 119 527 172 614 q 67 329 67 440 q 117 149 67 229 q 258 22 167 68 q 468 -25 349 -25 q 604 4 544 -25 q 698 84 664 33 q 732 199 732 135 q 699 316 732 265 q 610 395 667 367 q 481 424 554 424 q 361 395 414 424 q 278 317 308 367 q 249 201 249 267 q 278 101 249 144 q 361 32 308 57 q 479 7 414 7 l 482 86 q 401 118 433 86 q 368 199 368 150 q 401 282 368 250 q 482 314 433 314 q 565 281 532 314 q 597 199 597 249 q 565 118 597 150 q 482 86 532 86 q 335 117 396 86 q 244 203 275 149 q 214 329 214 258 "},"ௗ":{"ha":1733,"x_min":67,"x_max":1719,"o":"m 214 329 q 252 478 214 413 q 363 582 290 544 q 538 619 436 619 q 712 581 635 619 q 832 474 789 542 q 875 317 875 406 l 875 0 l 1014 0 l 1014 603 l 1326 603 l 1326 0 l 1465 0 l 1465 603 l 1719 603 l 1699 713 l 875 713 l 875 597 q 729 700 815 663 q 538 738 643 738 q 289 685 394 738 q 125 540 183 632 q 67 329 67 449 q 117 149 67 229 q 258 22 167 68 q 468 -25 349 -25 q 604 4 544 -25 q 698 84 664 33 q 732 199 732 135 q 699 316 732 265 q 610 395 667 367 q 481 424 554 424 q 361 395 414 424 q 278 317 308 367 q 249 201 249 267 q 278 101 249 144 q 361 32 308 57 q 479 7 414 7 l 482 86 q 401 118 433 86 q 368 199 368 150 q 401 282 368 250 q 482 314 433 314 q 565 281 532 314 q 597 199 597 249 q 565 118 597 150 q 482 86 532 86 q 335 117 396 86 q 244 203 275 149 q 214 329 214 258 "},"ஃ":{"ha":947,"x_min":67,"x_max":882,"o":"m 474 400 q 389 422 429 400 q 324 481 349 443 q 300 565 300 518 q 324 651 300 613 q 388 710 349 689 q 474 732 428 732 q 559 710 519 732 q 623 651 599 689 q 647 564 647 613 q 623 481 647 518 q 559 422 599 443 q 474 400 519 400 m 474 501 q 520 519 501 501 q 539 565 539 538 q 521 613 539 594 q 475 631 503 631 q 426 613 446 631 q 407 565 407 594 q 426 519 407 538 q 474 501 446 501 m 239 -19 q 154 3 193 -19 q 91 63 115 25 q 67 146 67 100 q 91 231 67 193 q 154 290 115 268 q 239 313 193 313 q 326 290 286 313 q 390 231 365 268 q 414 146 414 193 q 390 63 414 100 q 326 3 365 25 q 239 -19 286 -19 m 708 -19 q 622 3 663 -19 q 558 63 582 25 q 533 146 533 100 q 558 231 533 193 q 622 290 582 268 q 707 313 663 313 q 793 290 754 313 q 857 231 832 268 q 882 146 882 193 q 858 63 882 100 q 793 3 833 25 q 708 -19 753 -19 m 240 82 q 288 100 269 82 q 306 146 306 118 q 287 193 306 174 q 240 213 268 213 q 192 193 211 213 q 174 147 174 174 q 193 101 174 119 q 240 82 213 82 m 707 82 q 755 100 736 82 q 774 146 774 118 q 755 193 774 174 q 708 213 736 213 q 660 193 679 213 q 642 147 642 174 q 660 101 642 119 q 707 82 679 82 "},"ல":{"ha":1481,"x_min":67,"x_max":1414,"o":"m 1153 713 q 1218 588 1193 657 q 1255 450 1243 518 q 1267 329 1267 382 q 1233 160 1267 225 q 1117 94 1199 94 q 1007 144 1044 94 q 969 290 969 193 l 969 354 q 916 556 969 469 q 765 690 863 642 q 535 738 668 738 q 285 683 390 738 q 123 537 179 629 q 67 329 67 444 q 117 149 67 229 q 258 22 167 69 q 468 -25 349 -25 q 604 4 544 -25 q 698 84 664 33 q 732 199 732 135 q 699 315 732 265 q 610 394 667 365 q 481 424 554 424 q 363 395 415 424 q 280 317 310 367 q 250 201 250 267 q 280 101 250 146 q 362 32 310 57 q 479 7 414 7 l 482 86 q 401 118 433 86 q 368 199 368 150 q 401 282 368 250 q 482 314 433 314 q 565 281 532 314 q 597 199 597 249 q 565 118 597 150 q 482 86 532 86 q 335 117 396 86 q 244 203 274 149 q 214 329 214 258 q 251 478 214 413 q 360 581 289 543 q 533 618 432 618 q 692 586 626 618 q 794 494 758 554 q 831 354 831 435 l 831 290 q 863 121 831 192 q 960 13 896 50 q 1113 -25 1024 -25 q 1281 20 1214 -25 q 1381 145 1347 65 q 1414 329 1414 225 q 1402 451 1414 383 q 1364 592 1390 519 q 1296 732 1338 664 l 1153 713 "},"Ļ":{"ha":735,"x_min":122,"x_max":721,"o":"m 700 122 l 721 0 l 122 0 l 122 944 l 276 944 l 276 122 l 700 122 m 443 -31 q 509 -61 482 -31 q 536 -143 536 -92 q 516 -239 536 -193 q 461 -319 496 -285 q 385 -376 426 -354 l 349 -301 q 392 -269 369 -292 q 422 -217 415 -247 q 374 -188 397 -217 q 350 -125 350 -160 q 363 -80 350 -100 q 397 -45 375 -60 q 443 -31 418 -31 "},"௵":{"ha":2536,"x_min":94,"x_max":2469,"o":"m 908 738 q 654 685 764 738 q 484 540 544 632 q 424 329 424 449 q 474 149 424 229 q 615 22 524 68 q 826 -25 707 -25 q 962 4 903 -25 q 1055 84 1021 33 q 1089 199 1089 135 q 1057 315 1089 265 q 968 394 1025 365 q 839 424 911 424 q 719 395 772 424 q 635 317 665 367 q 606 201 606 267 q 635 101 606 144 q 718 32 665 57 q 838 7 771 7 l 840 86 q 759 118 792 86 q 726 200 726 150 q 759 282 726 250 q 840 314 792 314 q 923 281 890 314 q 956 199 956 249 q 923 118 956 150 q 840 86 890 86 q 693 117 753 86 q 602 204 633 149 q 571 329 571 260 q 612 478 571 413 q 728 582 653 544 q 908 619 804 619 q 1087 585 1015 619 q 1195 490 1158 550 q 1232 354 1232 431 q 1211 219 1232 281 q 1157 110 1190 158 l 1263 36 q 1347 177 1315 93 q 1379 354 1379 261 q 1319 552 1379 465 q 1154 688 1260 639 q 908 738 1049 738 m 2194 485 q 2117 472 2153 485 q 2053 438 2081 460 l 2053 603 l 2306 603 l 2285 713 l 1542 713 l 1542 110 l 1157 110 l 1157 0 l 1681 0 l 1681 603 l 1913 603 l 1913 0 l 2053 0 l 2053 225 q 2090 324 2053 285 q 2185 364 2128 364 q 2287 301 2251 364 q 2322 144 2322 239 q 2281 -31 2322 47 q 2163 -162 2240 -108 q 1974 -244 2085 -217 q 1722 -274 1863 -272 l 871 -274 q 537 -212 679 -274 q 318 -36 394 -150 q 242 233 242 78 q 267 418 242 326 q 337 588 292 510 q 439 713 382 665 l 296 726 q 192 590 238 672 q 120 416 146 508 q 94 236 94 324 q 149 -22 94 93 q 303 -217 203 -136 q 548 -341 404 -299 q 871 -383 692 -383 l 1722 -383 q 2035 -347 1897 -383 q 2270 -243 2174 -311 q 2418 -77 2367 -175 q 2469 143 2469 21 q 2435 319 2469 243 q 2339 440 2400 396 q 2194 485 2278 485 "},"இ":{"ha":1468,"x_min":39,"x_max":1344,"o":"m 690 738 q 863 697 790 738 q 973 587 935 657 q 1011 425 1011 517 q 984 243 1011 331 q 906 77 957 156 q 785 -66 854 -1 q 630 -177 715 -131 q 449 -249 544 -224 q 250 -275 353 -275 q 98 -227 157 -275 q 39 -107 39 -179 q 83 21 39 -37 q 202 122 126 79 q 378 188 278 164 q 590 211 478 211 q 788 188 694 211 q 953 122 882 164 q 1066 21 1025 79 q 1107 -107 1107 -37 q 1047 -227 1107 -179 q 896 -275 988 -275 q 671 -239 782 -275 q 463 -135 560 -203 q 291 24 365 -68 q 174 228 217 117 q 132 465 132 340 q 176 675 132 579 q 303 840 221 771 q 501 949 385 910 q 760 988 617 988 q 997 950 889 988 q 1182 844 1104 913 q 1302 682 1260 775 q 1344 478 1344 589 l 1344 -206 l 1206 -206 l 1206 475 q 1149 678 1206 589 q 992 819 1093 768 q 760 869 892 869 q 500 817 610 869 q 332 674 390 765 q 274 465 274 583 q 306 267 274 361 q 397 96 339 174 q 533 -39 456 18 q 699 -126 611 -96 q 878 -157 786 -157 q 937 -141 914 -157 q 960 -101 960 -125 q 930 -22 960 -58 q 849 39 900 14 q 731 78 797 64 q 590 92 664 92 q 435 78 508 92 q 306 38 363 64 q 218 -23 250 13 q 186 -101 186 -58 q 209 -141 186 -125 q 268 -157 232 -157 q 448 -128 360 -157 q 613 -49 536 -100 q 749 74 690 3 q 840 235 807 146 q 872 425 872 325 q 824 565 872 511 q 690 619 776 619 q 533 574 594 619 q 472 457 472 528 q 494 400 472 422 q 551 379 517 378 q 608 400 586 378 q 631 457 631 422 q 609 512 631 490 q 553 533 588 533 q 495 512 518 533 q 472 457 472 490 l 396 457 q 417 544 396 506 q 474 604 438 582 q 560 626 511 626 q 692 580 640 626 q 744 457 744 533 q 689 327 743 378 q 551 278 635 276 q 413 330 468 279 q 358 457 358 381 q 399 602 358 539 q 515 701 440 665 q 690 738 589 738 "},"ந":{"ha":1103,"x_min":122,"x_max":1038,"o":"m 764 485 q 687 472 724 485 q 621 438 650 460 l 621 603 l 875 603 l 854 713 l 122 713 l 122 0 l 261 0 l 261 603 l 482 603 l 482 0 l 621 0 l 621 225 q 659 324 621 285 q 753 364 697 364 q 855 302 819 364 q 890 144 890 240 q 867 -3 890 61 q 795 -105 843 -68 q 678 -142 747 -142 l 457 -142 q 233 -175 314 -142 q 122 -269 153 -208 l 235 -337 q 313 -276 263 -299 q 467 -253 364 -253 l 678 -253 q 871 -201 790 -253 q 994 -60 951 -150 q 1038 143 1038 29 q 1003 320 1038 244 q 908 440 969 396 q 764 485 847 485 "},"ங":{"ha":1419,"x_min":122,"x_max":1297,"o":"m 621 603 l 875 603 l 854 713 l 122 713 l 122 0 l 261 0 l 261 603 l 482 603 l 482 218 l 621 218 l 621 603 m 1297 713 l 1158 713 l 1158 110 l 482 110 l 482 0 l 1297 0 l 1297 713 m 864 269 q 845 188 864 224 q 787 131 826 151 q 685 110 747 110 l 685 11 q 859 42 786 11 q 971 131 932 72 q 1010 269 1010 189 q 980 400 1010 344 q 894 487 950 456 q 765 518 838 518 q 635 485 692 518 q 547 398 579 453 q 514 271 514 343 l 621 271 q 657 363 621 325 q 750 400 693 400 q 834 361 804 400 q 864 269 864 322 "},"ம":{"ha":1211,"x_min":122,"x_max":1144,"o":"m 261 110 l 835 110 q 936 138 900 110 q 985 215 972 165 q 999 326 999 264 q 977 477 999 411 q 915 581 956 543 q 813 619 874 619 q 705 568 739 619 q 671 421 671 517 l 671 26 l 531 14 l 531 425 q 563 592 531 522 q 659 700 596 663 q 811 738 722 738 q 991 684 917 738 q 1105 538 1065 631 q 1144 326 1144 446 q 1112 157 1144 231 q 1011 42 1079 83 q 835 0 943 0 l 122 0 l 122 713 l 261 719 l 261 110 "},"௬":{"ha":1528,"x_min":53,"x_max":1514,"o":"m 1514 0 l 1514 110 l 1096 110 l 1096 0 l 1514 0 m 1231 226 q 1197 142 1231 175 q 1096 110 1163 110 l 1096 11 q 1247 40 1183 11 q 1344 119 1310 69 q 1378 231 1378 169 q 1347 345 1378 296 q 1259 422 1315 394 q 1125 450 1203 450 q 983 417 1044 450 q 885 326 921 385 q 850 192 850 267 l 976 192 q 1015 293 976 253 q 1115 333 1053 333 q 1200 303 1169 333 q 1231 226 1231 272 m 689 285 l 689 603 l 939 603 l 918 713 l 215 713 l 215 365 l 356 365 l 356 603 l 549 603 l 549 285 q 525 186 549 229 q 456 118 501 143 q 346 93 411 93 q 239 124 278 93 q 200 203 200 156 q 240 286 200 256 q 356 317 279 317 l 681 317 q 799 283 763 317 q 836 192 836 249 l 836 0 l 976 0 l 976 192 q 942 315 976 263 q 841 397 907 367 q 679 426 775 426 l 354 426 q 133 365 213 426 q 53 203 53 304 q 88 86 53 138 q 190 5 124 35 q 346 -25 257 -25 q 528 15 451 -25 q 647 126 606 56 q 689 285 689 196 "},"த":{"ha":1094,"x_min":53,"x_max":1042,"o":"m 711 317 q 806 290 765 317 q 871 215 847 263 q 894 106 894 167 q 863 -22 894 33 q 774 -110 831 -78 q 644 -143 718 -143 l 388 -143 q 166 -178 251 -143 q 53 -269 81 -212 l 167 -337 q 244 -276 193 -300 q 396 -253 294 -253 l 644 -253 q 849 -206 760 -253 q 990 -78 939 -158 q 1042 106 1042 3 q 999 272 1042 199 q 882 385 957 344 q 710 426 807 426 l 354 426 q 133 365 213 426 q 53 203 53 304 q 88 86 53 138 q 190 5 124 35 q 346 -25 257 -25 q 528 15 451 -25 q 647 126 606 56 q 689 285 689 196 l 689 603 l 939 603 l 918 713 l 215 713 l 215 365 l 356 365 l 356 603 l 549 603 l 549 285 q 525 186 549 229 q 456 118 501 143 q 346 93 411 93 q 239 124 278 93 q 200 203 200 156 q 240 286 200 256 q 356 317 279 317 l 711 317 "},"௱":{"ha":1422,"x_min":108,"x_max":1408,"o":"m 108 0 l 247 0 l 247 432 q 283 572 247 524 q 393 619 318 619 q 522 558 481 619 q 563 401 563 496 l 563 0 l 703 0 l 703 603 l 1015 603 l 1015 0 l 1156 0 l 1156 603 l 1408 603 l 1389 713 l 563 713 l 563 667 q 485 719 529 701 q 389 738 442 738 q 235 701 299 738 q 140 597 172 664 q 108 435 108 529 l 108 0 "},"ஐ":{"ha":1133,"x_min":67,"x_max":1067,"o":"m 901 -37 q 873 -130 901 -93 q 786 -167 844 -167 q 712 -147 743 -167 q 663 -96 681 -128 q 644 -24 644 -64 l 644 72 l 503 72 l 503 -24 q 483 -96 503 -64 q 431 -147 464 -128 q 354 -167 397 -167 q 251 -128 290 -167 q 214 -32 211 -90 q 236 53 215 17 q 306 115 257 90 q 442 150 356 139 l 692 183 q 902 244 819 201 q 1026 350 985 286 q 1067 493 1067 414 q 1033 620 1067 565 q 942 706 1000 675 q 806 738 883 738 q 656 692 718 738 q 557 572 593 646 l 557 511 l 632 511 l 632 572 q 568 658 607 621 q 478 717 529 696 q 364 738 428 738 q 213 701 279 738 q 108 601 146 664 q 71 463 71 539 q 118 342 71 390 q 238 294 165 294 q 356 337 308 294 q 404 444 404 379 q 360 551 406 508 q 243 594 315 594 q 137 556 179 594 q 96 456 94 517 l 182 444 q 200 488 182 471 q 244 506 218 506 q 288 488 271 506 q 304 443 304 471 q 288 401 306 418 q 244 385 271 385 q 200 401 218 385 q 182 444 182 418 q 206 532 182 493 q 272 595 231 571 q 364 619 313 619 q 481 578 438 619 q 525 476 525 538 l 525 381 l 664 381 l 664 476 q 681 549 664 517 q 730 601 699 582 q 806 619 761 619 q 890 584 858 619 q 921 493 921 549 q 896 408 921 447 q 821 342 871 369 q 692 304 771 315 l 442 271 q 222 211 304 253 q 103 108 139 169 q 67 -32 67 46 q 103 -162 67 -106 q 206 -252 140 -219 q 354 -285 271 -285 q 472 -264 419 -285 q 560 -206 524 -243 q 614 -119 596 -168 l 614 -42 l 536 -44 l 536 -119 q 588 -206 554 -168 q 672 -264 622 -243 q 786 -285 721 -285 q 922 -253 863 -285 q 1014 -168 981 -222 q 1047 -44 1047 -114 q 1035 44 1047 0 q 994 140 1022 88 l 851 132 q 890 36 878 85 q 901 -37 901 -12 "},"Ŗ":{"ha":854,"x_min":122,"x_max":840,"o":"m 400 814 l 276 814 l 276 496 l 399 496 q 503 512 457 496 q 578 561 550 528 q 607 653 607 594 q 581 747 607 713 q 510 798 556 782 q 400 814 464 814 m 122 944 l 404 944 q 589 915 506 944 q 721 822 672 885 q 769 660 769 760 q 724 506 769 568 q 607 413 678 444 l 840 0 l 674 0 l 468 371 q 426 369 451 369 q 381 368 401 368 l 276 368 l 276 0 l 122 0 l 122 944 m 469 -31 q 535 -61 508 -31 q 563 -143 563 -92 q 542 -239 563 -193 q 488 -319 522 -285 q 411 -376 453 -354 l 375 -301 q 419 -269 396 -292 q 449 -217 442 -247 q 400 -188 424 -217 q 376 -125 376 -160 q 389 -80 376 -100 q 423 -45 401 -60 q 469 -31 444 -31 "},"௩":{"ha":1185,"x_min":122,"x_max":1171,"o":"m 621 603 l 875 603 l 854 713 l 122 713 l 122 0 l 261 0 l 261 603 l 482 603 l 482 218 l 621 218 l 621 603 m 1171 110 l 953 110 q 995 181 981 140 q 1010 269 1010 221 q 980 400 1010 344 q 894 487 950 456 q 765 518 838 518 q 636 485 693 518 q 547 398 579 453 q 514 271 514 343 l 621 271 q 657 363 621 325 q 750 400 693 400 q 834 361 804 400 q 864 269 864 322 q 844 188 864 224 q 786 131 825 151 q 685 110 747 110 l 482 110 l 482 0 l 1171 0 l 1171 110 "},"௰":{"ha":1158,"x_min":67,"x_max":1092,"o":"m 975 732 l 832 713 q 897 588 872 657 q 934 450 922 518 q 946 329 946 382 q 912 160 946 226 q 796 94 878 94 q 687 144 724 94 q 650 290 650 193 l 650 469 l 508 469 l 508 290 q 472 144 508 193 q 363 94 435 94 q 247 160 282 94 q 213 329 213 226 q 224 450 213 382 q 262 588 236 518 q 326 713 288 657 l 183 732 q 117 592 143 664 q 79 451 92 519 q 67 329 67 383 q 99 145 67 225 q 197 20 131 65 q 364 -25 263 -25 q 489 -1 435 -25 q 579 67 543 22 q 671 -1 617 22 q 794 -25 725 -25 q 962 20 896 -25 q 1060 145 1028 65 q 1092 329 1092 225 q 1080 451 1092 383 q 1042 592 1068 519 q 975 732 1017 664 "},"ச":{"ha":976,"x_min":53,"x_max":939,"o":"m 689 285 l 689 603 l 939 603 l 918 713 l 215 713 l 215 365 l 356 365 l 356 603 l 549 603 l 549 285 q 525 186 549 229 q 456 118 501 143 q 346 93 411 93 q 239 124 278 93 q 200 203 200 156 q 240 286 200 256 q 356 317 279 317 l 939 317 l 918 426 l 354 426 q 133 365 213 426 q 53 203 53 304 q 88 86 53 138 q 190 5 124 35 q 346 -25 257 -25 q 528 15 451 -25 q 647 126 606 56 q 689 285 689 196 "},"ģ":{"ha":768,"x_min":39,"x_max":681,"o":"m 371 760 q 306 791 333 760 q 278 872 278 822 q 298 965 278 921 q 353 1047 318 1010 q 429 1104 388 1083 l 465 1031 q 421 998 443 1019 q 392 944 399 976 q 424 931 407 944 q 453 897 442 918 q 465 854 465 876 q 452 809 465 831 q 418 774 439 788 q 371 760 397 760 m 681 674 l 681 -46 q 640 -192 681 -131 q 523 -286 599 -253 q 342 -319 447 -319 q 287 -315 321 -319 q 216 -302 253 -311 q 144 -279 179 -293 q 85 -247 110 -265 l 132 -136 q 233 -178 186 -164 q 338 -194 281 -193 q 472 -154 419 -193 q 524 -44 524 -115 l 524 557 l 596 674 l 681 674 m 563 211 l 610 106 q 538 39 579 67 q 453 -3 496 11 q 375 -18 410 -18 q 195 26 271 -18 q 79 151 119 71 q 39 339 39 231 q 80 524 39 444 q 197 647 121 603 q 378 692 274 692 q 455 677 410 692 q 542 635 500 663 q 611 568 585 607 l 565 461 q 476 536 519 514 q 379 558 432 558 q 281 529 322 558 q 219 451 240 500 q 199 339 199 401 q 219 224 199 274 q 281 145 240 174 q 378 117 322 117 q 474 140 432 117 q 563 211 517 164 "},"ோ":{"ha":2654,"x_min":67,"x_max":2613,"o":"m 214 457 q 253 647 214 565 q 365 774 293 728 q 535 822 438 821 q 661 813 615 821 q 728 790 707 804 q 754 755 749 775 q 760 710 760 735 q 734 644 760 669 q 669 619 708 619 q 606 645 632 619 q 581 711 581 671 q 606 774 581 749 q 672 799 632 799 q 734 774 708 799 q 760 710 760 749 l 850 718 l 786 821 l 682 883 l 664 883 q 558 861 604 883 q 484 799 511 839 q 457 710 457 760 q 484 604 457 650 q 558 533 511 558 q 665 507 606 507 q 780 533 731 507 q 858 605 829 560 q 888 708 888 650 q 849 826 888 774 q 737 908 810 878 q 561 938 664 938 q 360 902 451 938 q 203 802 269 867 q 102 649 138 738 q 67 457 67 561 q 102 264 67 353 q 203 110 138 175 q 360 10 269 46 q 561 -25 451 -25 q 737 5 664 -25 q 849 87 810 35 q 888 206 888 139 q 858 309 888 264 q 780 380 829 354 q 665 406 731 406 q 558 380 606 406 q 484 309 511 354 q 457 204 457 264 q 516 78 457 128 q 664 29 575 29 l 682 29 l 786 92 l 850 194 l 760 203 q 734 139 760 164 q 671 114 708 114 q 606 139 632 114 q 581 203 581 164 q 606 267 581 242 q 669 293 632 293 q 734 268 708 293 q 760 203 760 243 q 754 158 760 179 q 728 122 749 138 q 661 99 707 107 q 535 90 615 90 q 365 138 438 92 q 253 267 293 185 q 214 457 214 349 m 2360 603 l 2614 603 l 2593 713 l 1797 713 l 1797 0 l 1936 0 l 1936 603 l 2221 603 l 2221 0 l 2360 0 l 2360 603 m 1326 638 q 1297 649 1308 638 q 1286 678 1286 660 q 1297 708 1286 696 q 1326 719 1308 719 q 1356 708 1344 719 q 1367 678 1367 696 q 1356 649 1367 660 q 1326 638 1344 638 m 1451 617 q 1411 657 1411 617 q 1422 686 1411 675 q 1451 697 1433 697 q 1481 686 1469 697 q 1492 657 1492 675 q 1481 628 1492 639 q 1451 617 1469 617 m 1203 697 q 1232 686 1221 697 q 1243 657 1243 675 q 1232 628 1243 639 q 1203 617 1221 617 q 1174 628 1185 617 q 1163 657 1163 639 q 1174 686 1163 675 q 1203 697 1185 697 m 1557 546 q 1528 557 1539 546 q 1517 586 1517 568 q 1528 616 1517 604 q 1557 628 1539 628 q 1587 616 1575 628 q 1599 586 1599 604 q 1587 557 1599 568 q 1557 546 1575 546 m 1097 628 q 1126 616 1115 628 q 1138 586 1138 604 q 1126 557 1138 568 q 1097 546 1115 546 q 1067 557 1079 546 q 1056 586 1056 568 q 1067 616 1056 604 q 1097 628 1079 628 m 1624 436 q 1594 447 1606 436 q 1583 476 1583 458 q 1594 506 1583 494 q 1624 518 1606 518 q 1653 506 1642 518 q 1664 476 1664 494 q 1653 447 1664 458 q 1624 436 1642 436 m 1031 518 q 1060 506 1049 518 q 1071 476 1071 494 q 1060 447 1071 458 q 1031 436 1049 436 q 1001 447 1013 436 q 989 476 989 458 q 1001 506 989 494 q 1031 518 1013 518 m 1643 318 q 1614 328 1625 318 q 1603 357 1603 339 q 1614 388 1603 376 q 1643 399 1625 399 q 1673 388 1661 399 q 1685 357 1685 376 q 1673 328 1685 339 q 1643 318 1661 318 m 1011 399 q 1040 388 1029 399 q 1051 357 1051 376 q 1040 328 1051 339 q 1011 318 1029 318 q 981 328 993 318 q 969 357 969 339 q 981 388 969 376 q 1011 399 993 399 m 1624 201 q 1594 213 1606 201 q 1583 242 1583 224 q 1594 271 1583 260 q 1624 282 1606 282 q 1653 271 1642 282 q 1664 242 1664 260 q 1653 213 1664 224 q 1624 201 1642 201 m 1031 282 q 1060 271 1049 282 q 1071 242 1071 260 q 1060 213 1071 224 q 1031 201 1049 201 q 1001 213 1013 201 q 989 242 989 224 q 1001 271 989 260 q 1031 282 1013 282 m 1558 90 q 1529 101 1540 90 q 1518 131 1518 113 q 1529 160 1518 149 q 1558 171 1540 171 q 1588 160 1576 171 q 1600 131 1600 149 q 1588 101 1600 113 q 1558 90 1576 90 m 1096 171 q 1125 160 1114 171 q 1136 131 1136 149 q 1125 101 1136 113 q 1096 90 1114 90 q 1066 101 1078 90 q 1054 131 1054 113 q 1066 160 1054 149 q 1096 171 1078 171 m 1203 103 q 1232 91 1221 103 q 1243 61 1243 79 q 1232 32 1243 43 q 1203 21 1221 21 q 1174 32 1185 21 q 1163 61 1163 43 q 1174 91 1163 79 q 1203 103 1185 103 m 1451 21 q 1422 32 1433 21 q 1411 61 1411 43 q 1422 91 1411 79 q 1451 103 1433 103 q 1481 91 1469 103 q 1492 61 1492 79 q 1481 32 1492 43 q 1451 21 1469 21 m 1326 0 q 1297 11 1308 0 q 1286 40 1286 22 q 1297 70 1286 58 q 1326 82 1308 82 q 1356 70 1344 82 q 1367 40 1367 58 q 1356 11 1367 22 q 1326 0 1344 0 "}}}
